%TF.GenerationSoftware,KiCad,Pcbnew,7.0.11-2.fc39*%
%TF.CreationDate,2024-04-03T17:16:25+02:00*%
%TF.ProjectId,CarteMPP,43617274-654d-4505-902e-6b696361645f,rev?*%
%TF.SameCoordinates,Original*%
%TF.FileFunction,Copper,L1,Top*%
%TF.FilePolarity,Positive*%
%FSLAX46Y46*%
G04 Gerber Fmt 4.6, Leading zero omitted, Abs format (unit mm)*
G04 Created by KiCad (PCBNEW 7.0.11-2.fc39) date 2024-04-03 17:16:25*
%MOMM*%
%LPD*%
G01*
G04 APERTURE LIST*
G04 Aperture macros list*
%AMRoundRect*
0 Rectangle with rounded corners*
0 $1 Rounding radius*
0 $2 $3 $4 $5 $6 $7 $8 $9 X,Y pos of 4 corners*
0 Add a 4 corners polygon primitive as box body*
4,1,4,$2,$3,$4,$5,$6,$7,$8,$9,$2,$3,0*
0 Add four circle primitives for the rounded corners*
1,1,$1+$1,$2,$3*
1,1,$1+$1,$4,$5*
1,1,$1+$1,$6,$7*
1,1,$1+$1,$8,$9*
0 Add four rect primitives between the rounded corners*
20,1,$1+$1,$2,$3,$4,$5,0*
20,1,$1+$1,$4,$5,$6,$7,0*
20,1,$1+$1,$6,$7,$8,$9,0*
20,1,$1+$1,$8,$9,$2,$3,0*%
G04 Aperture macros list end*
%TA.AperFunction,SMDPad,CuDef*%
%ADD10RoundRect,0.375000X0.625000X0.375000X-0.625000X0.375000X-0.625000X-0.375000X0.625000X-0.375000X0*%
%TD*%
%TA.AperFunction,SMDPad,CuDef*%
%ADD11RoundRect,0.500000X0.500000X1.400000X-0.500000X1.400000X-0.500000X-1.400000X0.500000X-1.400000X0*%
%TD*%
%TA.AperFunction,SMDPad,CuDef*%
%ADD12RoundRect,0.250000X0.650000X-0.412500X0.650000X0.412500X-0.650000X0.412500X-0.650000X-0.412500X0*%
%TD*%
%TA.AperFunction,SMDPad,CuDef*%
%ADD13RoundRect,0.250000X-0.412500X-0.650000X0.412500X-0.650000X0.412500X0.650000X-0.412500X0.650000X0*%
%TD*%
%TA.AperFunction,SMDPad,CuDef*%
%ADD14R,2.377069X0.622132*%
%TD*%
%TA.AperFunction,SMDPad,CuDef*%
%ADD15RoundRect,0.311066X-0.877468X0.000000X0.877468X0.000000X0.877468X0.000000X-0.877468X0.000000X0*%
%TD*%
%TA.AperFunction,SMDPad,CuDef*%
%ADD16R,1.500000X3.000000*%
%TD*%
%TA.AperFunction,SMDPad,CuDef*%
%ADD17R,1.499997X3.000000*%
%TD*%
%TA.AperFunction,SMDPad,CuDef*%
%ADD18RoundRect,0.250000X0.412500X0.650000X-0.412500X0.650000X-0.412500X-0.650000X0.412500X-0.650000X0*%
%TD*%
%TA.AperFunction,ComponentPad*%
%ADD19R,1.700000X1.700000*%
%TD*%
%TA.AperFunction,ComponentPad*%
%ADD20O,1.700000X1.700000*%
%TD*%
%TA.AperFunction,ComponentPad*%
%ADD21C,5.500000*%
%TD*%
%TA.AperFunction,ComponentPad*%
%ADD22R,1.800000X2.200000*%
%TD*%
%TA.AperFunction,ComponentPad*%
%ADD23O,1.800000X2.200000*%
%TD*%
%TA.AperFunction,SMDPad,CuDef*%
%ADD24RoundRect,0.250000X-0.625000X0.400000X-0.625000X-0.400000X0.625000X-0.400000X0.625000X0.400000X0*%
%TD*%
%TA.AperFunction,SMDPad,CuDef*%
%ADD25RoundRect,0.250000X-0.650000X0.412500X-0.650000X-0.412500X0.650000X-0.412500X0.650000X0.412500X0*%
%TD*%
%TA.AperFunction,SMDPad,CuDef*%
%ADD26RoundRect,0.250001X0.462499X0.624999X-0.462499X0.624999X-0.462499X-0.624999X0.462499X-0.624999X0*%
%TD*%
%TA.AperFunction,SMDPad,CuDef*%
%ADD27R,0.740000X2.400000*%
%TD*%
%TA.AperFunction,SMDPad,CuDef*%
%ADD28RoundRect,0.250000X0.625000X-0.400000X0.625000X0.400000X-0.625000X0.400000X-0.625000X-0.400000X0*%
%TD*%
%TA.AperFunction,ComponentPad*%
%ADD29R,1.200000X1.600000*%
%TD*%
%TA.AperFunction,ComponentPad*%
%ADD30O,1.200000X1.600000*%
%TD*%
%TA.AperFunction,ComponentPad*%
%ADD31R,2.200000X1.800000*%
%TD*%
%TA.AperFunction,ComponentPad*%
%ADD32O,2.200000X1.800000*%
%TD*%
%TA.AperFunction,ComponentPad*%
%ADD33R,2.400000X1.600000*%
%TD*%
%TA.AperFunction,ComponentPad*%
%ADD34O,2.400000X1.600000*%
%TD*%
%TA.AperFunction,ComponentPad*%
%ADD35O,1.600000X1.600000*%
%TD*%
%TA.AperFunction,SMDPad,CuDef*%
%ADD36R,0.550000X1.500000*%
%TD*%
%TA.AperFunction,SMDPad,CuDef*%
%ADD37R,1.500000X0.550000*%
%TD*%
%TA.AperFunction,ViaPad*%
%ADD38C,1.000000*%
%TD*%
%TA.AperFunction,ViaPad*%
%ADD39C,1.500000*%
%TD*%
%TA.AperFunction,Conductor*%
%ADD40C,0.500000*%
%TD*%
%TA.AperFunction,Conductor*%
%ADD41C,1.000000*%
%TD*%
%TA.AperFunction,Conductor*%
%ADD42C,0.400000*%
%TD*%
%TA.AperFunction,Conductor*%
%ADD43C,2.000000*%
%TD*%
G04 APERTURE END LIST*
D10*
%TO.P,U3,1,GND*%
%TO.N,GND*%
X164500000Y-118400000D03*
%TO.P,U3,2,VO*%
%TO.N,+3.3V*%
X164500000Y-116100000D03*
D11*
X158200000Y-116100000D03*
D10*
%TO.P,U3,3,VI*%
%TO.N,+5V*%
X164500000Y-113800000D03*
%TD*%
D12*
%TO.P,C6,1*%
%TO.N,+5V*%
X158700000Y-108462500D03*
%TO.P,C6,2*%
%TO.N,GND*%
X158700000Y-105337500D03*
%TD*%
D13*
%TO.P,C2,1,1*%
%TO.N,GND*%
X149637500Y-104500000D03*
%TO.P,C2,2,2*%
%TO.N,+3.3V*%
X152762500Y-104500000D03*
%TD*%
D14*
%TO.P,U2,1,TXD*%
%TO.N,/TX_Can*%
X161957468Y-104495000D03*
D15*
%TO.P,U2,2,VSS*%
%TO.N,GND*%
X161957468Y-105765000D03*
%TO.P,U2,3,VDD*%
%TO.N,+5V*%
X161957468Y-107035000D03*
%TO.P,U2,4,RXD*%
%TO.N,/RX_Can*%
X161957468Y-108305000D03*
%TO.P,U2,5,VIO*%
%TO.N,+3.3V*%
X166792531Y-108305000D03*
%TO.P,U2,6,CANL*%
%TO.N,/CAN_L*%
X166792531Y-107035000D03*
%TO.P,U2,7,CANH*%
%TO.N,/CAN_H*%
X166792531Y-105765000D03*
%TO.P,U2,8,STBY*%
%TO.N,GND*%
X166792531Y-104495000D03*
%TD*%
D16*
%TO.P,JP2,1,VCC*%
%TO.N,+5V*%
X180088008Y-99388996D03*
%TO.P,JP2,2,GND*%
%TO.N,GND*%
X178818008Y-94888995D03*
%TO.P,JP2,3,CAN_L*%
%TO.N,/CAN_L*%
X177548008Y-99388996D03*
%TO.P,JP2,4,CAN_H*%
%TO.N,/CAN_H*%
X176278008Y-94888995D03*
%TO.P,JP2,5,CAN_H*%
X175008008Y-99388996D03*
%TO.P,JP2,6,CAN_L*%
%TO.N,/CAN_L*%
X173738008Y-94888995D03*
D17*
%TO.P,JP2,7,GND*%
%TO.N,GND*%
X172468008Y-99388996D03*
%TO.P,JP2,8,VCC*%
%TO.N,+5V*%
X171198008Y-94888995D03*
%TD*%
D18*
%TO.P,C3,1,1*%
%TO.N,GND*%
X158262500Y-89000000D03*
%TO.P,C3,2,2*%
%TO.N,/NRST*%
X155137500Y-89000000D03*
%TD*%
D19*
%TO.P,J15,1,Pin_1*%
%TO.N,/V_HERKULEX*%
X139900000Y-113200000D03*
D20*
%TO.P,J15,2,Pin_2*%
%TO.N,/V_STEPPER*%
X137360000Y-113200000D03*
%TD*%
D21*
%TO.P,J9,1,Pin_1*%
%TO.N,unconnected-(J9-Pin_1-Pad1)*%
X129100000Y-86700000D03*
%TD*%
D22*
%TO.P,J14,1,Pin_1*%
%TO.N,/V_HERKULEX*%
X152140000Y-117600000D03*
D23*
%TO.P,J14,2,Pin_2*%
%TO.N,GND*%
X149600000Y-117600000D03*
%TD*%
D24*
%TO.P,R1,1,1*%
%TO.N,GND*%
X163700000Y-91150000D03*
%TO.P,R1,2,2*%
%TO.N,/BOOT0*%
X163700000Y-94250000D03*
%TD*%
D25*
%TO.P,C4,1,1*%
%TO.N,+5V*%
X167400000Y-114537500D03*
%TO.P,C4,2,2*%
%TO.N,GND*%
X167400000Y-117662500D03*
%TD*%
D22*
%TO.P,J4,1,Pin_1*%
%TO.N,/Aux3*%
X150560000Y-85300000D03*
D23*
%TO.P,J4,2,Pin_2*%
%TO.N,GND*%
X153100000Y-85300000D03*
%TD*%
D21*
%TO.P,J11,1,Pin_1*%
%TO.N,unconnected-(J11-Pin_1-Pad1)*%
X179100000Y-86700000D03*
%TD*%
D26*
%TO.P,D1,1,K*%
%TO.N,Net-(D1-K)*%
X173200000Y-113750000D03*
%TO.P,D1,2,A*%
%TO.N,+3.3V*%
X170225000Y-113750000D03*
%TD*%
D21*
%TO.P,J12,1,Pin_1*%
%TO.N,unconnected-(J12-Pin_1-Pad1)*%
X179100000Y-116700000D03*
%TD*%
D27*
%TO.P,J6,1,1*%
%TO.N,+3.3V*%
X166190000Y-90200000D03*
%TO.P,J6,2,2*%
%TO.N,GND*%
X166190000Y-86300000D03*
%TO.P,J6,3,3*%
X167460000Y-90200000D03*
%TO.P,J6,4,4*%
%TO.N,/SWO*%
X167460000Y-86300000D03*
%TO.P,J6,5,5*%
%TO.N,/RX_TARGET*%
X168730000Y-90200000D03*
%TO.P,J6,6,6*%
%TO.N,/TCK*%
X168730000Y-86300000D03*
%TO.P,J6,7,7*%
%TO.N,/TMS*%
X170000000Y-90200000D03*
%TO.P,J6,8,8*%
%TO.N,/TX_TARGET*%
X170000000Y-86300000D03*
%TO.P,J6,9,9*%
%TO.N,GND*%
X171270000Y-90200000D03*
%TO.P,J6,10,10*%
%TO.N,/NRST*%
X171270000Y-86300000D03*
%TD*%
D18*
%TO.P,C7,1*%
%TO.N,+3.3V*%
X167192531Y-111005000D03*
%TO.P,C7,2*%
%TO.N,GND*%
X164067531Y-111005000D03*
%TD*%
D28*
%TO.P,R2,1,1*%
%TO.N,GND*%
X173200000Y-119200000D03*
%TO.P,R2,2,2*%
%TO.N,Net-(D1-K)*%
X173200000Y-116100000D03*
%TD*%
D29*
%TO.P,J16,1,GND*%
%TO.N,GND*%
X137900000Y-117100000D03*
D30*
%TO.P,J16,2,VCC*%
%TO.N,/V_HERKULEX*%
X139900000Y-117100000D03*
%TO.P,J16,3,TXD*%
%TO.N,/Rx1*%
X141900000Y-117100000D03*
%TO.P,J16,4,RXD*%
%TO.N,/Tx1*%
X143900000Y-117100000D03*
%TD*%
D22*
%TO.P,J3,1,Pin_1*%
%TO.N,/Aux2*%
X135100000Y-85300000D03*
D23*
%TO.P,J3,2,Pin_2*%
%TO.N,GND*%
X137640000Y-85300000D03*
%TD*%
D22*
%TO.P,J8,1,Pin_1*%
%TO.N,/Aux1*%
X142560000Y-85300000D03*
D23*
%TO.P,J8,2,Pin_2*%
%TO.N,GND*%
X145100000Y-85300000D03*
%TD*%
D31*
%TO.P,J5,1,Pin_1*%
%TO.N,/B1*%
X128100000Y-102700000D03*
D32*
%TO.P,J5,2,Pin_2*%
%TO.N,/B2*%
X128100000Y-100160000D03*
%TO.P,J5,3,Pin_3*%
%TO.N,/A1*%
X128100000Y-97620000D03*
%TO.P,J5,4,Pin_4*%
%TO.N,/A2*%
X128100000Y-95080000D03*
%TD*%
D22*
%TO.P,J7,1,Pin_1*%
%TO.N,/Aux4*%
X158560000Y-85300000D03*
D23*
%TO.P,J7,2,Pin_2*%
%TO.N,GND*%
X161100000Y-85300000D03*
%TD*%
D33*
%TO.P,J1,1,Pin_1*%
%TO.N,/EN*%
X145200000Y-109600000D03*
D34*
%TO.P,J1,2,Pin_2*%
%TO.N,/M0*%
X145200000Y-107060000D03*
%TO.P,J1,3,Pin_3*%
%TO.N,/M1*%
X145200000Y-104520000D03*
%TO.P,J1,4,Pin_4*%
%TO.N,/M2*%
X145200000Y-101980000D03*
D35*
%TO.P,J1,5,Pin_5*%
%TO.N,unconnected-(J1-Pin_5-Pad5)*%
X145200000Y-99440000D03*
D34*
%TO.P,J1,6,Pin_6*%
%TO.N,/STBY*%
X145200000Y-96900000D03*
%TO.P,J1,7,Pin_7*%
%TO.N,/STEP*%
X145200000Y-94360000D03*
%TO.P,J1,8,Pin_8*%
%TO.N,/DIR*%
X145200000Y-91820000D03*
%TO.P,J1,9,Pin_1*%
%TO.N,GND*%
X133280000Y-91820000D03*
%TO.P,J1,10,Pin_2*%
%TO.N,+3.3V*%
X133262000Y-94360000D03*
%TO.P,J1,11,Pin_3*%
%TO.N,/A2*%
X133262000Y-96900000D03*
%TO.P,J1,12,Pin_4*%
%TO.N,/A1*%
X133262000Y-99440000D03*
%TO.P,J1,13,Pin_5*%
%TO.N,/B2*%
X133262000Y-101980000D03*
%TO.P,J1,14,Pin_6*%
%TO.N,/B1*%
X133262000Y-104520000D03*
%TO.P,J1,15,Pin_7*%
%TO.N,GND*%
X133262000Y-107060000D03*
%TO.P,J1,16,Pin_8*%
%TO.N,/V_STEPPER*%
X133262000Y-109600000D03*
%TD*%
D31*
%TO.P,J2,1,Pin_1*%
%TO.N,/V_STEPPER*%
X128100000Y-109700000D03*
D32*
%TO.P,J2,2,Pin_2*%
%TO.N,GND*%
X128100000Y-107160000D03*
%TD*%
D12*
%TO.P,C8,1,1*%
%TO.N,GND*%
X134100000Y-118562500D03*
%TO.P,C8,2,2*%
%TO.N,/V_HERKULEX*%
X134100000Y-115437500D03*
%TD*%
D25*
%TO.P,C5,1,1*%
%TO.N,+3.3V*%
X170450000Y-116125000D03*
%TO.P,C5,2,2*%
%TO.N,GND*%
X170450000Y-119250000D03*
%TD*%
D36*
%TO.P,U1,1,VDD3*%
%TO.N,+3.3V*%
X157900000Y-93750000D03*
%TO.P,U1,2,PF0/PC14*%
%TO.N,/Aux4*%
X157100000Y-93750000D03*
%TO.P,U1,3,PF1/PC15*%
%TO.N,/Aux3*%
X156300000Y-93750000D03*
%TO.P,U1,4,NRST*%
%TO.N,/NRST*%
X155500000Y-93750000D03*
%TO.P,U1,5,VDDA/VREF+*%
%TO.N,+3.3V*%
X154700000Y-93750000D03*
%TO.P,U1,6,PA0*%
%TO.N,/Aux7*%
X153900000Y-93750000D03*
%TO.P,U1,7,PA1*%
%TO.N,/Aux1*%
X153100000Y-93750000D03*
%TO.P,U1,8,PA2*%
%TO.N,/TX_TARGET*%
X152300000Y-93750000D03*
D37*
%TO.P,U1,9,PA3*%
%TO.N,/DIR*%
X150900000Y-95150000D03*
%TO.P,U1,10,PA4*%
%TO.N,/STEP*%
X150900000Y-95950000D03*
%TO.P,U1,11,PA5*%
%TO.N,/STBY*%
X150900000Y-96750000D03*
%TO.P,U1,12,PA6*%
%TO.N,/M2*%
X150900000Y-97550000D03*
%TO.P,U1,13,PA7*%
%TO.N,/M1*%
X150900000Y-98350000D03*
%TO.P,U1,14,PB0*%
%TO.N,/M0*%
X150900000Y-99150000D03*
%TO.P,U1,15,PB1/NPOR*%
%TO.N,/EN*%
X150900000Y-99950000D03*
%TO.P,U1,16,PB2/VSS2*%
%TO.N,GND*%
X150900000Y-100750000D03*
D36*
%TO.P,U1,17,VDD2/VDD_USB*%
%TO.N,+3.3V*%
X152300000Y-102150000D03*
%TO.P,U1,18,PA8*%
%TO.N,/Aux2*%
X153100000Y-102150000D03*
%TO.P,U1,19,PA9*%
%TO.N,unconnected-(U1-PA9-Pad19)*%
X153900000Y-102150000D03*
%TO.P,U1,20,PA10*%
%TO.N,unconnected-(U1-PA10-Pad20)*%
X154700000Y-102150000D03*
%TO.P,U1,21,PA11*%
%TO.N,/RX_Can*%
X155500000Y-102150000D03*
%TO.P,U1,22,PA12*%
%TO.N,/TX_Can*%
X156300000Y-102150000D03*
%TO.P,U1,23,PA13*%
%TO.N,/TMS*%
X157100000Y-102150000D03*
%TO.P,U1,24,PA14*%
%TO.N,/TCK*%
X157900000Y-102150000D03*
D37*
%TO.P,U1,25,PA15*%
%TO.N,/RX_TARGET*%
X159300000Y-100750000D03*
%TO.P,U1,26,PB3*%
%TO.N,/SWO*%
X159300000Y-99950000D03*
%TO.P,U1,27,PB4*%
%TO.N,/Aux6*%
X159300000Y-99150000D03*
%TO.P,U1,28,PB5*%
%TO.N,/Aux5*%
X159300000Y-98350000D03*
%TO.P,U1,29,PB6*%
%TO.N,/Tx1*%
X159300000Y-97550000D03*
%TO.P,U1,30,PB7*%
%TO.N,/Rx1*%
X159300000Y-96750000D03*
%TO.P,U1,31,BOOT0/PB8/PH3*%
%TO.N,/BOOT0*%
X159300000Y-95950000D03*
%TO.P,U1,32,PB8/VSS3*%
%TO.N,GND*%
X159300000Y-95150000D03*
%TD*%
D18*
%TO.P,C1,1,1*%
%TO.N,GND*%
X161362500Y-91500000D03*
%TO.P,C1,2,2*%
%TO.N,+3.3V*%
X158237500Y-91500000D03*
%TD*%
D21*
%TO.P,J10,1,Pin_1*%
%TO.N,unconnected-(J10-Pin_1-Pad1)*%
X129100000Y-116700000D03*
%TD*%
D16*
%TO.P,JP1,1,VCC*%
%TO.N,+5V*%
X180082008Y-109488996D03*
%TO.P,JP1,2,GND*%
%TO.N,GND*%
X178812008Y-104988995D03*
%TO.P,JP1,3,CAN_L*%
%TO.N,/CAN_L*%
X177542008Y-109488996D03*
%TO.P,JP1,4,CAN_H*%
%TO.N,/CAN_H*%
X176272008Y-104988995D03*
%TO.P,JP1,5,CAN_H*%
X175002008Y-109488996D03*
%TO.P,JP1,6,CAN_L*%
%TO.N,/CAN_L*%
X173732008Y-104988995D03*
D17*
%TO.P,JP1,7,GND*%
%TO.N,GND*%
X172462008Y-109488996D03*
%TO.P,JP1,8,VCC*%
%TO.N,+5V*%
X171192008Y-104988995D03*
%TD*%
D38*
%TO.N,GND*%
X156900000Y-105400000D03*
D39*
X178818008Y-102000000D03*
D38*
X161400000Y-94000000D03*
D39*
X176100000Y-112600000D03*
D38*
X150300000Y-110700000D03*
%TO.N,+5V*%
X170923898Y-101761888D03*
X156957107Y-108242893D03*
%TO.N,+3.3V*%
X166200000Y-92200000D03*
X160000000Y-89600000D03*
X152400000Y-111800000D03*
%TO.N,/CAN_H*%
X176272008Y-102272008D03*
X168900000Y-105200000D03*
%TO.N,/CAN_L*%
X168800000Y-107000000D03*
X173732008Y-102200000D03*
%TO.N,/Tx1*%
X156600000Y-98800000D03*
X148500000Y-109600000D03*
%TO.N,/Aux2*%
X153357107Y-100057107D03*
%TO.N,/NRST*%
X171200000Y-84300000D03*
X154700000Y-92100000D03*
%TO.N,/TX_TARGET*%
X152100000Y-91800000D03*
X169949997Y-84300000D03*
%TO.N,/TCK*%
X168600000Y-84300000D03*
X168600000Y-93300000D03*
%TO.N,/SWO*%
X167349997Y-84300000D03*
X166600000Y-94382233D03*
%TO.N,/Rx1*%
X147307107Y-108607107D03*
X155600000Y-98000000D03*
%TD*%
D40*
%TO.N,/EN*%
X148400000Y-101360660D02*
X148400000Y-106100000D01*
X149810660Y-99950000D02*
X148400000Y-101360660D01*
X145200000Y-109300000D02*
X145200000Y-109600000D01*
X148400000Y-106100000D02*
X145200000Y-109300000D01*
X150900000Y-99950000D02*
X149810660Y-99950000D01*
%TO.N,/M0*%
X149550000Y-99150000D02*
X147650000Y-101050000D01*
X150900000Y-99150000D02*
X149550000Y-99150000D01*
X147650000Y-104610000D02*
X145200000Y-107060000D01*
X147650000Y-101050000D02*
X147650000Y-104610000D01*
%TO.N,/M1*%
X146900000Y-103575000D02*
X145955000Y-104520000D01*
X145955000Y-104520000D02*
X145200000Y-104520000D01*
X150900000Y-98350000D02*
X149289340Y-98350000D01*
X149289340Y-98350000D02*
X146900000Y-100739340D01*
X146900000Y-100739340D02*
X146900000Y-103575000D01*
%TO.N,/M2*%
X145200000Y-101980000D02*
X145200000Y-101378680D01*
X149028680Y-97550000D02*
X150900000Y-97550000D01*
X145200000Y-101378680D02*
X149028680Y-97550000D01*
%TO.N,/STBY*%
X145350000Y-96750000D02*
X145200000Y-96900000D01*
X150900000Y-96750000D02*
X145350000Y-96750000D01*
%TO.N,/STEP*%
X145200000Y-94360000D02*
X147460000Y-94360000D01*
X147460000Y-94360000D02*
X149050000Y-95950000D01*
X149050000Y-95950000D02*
X150900000Y-95950000D01*
%TO.N,/DIR*%
X145200000Y-91820000D02*
X146220000Y-91820000D01*
X146220000Y-91820000D02*
X149550000Y-95150000D01*
X149550000Y-95150000D02*
X150900000Y-95150000D01*
D41*
%TO.N,GND*%
X157150000Y-118750000D02*
X150300000Y-111900000D01*
D40*
X164067531Y-105765000D02*
X163535000Y-105765000D01*
D41*
X174100000Y-119200000D02*
X173200000Y-119200000D01*
X164500000Y-118400000D02*
X164150000Y-118750000D01*
D40*
X161100000Y-85300000D02*
X161100000Y-88500000D01*
X137640000Y-83960000D02*
X138100000Y-83500000D01*
D41*
X174825000Y-112825000D02*
X174825000Y-118475000D01*
X175875000Y-112825000D02*
X176100000Y-112600000D01*
D40*
X165300000Y-83500000D02*
X166190000Y-84390000D01*
X158637500Y-105400000D02*
X158700000Y-105337500D01*
X159127500Y-105765000D02*
X158700000Y-105337500D01*
D41*
X167400000Y-119100000D02*
X167500000Y-119200000D01*
X137900000Y-117100000D02*
X137900000Y-119450000D01*
D40*
X150900000Y-103237500D02*
X149637500Y-104500000D01*
X161200000Y-83500000D02*
X165300000Y-83500000D01*
X165337531Y-104495000D02*
X166792531Y-104495000D01*
D42*
X153100000Y-83600000D02*
X153200000Y-83500000D01*
D41*
X167500000Y-119200000D02*
X165300000Y-119200000D01*
X150300000Y-105162500D02*
X149637500Y-104500000D01*
D40*
X138100000Y-83500000D02*
X145200000Y-83500000D01*
X156900000Y-105400000D02*
X158637500Y-105400000D01*
D41*
X149600000Y-119450000D02*
X156450000Y-119450000D01*
D40*
X178818008Y-94888995D02*
X178818008Y-102000000D01*
X167460000Y-88360000D02*
X167400000Y-88300000D01*
D41*
X134987500Y-119450000D02*
X137900000Y-119450000D01*
X167400000Y-117662500D02*
X167400000Y-119100000D01*
D40*
X171270000Y-88500000D02*
X171270000Y-90200000D01*
X161362500Y-91500000D02*
X161362500Y-93962500D01*
X166600000Y-88300000D02*
X167400000Y-88300000D01*
X172468008Y-99388996D02*
X172468008Y-109482996D01*
X167400000Y-88300000D02*
X171070000Y-88300000D01*
X159300000Y-95150000D02*
X159300000Y-93562500D01*
D42*
X153100000Y-85300000D02*
X153100000Y-83600000D01*
D40*
X164067531Y-105765000D02*
X165337531Y-104495000D01*
X166190000Y-86300000D02*
X166190000Y-87890000D01*
X161100000Y-91237500D02*
X161362500Y-91500000D01*
D41*
X156450000Y-119450000D02*
X157150000Y-118750000D01*
D40*
X137640000Y-85300000D02*
X137640000Y-83960000D01*
X171070000Y-88300000D02*
X171270000Y-88500000D01*
X145200000Y-83500000D02*
X153200000Y-83500000D01*
X161362500Y-93962500D02*
X161400000Y-94000000D01*
X159300000Y-93562500D02*
X161362500Y-91500000D01*
D41*
X137900000Y-119450000D02*
X149600000Y-119450000D01*
D40*
X165300000Y-86300000D02*
X163700000Y-87900000D01*
X164067531Y-111005000D02*
X164067531Y-105765000D01*
X178818008Y-104982995D02*
X178812008Y-104988995D01*
X163350000Y-91500000D02*
X163700000Y-91150000D01*
X150900000Y-100750000D02*
X150900000Y-103237500D01*
X161100000Y-83600000D02*
X161200000Y-83500000D01*
D41*
X164150000Y-118750000D02*
X157150000Y-118750000D01*
X134100000Y-118562500D02*
X134987500Y-119450000D01*
D40*
X166190000Y-87890000D02*
X166600000Y-88300000D01*
X161100000Y-88500000D02*
X161100000Y-91237500D01*
X161100000Y-88500000D02*
X158762500Y-88500000D01*
X166190000Y-86300000D02*
X165300000Y-86300000D01*
X167460000Y-90200000D02*
X167460000Y-88360000D01*
X161100000Y-85300000D02*
X161100000Y-83600000D01*
D42*
X145100000Y-83600000D02*
X145200000Y-83500000D01*
D41*
X150300000Y-111900000D02*
X150300000Y-105162500D01*
X174825000Y-118475000D02*
X174100000Y-119200000D01*
D40*
X166190000Y-84390000D02*
X166190000Y-86300000D01*
D42*
X145100000Y-85300000D02*
X145100000Y-83600000D01*
D41*
X174825000Y-112825000D02*
X175875000Y-112825000D01*
D40*
X158762500Y-88500000D02*
X158262500Y-89000000D01*
D41*
X172462008Y-110462008D02*
X174825000Y-112825000D01*
D40*
X161957468Y-105765000D02*
X159127500Y-105765000D01*
X153200000Y-83500000D02*
X161200000Y-83500000D01*
D41*
X165300000Y-119200000D02*
X164500000Y-118400000D01*
D40*
X172468008Y-109482996D02*
X172462008Y-109488996D01*
X161362500Y-91500000D02*
X163350000Y-91500000D01*
X163700000Y-87900000D02*
X163700000Y-91150000D01*
D41*
X173200000Y-119200000D02*
X167500000Y-119200000D01*
D43*
X149600000Y-117600000D02*
X149600000Y-119450000D01*
D40*
X161957468Y-105765000D02*
X163535000Y-105765000D01*
D41*
X172462008Y-109488996D02*
X172462008Y-110462008D01*
D40*
X178818008Y-102000000D02*
X178818008Y-104982995D01*
D41*
%TO.N,+5V*%
X170962010Y-110312990D02*
X167400000Y-113875000D01*
D40*
X158700000Y-108462500D02*
X157176714Y-108462500D01*
D41*
X180318008Y-99618996D02*
X180088008Y-99388996D01*
D40*
X160127500Y-107035000D02*
X158700000Y-108462500D01*
D41*
X172988008Y-91888995D02*
X179568008Y-91888995D01*
X180318008Y-109252996D02*
X180318008Y-99618996D01*
X170962010Y-104758997D02*
X171192008Y-104988995D01*
X180082008Y-109488996D02*
X180318008Y-109252996D01*
X170962010Y-95124993D02*
X170962010Y-104758997D01*
X171198008Y-94888995D02*
X171198008Y-93678995D01*
X180318008Y-99158996D02*
X180088008Y-99388996D01*
X171198008Y-93678995D02*
X172988008Y-91888995D01*
X171192008Y-104988995D02*
X170962010Y-105218993D01*
X179568008Y-91888995D02*
X180318008Y-92638995D01*
D40*
X157176714Y-108462500D02*
X156957107Y-108242893D01*
X161957468Y-107035000D02*
X160127500Y-107035000D01*
D41*
X170962010Y-105218993D02*
X170962010Y-110312990D01*
X171198008Y-94888995D02*
X170962010Y-95124993D01*
X164500000Y-113800000D02*
X166662500Y-113800000D01*
X167400000Y-113875000D02*
X167400000Y-114537500D01*
X180318008Y-92638995D02*
X180318008Y-99158996D01*
X166662500Y-113800000D02*
X167400000Y-114537500D01*
%TO.N,/V_HERKULEX*%
X139537500Y-115437500D02*
X139900000Y-115800000D01*
X139900000Y-115800000D02*
X139900000Y-117100000D01*
X134100000Y-115437500D02*
X139537500Y-115437500D01*
%TO.N,+3.3V*%
X162500000Y-116100000D02*
X170425000Y-116100000D01*
X170450000Y-113975000D02*
X170225000Y-113750000D01*
D40*
X162500000Y-113200000D02*
X162500000Y-116100000D01*
X167192531Y-111707469D02*
X166350000Y-112550000D01*
D41*
X156700000Y-116100000D02*
X152400000Y-111800000D01*
D40*
X152300000Y-99700000D02*
X154700000Y-97300000D01*
X167192531Y-111005000D02*
X167192531Y-111707469D01*
X166200000Y-92200000D02*
X166200000Y-90210000D01*
X154700000Y-95200000D02*
X154700000Y-93750000D01*
X154700000Y-95900000D02*
X154700000Y-95200000D01*
X167192531Y-108705000D02*
X166792531Y-108305000D01*
D41*
X152400000Y-104862500D02*
X152762500Y-104500000D01*
D40*
X157900000Y-93750000D02*
X157900000Y-95300000D01*
X157900000Y-92700000D02*
X157900000Y-93750000D01*
D41*
X170425000Y-116100000D02*
X170450000Y-116125000D01*
D40*
X152300000Y-104037500D02*
X152762500Y-104500000D01*
X157900000Y-95300000D02*
X157300000Y-95900000D01*
X157300000Y-95900000D02*
X154700000Y-95900000D01*
X158237500Y-91500000D02*
X158237500Y-91362500D01*
X166200000Y-90210000D02*
X166190000Y-90200000D01*
X154700000Y-97300000D02*
X154700000Y-95200000D01*
X152300000Y-102150000D02*
X152300000Y-104037500D01*
D41*
X152400000Y-111800000D02*
X152400000Y-104862500D01*
X170450000Y-116125000D02*
X170450000Y-113975000D01*
D40*
X152300000Y-102150000D02*
X152300000Y-99700000D01*
D41*
X158200000Y-116100000D02*
X156700000Y-116100000D01*
X158200000Y-116100000D02*
X162500000Y-116100000D01*
D40*
X158237500Y-91362500D02*
X160000000Y-89600000D01*
X158237500Y-91500000D02*
X158237500Y-92362500D01*
X167192531Y-111005000D02*
X167192531Y-108705000D01*
X158237500Y-92362500D02*
X157900000Y-92700000D01*
X163150000Y-112550000D02*
X162500000Y-113200000D01*
X166350000Y-112550000D02*
X163150000Y-112550000D01*
%TO.N,/TX_Can*%
X156300000Y-103635660D02*
X156814340Y-104150000D01*
X161612468Y-104150000D02*
X161957468Y-104495000D01*
X156814340Y-104150000D02*
X161612468Y-104150000D01*
X156300000Y-102150000D02*
X156300000Y-103635660D01*
%TO.N,/RX_Can*%
X155500000Y-102150000D02*
X155500000Y-108200000D01*
X160562468Y-109700000D02*
X161957468Y-108305000D01*
X157000000Y-109700000D02*
X160562468Y-109700000D01*
X155500000Y-108200000D02*
X157000000Y-109700000D01*
%TO.N,/CAN_H*%
X175008008Y-99388996D02*
X175008008Y-101008008D01*
X176272008Y-104988995D02*
X176272008Y-106648995D01*
X176278008Y-96578995D02*
X175008008Y-97848995D01*
X175002008Y-107918995D02*
X175002008Y-109488996D01*
X176272008Y-102272008D02*
X176272008Y-104988995D01*
X175008008Y-101008008D02*
X176272008Y-102272008D01*
X175008008Y-97848995D02*
X175008008Y-99388996D01*
X168900000Y-105200000D02*
X168335000Y-105765000D01*
X176278008Y-94888995D02*
X176278008Y-96578995D01*
X168335000Y-105765000D02*
X166792531Y-105765000D01*
X176272008Y-106648995D02*
X175002008Y-107918995D01*
%TO.N,/CAN_L*%
X177388995Y-92888995D02*
X177548008Y-93048008D01*
X173738008Y-94888995D02*
X173738008Y-93161992D01*
X177548008Y-93048008D02*
X177548008Y-99388996D01*
X173732008Y-94894995D02*
X173738008Y-94888995D01*
X177542008Y-99394996D02*
X177548008Y-99388996D01*
X173738008Y-93161992D02*
X174011005Y-92888995D01*
X168765000Y-107035000D02*
X168800000Y-107000000D01*
X173732008Y-102200000D02*
X173732008Y-94894995D01*
X174011005Y-92888995D02*
X177388995Y-92888995D01*
X177542008Y-109488996D02*
X177542008Y-99394996D01*
X166792531Y-107035000D02*
X168765000Y-107035000D01*
X173732008Y-104988995D02*
X173732008Y-102200000D01*
%TO.N,/Tx1*%
X143900000Y-115500000D02*
X143900000Y-117100000D01*
X159300000Y-97550000D02*
X157850000Y-97550000D01*
X148500000Y-109600000D02*
X148500000Y-110900000D01*
X157850000Y-97550000D02*
X156600000Y-98800000D01*
X148500000Y-110900000D02*
X143900000Y-115500000D01*
%TO.N,/Aux1*%
X144300000Y-88600000D02*
X142560000Y-86860000D01*
X142560000Y-86860000D02*
X142560000Y-85300000D01*
X153100000Y-93750000D02*
X153100000Y-90300000D01*
X153100000Y-90300000D02*
X151400000Y-88600000D01*
X151400000Y-88600000D02*
X144300000Y-88600000D01*
%TO.N,/Aux2*%
X153100000Y-102150000D02*
X153100000Y-100314214D01*
X153100000Y-100314214D02*
X153357107Y-100057107D01*
%TO.N,/Aux3*%
X156300000Y-93750000D02*
X156300000Y-88032412D01*
X150560000Y-87060000D02*
X150560000Y-85300000D01*
X151000000Y-87500000D02*
X150560000Y-87060000D01*
X155767588Y-87500000D02*
X151000000Y-87500000D01*
X156300000Y-88032412D02*
X155767588Y-87500000D01*
%TO.N,/NRST*%
X171200000Y-86230000D02*
X171270000Y-86300000D01*
X171200000Y-84300000D02*
X171200000Y-86230000D01*
X155400000Y-92100000D02*
X155500000Y-92000000D01*
X155500000Y-92000000D02*
X155500000Y-90700000D01*
X155500000Y-93750000D02*
X155500000Y-90700000D01*
X154700000Y-92100000D02*
X155400000Y-92100000D01*
X155500000Y-90700000D02*
X155500000Y-89362500D01*
X155500000Y-89362500D02*
X155137500Y-89000000D01*
%TO.N,/Aux4*%
X157075000Y-93725000D02*
X157075000Y-86785000D01*
X157100000Y-93750000D02*
X157075000Y-93725000D01*
X157075000Y-86785000D02*
X158560000Y-85300000D01*
%TO.N,/BOOT0*%
X162000000Y-95950000D02*
X163700000Y-94250000D01*
X159300000Y-95950000D02*
X162000000Y-95950000D01*
D41*
%TO.N,Net-(D1-K)*%
X173200000Y-116100000D02*
X173200000Y-113750000D01*
D40*
%TO.N,/TX_TARGET*%
X169949997Y-86249997D02*
X170000000Y-86300000D01*
X152300000Y-92000000D02*
X152100000Y-91800000D01*
X169949997Y-84300000D02*
X169949997Y-86249997D01*
X152300000Y-93750000D02*
X152300000Y-92000000D01*
%TO.N,/TMS*%
X161300000Y-103400000D02*
X169600000Y-95100000D01*
X170000000Y-92600000D02*
X170000000Y-90200000D01*
X169600000Y-95100000D02*
X169600000Y-93000000D01*
X157100000Y-103375000D02*
X157125000Y-103400000D01*
X169600000Y-93000000D02*
X170000000Y-92600000D01*
X157100000Y-102150000D02*
X157100000Y-103375000D01*
X157125000Y-103400000D02*
X161300000Y-103400000D01*
%TO.N,/TCK*%
X168600000Y-84300000D02*
X168600000Y-86170000D01*
X168600000Y-95039340D02*
X168600000Y-93300000D01*
X161489340Y-102150000D02*
X168600000Y-95039340D01*
X157900000Y-102150000D02*
X161489340Y-102150000D01*
X168600000Y-86170000D02*
X168730000Y-86300000D01*
%TO.N,/RX_TARGET*%
X167600000Y-94978680D02*
X167600000Y-92885786D01*
X161828680Y-100750000D02*
X167600000Y-94978680D01*
X167600000Y-92885786D02*
X168730000Y-91755786D01*
X168730000Y-91755786D02*
X168730000Y-90200000D01*
X159300000Y-100750000D02*
X161828680Y-100750000D01*
%TO.N,/SWO*%
X161568020Y-99950000D02*
X166359010Y-95159010D01*
X166600000Y-94918020D02*
X166600000Y-94382233D01*
X167349997Y-84300000D02*
X167349997Y-86189997D01*
X167349997Y-86189997D02*
X167460000Y-86300000D01*
X159300000Y-99950000D02*
X161568020Y-99950000D01*
X166359010Y-95159010D02*
X166600000Y-94918020D01*
%TO.N,/Rx1*%
X156850000Y-96750000D02*
X155600000Y-98000000D01*
X147307107Y-110492893D02*
X141900000Y-115900000D01*
X141900000Y-115900000D02*
X141900000Y-117100000D01*
X147307107Y-108607107D02*
X147307107Y-110492893D01*
X159300000Y-96750000D02*
X156850000Y-96750000D01*
%TD*%
%TA.AperFunction,Conductor*%
%TO.N,GND*%
G36*
X169866843Y-95643483D02*
G01*
X169922776Y-95685355D01*
X169947193Y-95750819D01*
X169947509Y-95759665D01*
X169947509Y-96436865D01*
X169947510Y-96436871D01*
X169953917Y-96496478D01*
X170004211Y-96631323D01*
X170004215Y-96631330D01*
X170090461Y-96746539D01*
X170090462Y-96746540D01*
X170090463Y-96746541D01*
X170161821Y-96799960D01*
X170203692Y-96855891D01*
X170211510Y-96899225D01*
X170211510Y-101008470D01*
X170191825Y-101075509D01*
X170183363Y-101087135D01*
X170087988Y-101203348D01*
X170087984Y-101203355D01*
X169995086Y-101377154D01*
X169937873Y-101565758D01*
X169918557Y-101761888D01*
X169937873Y-101958017D01*
X169937874Y-101958020D01*
X169973625Y-102075876D01*
X169995086Y-102146621D01*
X170087984Y-102320420D01*
X170087988Y-102320427D01*
X170183363Y-102436640D01*
X170210676Y-102500950D01*
X170211510Y-102515305D01*
X170211510Y-102974272D01*
X170191825Y-103041311D01*
X170161821Y-103073538D01*
X170084464Y-103131447D01*
X170084461Y-103131450D01*
X169998215Y-103246659D01*
X169998211Y-103246666D01*
X169947917Y-103381512D01*
X169941510Y-103441111D01*
X169941509Y-103441130D01*
X169941509Y-104545428D01*
X169921824Y-104612467D01*
X169869020Y-104658222D01*
X169799862Y-104668166D01*
X169736306Y-104639141D01*
X169721656Y-104624093D01*
X169610883Y-104489116D01*
X169458539Y-104364090D01*
X169458532Y-104364086D01*
X169284733Y-104271188D01*
X169284727Y-104271186D01*
X169158997Y-104233046D01*
X169096129Y-104213975D01*
X168900000Y-104194659D01*
X168703869Y-104213975D01*
X168570910Y-104254308D01*
X168501043Y-104254931D01*
X168441930Y-104217683D01*
X168417873Y-104176600D01*
X168405369Y-104140865D01*
X168405369Y-104140864D01*
X168308128Y-103986108D01*
X168178891Y-103856871D01*
X168024137Y-103759632D01*
X167851617Y-103699264D01*
X167715553Y-103683934D01*
X167042531Y-103683934D01*
X167042531Y-104621000D01*
X167022846Y-104688039D01*
X166970042Y-104733794D01*
X166918531Y-104745000D01*
X165143255Y-104745000D01*
X165179693Y-104849136D01*
X165276933Y-105003891D01*
X165315007Y-105041965D01*
X165348492Y-105103288D01*
X165343508Y-105172980D01*
X165315007Y-105217327D01*
X165276539Y-105255794D01*
X165179239Y-105410648D01*
X165118837Y-105583265D01*
X165118835Y-105583275D01*
X165103496Y-105719419D01*
X165103496Y-105810575D01*
X165103497Y-105810583D01*
X165118835Y-105946727D01*
X165118837Y-105946737D01*
X165179240Y-106119353D01*
X165276539Y-106274205D01*
X165314653Y-106312319D01*
X165348138Y-106373642D01*
X165343154Y-106443334D01*
X165314653Y-106487681D01*
X165276539Y-106525794D01*
X165179239Y-106680648D01*
X165118837Y-106853265D01*
X165118835Y-106853275D01*
X165103496Y-106989419D01*
X165103496Y-107080575D01*
X165103497Y-107080583D01*
X165118835Y-107216727D01*
X165118837Y-107216737D01*
X165179240Y-107389353D01*
X165276539Y-107544205D01*
X165314653Y-107582319D01*
X165348138Y-107643642D01*
X165343154Y-107713334D01*
X165314653Y-107757681D01*
X165276539Y-107795794D01*
X165179239Y-107950648D01*
X165118837Y-108123265D01*
X165118835Y-108123275D01*
X165103496Y-108259419D01*
X165103496Y-108350575D01*
X165103497Y-108350583D01*
X165118835Y-108486727D01*
X165118837Y-108486737D01*
X165167476Y-108625735D01*
X165179240Y-108659353D01*
X165276539Y-108814205D01*
X165405857Y-108943523D01*
X165560709Y-109040822D01*
X165733329Y-109101225D01*
X165733335Y-109101225D01*
X165733337Y-109101226D01*
X165758424Y-109104052D01*
X165869487Y-109116566D01*
X166568031Y-109116565D01*
X166635070Y-109136249D01*
X166680825Y-109189053D01*
X166692031Y-109240565D01*
X166692031Y-109503988D01*
X166672346Y-109571027D01*
X166619542Y-109616782D01*
X166607035Y-109621694D01*
X166460699Y-109670185D01*
X166460694Y-109670187D01*
X166311373Y-109762289D01*
X166187320Y-109886342D01*
X166095218Y-110035663D01*
X166095216Y-110035668D01*
X166078108Y-110087298D01*
X166040032Y-110202203D01*
X166040032Y-110202204D01*
X166040031Y-110202204D01*
X166029531Y-110304983D01*
X166029531Y-111705001D01*
X166029532Y-111705018D01*
X166040031Y-111807796D01*
X166040032Y-111807799D01*
X166066110Y-111886496D01*
X166068512Y-111956324D01*
X166032780Y-112016366D01*
X165970260Y-112047559D01*
X165948404Y-112049500D01*
X165311131Y-112049500D01*
X165244092Y-112029815D01*
X165198337Y-111977011D01*
X165188393Y-111907853D01*
X165193425Y-111886496D01*
X165219536Y-111807697D01*
X165219537Y-111807690D01*
X165230030Y-111704986D01*
X165230031Y-111704973D01*
X165230031Y-111255000D01*
X162905032Y-111255000D01*
X162905032Y-111704986D01*
X162915525Y-111807697D01*
X162965528Y-111958596D01*
X162967930Y-112028424D01*
X162932198Y-112088466D01*
X162910204Y-112104305D01*
X162903799Y-112109100D01*
X162881020Y-112122615D01*
X162876636Y-112124617D01*
X162876625Y-112124624D01*
X162839108Y-112157132D01*
X162832226Y-112162678D01*
X162821403Y-112170780D01*
X162811854Y-112180329D01*
X162805384Y-112186353D01*
X162767861Y-112218867D01*
X162767854Y-112218876D01*
X162765243Y-112222938D01*
X162748616Y-112243568D01*
X162193568Y-112798616D01*
X162172938Y-112815243D01*
X162168876Y-112817854D01*
X162168867Y-112817861D01*
X162136353Y-112855384D01*
X162130329Y-112861854D01*
X162120780Y-112871403D01*
X162112678Y-112882226D01*
X162107132Y-112889108D01*
X162074624Y-112926625D01*
X162074617Y-112926636D01*
X162072615Y-112931020D01*
X162059100Y-112953799D01*
X162056206Y-112957664D01*
X162056200Y-112957675D01*
X162038851Y-113004191D01*
X162035466Y-113012365D01*
X162014835Y-113057543D01*
X162014833Y-113057550D01*
X162014146Y-113062327D01*
X162007598Y-113087986D01*
X162005910Y-113092513D01*
X162005909Y-113092516D01*
X162002365Y-113142054D01*
X162001420Y-113150845D01*
X161999500Y-113164200D01*
X161999500Y-113177690D01*
X161999184Y-113186537D01*
X161995641Y-113236069D01*
X161995641Y-113236073D01*
X161996666Y-113240785D01*
X161999500Y-113267143D01*
X161999500Y-115225500D01*
X161979815Y-115292539D01*
X161927011Y-115338294D01*
X161875500Y-115349500D01*
X159824499Y-115349500D01*
X159757460Y-115329815D01*
X159711705Y-115277011D01*
X159700499Y-115225500D01*
X159700499Y-114641971D01*
X159700499Y-114641964D01*
X159689886Y-114522582D01*
X159633909Y-114326951D01*
X159539698Y-114146593D01*
X159478382Y-114071395D01*
X159411109Y-113988890D01*
X159253409Y-113860304D01*
X159253410Y-113860304D01*
X159253407Y-113860302D01*
X159073049Y-113766091D01*
X159073048Y-113766090D01*
X159073045Y-113766089D01*
X158955829Y-113732550D01*
X158877418Y-113710114D01*
X158877415Y-113710113D01*
X158877413Y-113710113D01*
X158811102Y-113704217D01*
X158758037Y-113699500D01*
X158758032Y-113699500D01*
X157641971Y-113699500D01*
X157641965Y-113699500D01*
X157641964Y-113699501D01*
X157630316Y-113700536D01*
X157522584Y-113710113D01*
X157326954Y-113766089D01*
X157251198Y-113805661D01*
X157146593Y-113860302D01*
X157146591Y-113860303D01*
X157146590Y-113860304D01*
X156988890Y-113988890D01*
X156860304Y-114146590D01*
X156766089Y-114326954D01*
X156710114Y-114522583D01*
X156710113Y-114522586D01*
X156699500Y-114641966D01*
X156699500Y-114738770D01*
X156679815Y-114805809D01*
X156627011Y-114851564D01*
X156557853Y-114861508D01*
X156494297Y-114832483D01*
X156487819Y-114826451D01*
X153430593Y-111769225D01*
X153397108Y-111707902D01*
X153394871Y-111693697D01*
X153386024Y-111603871D01*
X153386024Y-111603870D01*
X153386024Y-111603868D01*
X153328814Y-111415273D01*
X153328811Y-111415269D01*
X153328811Y-111415266D01*
X153235913Y-111241467D01*
X153235911Y-111241465D01*
X153235910Y-111241462D01*
X153213574Y-111214245D01*
X153178647Y-111171686D01*
X153151334Y-111107376D01*
X153150500Y-111093021D01*
X153150500Y-110755000D01*
X162905031Y-110755000D01*
X163817531Y-110755000D01*
X163817531Y-109605000D01*
X164317531Y-109605000D01*
X164317531Y-110755000D01*
X165230030Y-110755000D01*
X165230030Y-110305028D01*
X165230029Y-110305013D01*
X165219536Y-110202302D01*
X165164389Y-110035880D01*
X165164387Y-110035875D01*
X165072346Y-109886654D01*
X164948376Y-109762684D01*
X164799155Y-109670643D01*
X164799150Y-109670641D01*
X164632728Y-109615494D01*
X164632721Y-109615493D01*
X164530017Y-109605000D01*
X164317531Y-109605000D01*
X163817531Y-109605000D01*
X163605060Y-109605000D01*
X163605043Y-109605001D01*
X163502333Y-109615494D01*
X163335911Y-109670641D01*
X163335906Y-109670643D01*
X163186685Y-109762684D01*
X163062715Y-109886654D01*
X162970674Y-110035875D01*
X162970672Y-110035880D01*
X162915525Y-110202302D01*
X162915524Y-110202309D01*
X162905031Y-110305013D01*
X162905031Y-110755000D01*
X153150500Y-110755000D01*
X153150500Y-106020088D01*
X153170185Y-105953049D01*
X153222989Y-105907294D01*
X153261897Y-105896730D01*
X153327797Y-105889999D01*
X153494334Y-105834814D01*
X153643656Y-105742712D01*
X153767712Y-105618656D01*
X153859814Y-105469334D01*
X153914999Y-105302797D01*
X153925500Y-105200009D01*
X153925499Y-103799992D01*
X153914999Y-103697203D01*
X153870694Y-103563502D01*
X153868293Y-103493675D01*
X153904025Y-103433633D01*
X153966545Y-103402440D01*
X153988401Y-103400499D01*
X154222871Y-103400499D01*
X154222872Y-103400499D01*
X154282483Y-103394091D01*
X154282486Y-103394089D01*
X154286744Y-103393632D01*
X154313254Y-103393632D01*
X154317514Y-103394089D01*
X154317517Y-103394091D01*
X154377127Y-103400500D01*
X154875500Y-103400499D01*
X154942539Y-103420183D01*
X154988294Y-103472987D01*
X154999500Y-103524499D01*
X154999500Y-108132858D01*
X154996667Y-108159206D01*
X154995641Y-108163927D01*
X154995641Y-108163929D01*
X154995641Y-108163930D01*
X154999184Y-108213461D01*
X154999500Y-108222308D01*
X154999500Y-108235797D01*
X155001420Y-108249154D01*
X155002365Y-108257946D01*
X155005909Y-108307486D01*
X155007593Y-108312000D01*
X155014148Y-108337682D01*
X155014834Y-108342455D01*
X155035457Y-108387612D01*
X155038845Y-108395790D01*
X155056204Y-108442331D01*
X155056297Y-108442455D01*
X155059096Y-108446194D01*
X155072617Y-108468983D01*
X155074619Y-108473367D01*
X155074622Y-108473372D01*
X155074623Y-108473373D01*
X155107144Y-108510904D01*
X155112688Y-108517785D01*
X155120779Y-108528593D01*
X155130333Y-108538147D01*
X155136353Y-108544614D01*
X155168872Y-108582143D01*
X155168874Y-108582145D01*
X155172928Y-108584750D01*
X155193571Y-108601385D01*
X156598614Y-110006427D01*
X156615248Y-110027069D01*
X156617857Y-110031128D01*
X156623096Y-110035668D01*
X156655390Y-110063650D01*
X156661869Y-110069683D01*
X156671396Y-110079210D01*
X156671403Y-110079216D01*
X156671407Y-110079220D01*
X156671410Y-110079222D01*
X156671411Y-110079223D01*
X156682198Y-110087298D01*
X156689091Y-110092853D01*
X156726622Y-110125374D01*
X156726624Y-110125375D01*
X156726625Y-110125375D01*
X156726627Y-110125377D01*
X156731010Y-110127379D01*
X156753807Y-110140905D01*
X156757669Y-110143796D01*
X156804212Y-110161155D01*
X156812360Y-110164530D01*
X156839673Y-110177004D01*
X156857540Y-110185164D01*
X156857541Y-110185164D01*
X156857543Y-110185165D01*
X156862312Y-110185850D01*
X156888002Y-110192407D01*
X156892517Y-110194091D01*
X156942049Y-110197633D01*
X156950843Y-110198579D01*
X156964201Y-110200500D01*
X156977692Y-110200500D01*
X156986538Y-110200815D01*
X157036073Y-110204359D01*
X157040785Y-110203334D01*
X157067143Y-110200500D01*
X160495325Y-110200500D01*
X160521683Y-110203334D01*
X160526395Y-110204359D01*
X160575929Y-110200815D01*
X160584776Y-110200500D01*
X160598267Y-110200500D01*
X160611624Y-110198579D01*
X160620419Y-110197633D01*
X160669951Y-110194091D01*
X160674460Y-110192408D01*
X160700153Y-110185850D01*
X160704925Y-110185165D01*
X160750105Y-110164530D01*
X160758269Y-110161149D01*
X160804799Y-110143796D01*
X160808657Y-110140907D01*
X160831463Y-110127375D01*
X160835841Y-110125377D01*
X160873375Y-110092853D01*
X160880246Y-110087316D01*
X160891061Y-110079221D01*
X160900623Y-110069658D01*
X160907077Y-110063650D01*
X160944611Y-110031128D01*
X160947219Y-110027068D01*
X160963849Y-110006431D01*
X161817397Y-109152884D01*
X161878720Y-109119399D01*
X161905078Y-109116565D01*
X162880512Y-109116565D01*
X162880515Y-109116564D01*
X162912306Y-109112982D01*
X163016664Y-109101226D01*
X163016667Y-109101225D01*
X163016670Y-109101225D01*
X163016671Y-109101224D01*
X163016674Y-109101224D01*
X163065964Y-109083976D01*
X163189290Y-109040822D01*
X163344142Y-108943523D01*
X163473460Y-108814205D01*
X163570759Y-108659353D01*
X163631162Y-108486733D01*
X163646503Y-108350575D01*
X163646502Y-108259426D01*
X163643840Y-108235797D01*
X163631163Y-108123272D01*
X163631161Y-108123262D01*
X163589037Y-108002883D01*
X163570759Y-107950647D01*
X163473460Y-107795795D01*
X163435345Y-107757680D01*
X163401861Y-107696358D01*
X163406845Y-107626666D01*
X163435346Y-107582319D01*
X163454132Y-107563533D01*
X163473460Y-107544205D01*
X163570759Y-107389353D01*
X163631162Y-107216733D01*
X163646503Y-107080575D01*
X163646502Y-106989426D01*
X163646501Y-106989416D01*
X163631163Y-106853272D01*
X163631161Y-106853262D01*
X163598812Y-106760817D01*
X163570759Y-106680647D01*
X163473460Y-106525795D01*
X163434992Y-106487327D01*
X163401507Y-106426004D01*
X163406491Y-106356312D01*
X163434992Y-106311965D01*
X163473065Y-106273891D01*
X163570305Y-106119136D01*
X163606744Y-106015000D01*
X161831468Y-106015000D01*
X161764429Y-105995315D01*
X161718674Y-105942511D01*
X161707468Y-105891000D01*
X161707468Y-105639000D01*
X161727153Y-105571961D01*
X161779957Y-105526206D01*
X161831468Y-105515000D01*
X163606743Y-105515000D01*
X163570305Y-105410863D01*
X163500687Y-105300067D01*
X163481687Y-105232830D01*
X163502055Y-105165995D01*
X163506415Y-105159784D01*
X163589796Y-105048401D01*
X163589795Y-105048401D01*
X163589799Y-105048397D01*
X163640094Y-104913549D01*
X163646503Y-104853939D01*
X163646502Y-104245000D01*
X165143255Y-104245000D01*
X166542531Y-104245000D01*
X166542531Y-103683934D01*
X165869513Y-103683934D01*
X165869509Y-103683935D01*
X165733443Y-103699265D01*
X165560925Y-103759631D01*
X165406170Y-103856871D01*
X165276933Y-103986108D01*
X165179693Y-104140863D01*
X165143255Y-104245000D01*
X163646502Y-104245000D01*
X163646502Y-104136062D01*
X163640094Y-104076451D01*
X163638997Y-104073511D01*
X163589800Y-103941605D01*
X163589796Y-103941598D01*
X163503550Y-103826389D01*
X163503547Y-103826386D01*
X163388338Y-103740140D01*
X163388331Y-103740136D01*
X163253485Y-103689842D01*
X163253486Y-103689842D01*
X163193886Y-103683435D01*
X163193884Y-103683434D01*
X163193876Y-103683434D01*
X163193868Y-103683434D01*
X162023741Y-103683434D01*
X161956702Y-103663749D01*
X161910947Y-103610945D01*
X161901003Y-103541787D01*
X161930028Y-103478231D01*
X161936060Y-103471753D01*
X165780686Y-99627127D01*
X169735830Y-95671982D01*
X169797151Y-95638499D01*
X169866843Y-95643483D01*
G37*
%TD.AperFunction*%
%TA.AperFunction,Conductor*%
G36*
X178905690Y-101148764D02*
G01*
X178917268Y-101162126D01*
X178980462Y-101246542D01*
X179012045Y-101270185D01*
X179095672Y-101332789D01*
X179095679Y-101332793D01*
X179107506Y-101337204D01*
X179230525Y-101383087D01*
X179290135Y-101389496D01*
X179443508Y-101389495D01*
X179510547Y-101409179D01*
X179556302Y-101461983D01*
X179567508Y-101513495D01*
X179567508Y-102864995D01*
X179547823Y-102932034D01*
X179495019Y-102977789D01*
X179443508Y-102988995D01*
X179062008Y-102988995D01*
X179062008Y-106988995D01*
X179443508Y-106988995D01*
X179510547Y-107008680D01*
X179556302Y-107061484D01*
X179567508Y-107112995D01*
X179567508Y-107364496D01*
X179547823Y-107431535D01*
X179495019Y-107477290D01*
X179443509Y-107488496D01*
X179284138Y-107488496D01*
X179284131Y-107488497D01*
X179224524Y-107494904D01*
X179089679Y-107545198D01*
X179089672Y-107545202D01*
X178974463Y-107631448D01*
X178974460Y-107631451D01*
X178911274Y-107715857D01*
X178855340Y-107757728D01*
X178785649Y-107762712D01*
X178724326Y-107729226D01*
X178712742Y-107715857D01*
X178649555Y-107631451D01*
X178649552Y-107631448D01*
X178534343Y-107545202D01*
X178534336Y-107545198D01*
X178399490Y-107494904D01*
X178399491Y-107494904D01*
X178339891Y-107488497D01*
X178339889Y-107488496D01*
X178339881Y-107488496D01*
X178339873Y-107488496D01*
X178166508Y-107488496D01*
X178099469Y-107468811D01*
X178053714Y-107416007D01*
X178042508Y-107364496D01*
X178042508Y-107112995D01*
X178062193Y-107045956D01*
X178114997Y-107000201D01*
X178166508Y-106988995D01*
X178562008Y-106988995D01*
X178562008Y-102988995D01*
X178166508Y-102988995D01*
X178099469Y-102969310D01*
X178053714Y-102916506D01*
X178042508Y-102864995D01*
X178042508Y-101513495D01*
X178062193Y-101446456D01*
X178114997Y-101400701D01*
X178166508Y-101389495D01*
X178345879Y-101389495D01*
X178345880Y-101389495D01*
X178405491Y-101383087D01*
X178540339Y-101332792D01*
X178655554Y-101246542D01*
X178718742Y-101162132D01*
X178774675Y-101120263D01*
X178844367Y-101115279D01*
X178905690Y-101148764D01*
G37*
%TD.AperFunction*%
%TA.AperFunction,Conductor*%
G36*
X156205703Y-104249623D02*
G01*
X156212181Y-104255655D01*
X156412954Y-104456428D01*
X156429586Y-104477066D01*
X156432194Y-104481125D01*
X156432197Y-104481128D01*
X156469740Y-104513658D01*
X156476203Y-104519677D01*
X156485747Y-104529221D01*
X156485753Y-104529226D01*
X156485756Y-104529228D01*
X156496547Y-104537306D01*
X156503440Y-104542860D01*
X156540967Y-104575377D01*
X156545350Y-104577379D01*
X156568147Y-104590905D01*
X156572009Y-104593796D01*
X156618552Y-104611155D01*
X156626700Y-104614530D01*
X156654013Y-104627004D01*
X156671880Y-104635164D01*
X156671881Y-104635164D01*
X156671883Y-104635165D01*
X156676652Y-104635850D01*
X156702342Y-104642407D01*
X156706857Y-104644091D01*
X156756389Y-104647633D01*
X156765183Y-104648579D01*
X156778541Y-104650500D01*
X156792032Y-104650500D01*
X156800878Y-104650815D01*
X156850413Y-104654359D01*
X156855125Y-104653334D01*
X156881483Y-104650500D01*
X157185624Y-104650500D01*
X157252663Y-104670185D01*
X157298418Y-104722989D01*
X157308982Y-104787103D01*
X157300000Y-104875013D01*
X157300000Y-105087500D01*
X160099999Y-105087500D01*
X160113595Y-105073903D01*
X160119684Y-105053169D01*
X160172488Y-105007414D01*
X160241646Y-104997470D01*
X160305202Y-105026495D01*
X160323266Y-105045897D01*
X160325136Y-105048395D01*
X160325137Y-105048397D01*
X160408522Y-105159785D01*
X160432939Y-105225248D01*
X160418088Y-105293521D01*
X160414249Y-105300067D01*
X160344629Y-105410864D01*
X160344628Y-105410868D01*
X160300610Y-105536662D01*
X160259888Y-105593438D01*
X160194935Y-105619185D01*
X160126374Y-105605728D01*
X160101499Y-105587500D01*
X158950000Y-105587500D01*
X158950000Y-106499999D01*
X159399972Y-106499999D01*
X159399986Y-106499998D01*
X159502697Y-106489505D01*
X159669119Y-106434358D01*
X159669121Y-106434357D01*
X159707376Y-106410761D01*
X159744470Y-106400610D01*
X159761357Y-106378054D01*
X159770571Y-106371782D01*
X159818345Y-106342315D01*
X159942315Y-106218345D01*
X160034356Y-106069124D01*
X160034359Y-106069117D01*
X160062247Y-105984955D01*
X160102019Y-105927510D01*
X160166534Y-105900686D01*
X160235310Y-105913000D01*
X160286511Y-105960543D01*
X160296994Y-105983003D01*
X160344628Y-106119131D01*
X160344629Y-106119135D01*
X160441870Y-106273891D01*
X160479943Y-106311964D01*
X160513428Y-106373287D01*
X160508444Y-106442979D01*
X160479947Y-106487322D01*
X160469093Y-106498177D01*
X160407772Y-106531665D01*
X160381408Y-106534500D01*
X160194643Y-106534500D01*
X160168285Y-106531666D01*
X160163574Y-106530641D01*
X160163570Y-106530641D01*
X160114039Y-106534184D01*
X160105192Y-106534500D01*
X160091700Y-106534500D01*
X160085563Y-106535382D01*
X160078340Y-106536420D01*
X160069554Y-106537365D01*
X160020016Y-106540909D01*
X160020013Y-106540910D01*
X160015486Y-106542598D01*
X159989827Y-106549146D01*
X159985050Y-106549833D01*
X159985043Y-106549835D01*
X159939865Y-106570466D01*
X159931689Y-106573852D01*
X159878998Y-106593504D01*
X159866998Y-106594362D01*
X159864670Y-106599221D01*
X159853677Y-106610012D01*
X159818031Y-106640900D01*
X159816610Y-106642131D01*
X159809726Y-106647678D01*
X159798903Y-106655780D01*
X159789354Y-106665329D01*
X159782884Y-106671353D01*
X159745361Y-106703867D01*
X159745354Y-106703876D01*
X159742743Y-106707938D01*
X159726116Y-106728568D01*
X159191503Y-107263181D01*
X159130180Y-107296666D01*
X159103822Y-107299500D01*
X157999998Y-107299500D01*
X157999981Y-107299501D01*
X157897203Y-107310000D01*
X157897200Y-107310001D01*
X157730668Y-107365185D01*
X157730659Y-107365190D01*
X157654105Y-107412408D01*
X157586712Y-107430848D01*
X157520119Y-107409972D01*
X157515641Y-107406979D01*
X157341840Y-107314081D01*
X157341834Y-107314079D01*
X157153239Y-107256869D01*
X157153236Y-107256868D01*
X156957107Y-107237552D01*
X156760977Y-107256868D01*
X156572373Y-107314081D01*
X156398574Y-107406979D01*
X156398567Y-107406983D01*
X156246223Y-107532009D01*
X156220353Y-107563533D01*
X156162607Y-107602867D01*
X156092763Y-107604738D01*
X156032994Y-107568550D01*
X156002279Y-107505794D01*
X156000500Y-107484868D01*
X156000500Y-105587500D01*
X157300001Y-105587500D01*
X157300001Y-105799986D01*
X157310494Y-105902697D01*
X157365641Y-106069119D01*
X157365643Y-106069124D01*
X157457684Y-106218345D01*
X157581654Y-106342315D01*
X157730875Y-106434356D01*
X157730880Y-106434358D01*
X157897302Y-106489505D01*
X157897309Y-106489506D01*
X158000019Y-106499999D01*
X158449999Y-106499999D01*
X158450000Y-106499998D01*
X158450000Y-105587500D01*
X157300001Y-105587500D01*
X156000500Y-105587500D01*
X156000500Y-104343336D01*
X156020185Y-104276297D01*
X156072989Y-104230542D01*
X156142147Y-104220598D01*
X156205703Y-104249623D01*
G37*
%TD.AperFunction*%
%TA.AperFunction,Conductor*%
G36*
X172555689Y-96648763D02*
G01*
X172567273Y-96662132D01*
X172575643Y-96673313D01*
X172630461Y-96746540D01*
X172630463Y-96746542D01*
X172745672Y-96832788D01*
X172745679Y-96832792D01*
X172751508Y-96834966D01*
X172880525Y-96883086D01*
X172940135Y-96889495D01*
X173107508Y-96889494D01*
X173174547Y-96909178D01*
X173220302Y-96961982D01*
X173231508Y-97013494D01*
X173231508Y-97264996D01*
X173211823Y-97332035D01*
X173159019Y-97377790D01*
X173107508Y-97388996D01*
X172718008Y-97388996D01*
X172718008Y-101388996D01*
X172841115Y-101388996D01*
X172908154Y-101408681D01*
X172953909Y-101461485D01*
X172963853Y-101530643D01*
X172936968Y-101591661D01*
X172896099Y-101641460D01*
X172896094Y-101641467D01*
X172803196Y-101815266D01*
X172745983Y-102003870D01*
X172726667Y-102200000D01*
X172745983Y-102396129D01*
X172803196Y-102584733D01*
X172896094Y-102758532D01*
X172896098Y-102758538D01*
X172929439Y-102799165D01*
X172956751Y-102863475D01*
X172944960Y-102932342D01*
X172897807Y-102983902D01*
X172876918Y-102994011D01*
X172739679Y-103045197D01*
X172739672Y-103045201D01*
X172624463Y-103131447D01*
X172561273Y-103215857D01*
X172505339Y-103257728D01*
X172435647Y-103262711D01*
X172374324Y-103229225D01*
X172362741Y-103215856D01*
X172299554Y-103131450D01*
X172299551Y-103131447D01*
X172184342Y-103045201D01*
X172184335Y-103045197D01*
X172049489Y-102994903D01*
X172049490Y-102994903D01*
X171989890Y-102988496D01*
X171989888Y-102988495D01*
X171989880Y-102988495D01*
X171989872Y-102988495D01*
X171836510Y-102988495D01*
X171769471Y-102968810D01*
X171723716Y-102916006D01*
X171712510Y-102864495D01*
X171712510Y-102422425D01*
X171732195Y-102355386D01*
X171740651Y-102343768D01*
X171759808Y-102320426D01*
X171852712Y-102146615D01*
X171909922Y-101958020D01*
X171929239Y-101761888D01*
X171909922Y-101565756D01*
X171904837Y-101548992D01*
X171904213Y-101479125D01*
X171941460Y-101420012D01*
X172004754Y-101390421D01*
X172023497Y-101388996D01*
X172218008Y-101388996D01*
X172218008Y-97388996D01*
X171836510Y-97388996D01*
X171769471Y-97369311D01*
X171723716Y-97316507D01*
X171712510Y-97264996D01*
X171712510Y-97013494D01*
X171732195Y-96946455D01*
X171784999Y-96900700D01*
X171836510Y-96889494D01*
X171995878Y-96889494D01*
X171995879Y-96889494D01*
X172055490Y-96883086D01*
X172190338Y-96832791D01*
X172305553Y-96746541D01*
X172368741Y-96662131D01*
X172424674Y-96620262D01*
X172494366Y-96615278D01*
X172555689Y-96648763D01*
G37*
%TD.AperFunction*%
%TA.AperFunction,Conductor*%
G36*
X179272817Y-92659180D02*
G01*
X179293459Y-92675814D01*
X179294959Y-92677314D01*
X179328444Y-92738637D01*
X179323460Y-92808329D01*
X179281588Y-92864262D01*
X179216124Y-92888679D01*
X179207278Y-92888995D01*
X179068008Y-92888995D01*
X179068008Y-96888995D01*
X179443508Y-96888995D01*
X179510547Y-96908680D01*
X179556302Y-96961484D01*
X179567508Y-97012995D01*
X179567508Y-97264496D01*
X179547823Y-97331535D01*
X179495019Y-97377290D01*
X179443509Y-97388496D01*
X179290138Y-97388496D01*
X179290131Y-97388497D01*
X179230524Y-97394904D01*
X179095679Y-97445198D01*
X179095672Y-97445202D01*
X178980463Y-97531448D01*
X178980460Y-97531451D01*
X178917274Y-97615857D01*
X178861340Y-97657728D01*
X178791649Y-97662712D01*
X178730326Y-97629226D01*
X178718742Y-97615857D01*
X178655555Y-97531451D01*
X178655552Y-97531448D01*
X178540343Y-97445202D01*
X178540336Y-97445198D01*
X178405490Y-97394904D01*
X178405491Y-97394904D01*
X178345891Y-97388497D01*
X178345889Y-97388496D01*
X178345881Y-97388496D01*
X178345873Y-97388496D01*
X178172508Y-97388496D01*
X178105469Y-97368811D01*
X178059714Y-97316007D01*
X178048508Y-97264496D01*
X178048508Y-97012995D01*
X178068193Y-96945956D01*
X178120997Y-96900201D01*
X178172508Y-96888995D01*
X178568008Y-96888995D01*
X178568008Y-92888995D01*
X178108975Y-92888995D01*
X178041936Y-92869310D01*
X177996181Y-92816506D01*
X177992807Y-92808365D01*
X177992247Y-92806865D01*
X177987241Y-92737174D01*
X178020707Y-92675841D01*
X178082019Y-92642337D01*
X178108415Y-92639495D01*
X179205778Y-92639495D01*
X179272817Y-92659180D01*
G37*
%TD.AperFunction*%
%TA.AperFunction,Conductor*%
G36*
X182842539Y-82920185D02*
G01*
X182888294Y-82972989D01*
X182899500Y-83024500D01*
X182899500Y-120375500D01*
X182879815Y-120442539D01*
X182827011Y-120488294D01*
X182775500Y-120499500D01*
X174232559Y-120499500D01*
X174165520Y-120479815D01*
X174119765Y-120427011D01*
X174109821Y-120357853D01*
X174138846Y-120294297D01*
X174167462Y-120269961D01*
X174293345Y-120192315D01*
X174417315Y-120068345D01*
X174509356Y-119919124D01*
X174509358Y-119919119D01*
X174564505Y-119752697D01*
X174564506Y-119752690D01*
X174574999Y-119649986D01*
X174575000Y-119649973D01*
X174575000Y-119450000D01*
X171893000Y-119450000D01*
X171879319Y-119463681D01*
X171817996Y-119497166D01*
X171791638Y-119500000D01*
X169050001Y-119500000D01*
X169050001Y-119712486D01*
X169060494Y-119815197D01*
X169115641Y-119981619D01*
X169115643Y-119981624D01*
X169207684Y-120130845D01*
X169331654Y-120254815D01*
X169356209Y-120269961D01*
X169402934Y-120321909D01*
X169414155Y-120390872D01*
X169386312Y-120454954D01*
X169328243Y-120493810D01*
X169291112Y-120499500D01*
X125424500Y-120499500D01*
X125357461Y-120479815D01*
X125311706Y-120427011D01*
X125300500Y-120375500D01*
X125300500Y-116700002D01*
X125844726Y-116700002D01*
X125863808Y-117051954D01*
X125920833Y-117399793D01*
X125920834Y-117399796D01*
X126015126Y-117739408D01*
X126015127Y-117739410D01*
X126145588Y-118066844D01*
X126145597Y-118066862D01*
X126230863Y-118227690D01*
X126310695Y-118378269D01*
X126494933Y-118650000D01*
X126508498Y-118670006D01*
X126508505Y-118670016D01*
X126672012Y-118862510D01*
X126736686Y-118938650D01*
X126992580Y-119181046D01*
X127273182Y-119394354D01*
X127575202Y-119576074D01*
X127575206Y-119576075D01*
X127575210Y-119576078D01*
X127895088Y-119724070D01*
X127895092Y-119724070D01*
X127895099Y-119724074D01*
X128229122Y-119836619D01*
X128573355Y-119912391D01*
X128923763Y-119950500D01*
X128923769Y-119950500D01*
X129276231Y-119950500D01*
X129276237Y-119950500D01*
X129626645Y-119912391D01*
X129970878Y-119836619D01*
X130304901Y-119724074D01*
X130304908Y-119724070D01*
X130304911Y-119724070D01*
X130624789Y-119576078D01*
X130624798Y-119576074D01*
X130926818Y-119394354D01*
X131207420Y-119181046D01*
X131463314Y-118938650D01*
X131570467Y-118812500D01*
X132700001Y-118812500D01*
X132700001Y-119024986D01*
X132710494Y-119127697D01*
X132765641Y-119294119D01*
X132765643Y-119294124D01*
X132857684Y-119443345D01*
X132981654Y-119567315D01*
X133130875Y-119659356D01*
X133130880Y-119659358D01*
X133297302Y-119714505D01*
X133297309Y-119714506D01*
X133400019Y-119724999D01*
X133849999Y-119724999D01*
X133850000Y-119724998D01*
X133850000Y-118812500D01*
X134350000Y-118812500D01*
X134350000Y-119724999D01*
X134799972Y-119724999D01*
X134799986Y-119724998D01*
X134902697Y-119714505D01*
X135069119Y-119659358D01*
X135069124Y-119659356D01*
X135218345Y-119567315D01*
X135342315Y-119443345D01*
X135434356Y-119294124D01*
X135434358Y-119294119D01*
X135489505Y-119127697D01*
X135489506Y-119127690D01*
X135499999Y-119024986D01*
X135500000Y-119024973D01*
X135500000Y-118812500D01*
X134350000Y-118812500D01*
X133850000Y-118812500D01*
X132700001Y-118812500D01*
X131570467Y-118812500D01*
X131691501Y-118670008D01*
X131889305Y-118378269D01*
X131924174Y-118312500D01*
X132700000Y-118312500D01*
X133850000Y-118312500D01*
X133850000Y-117400000D01*
X134350000Y-117400000D01*
X134350000Y-118312500D01*
X135499999Y-118312500D01*
X135499999Y-118100028D01*
X135499998Y-118100013D01*
X135489505Y-117997302D01*
X135434358Y-117830880D01*
X135434356Y-117830875D01*
X135342315Y-117681654D01*
X135218345Y-117557684D01*
X135069124Y-117465643D01*
X135069119Y-117465641D01*
X134902697Y-117410494D01*
X134902690Y-117410493D01*
X134799986Y-117400000D01*
X134350000Y-117400000D01*
X133850000Y-117400000D01*
X133400028Y-117400000D01*
X133400012Y-117400001D01*
X133297302Y-117410494D01*
X133130880Y-117465641D01*
X133130875Y-117465643D01*
X132981654Y-117557684D01*
X132857684Y-117681654D01*
X132765643Y-117830875D01*
X132765641Y-117830880D01*
X132710494Y-117997302D01*
X132710493Y-117997309D01*
X132700000Y-118100013D01*
X132700000Y-118312500D01*
X131924174Y-118312500D01*
X132054407Y-118066854D01*
X132184871Y-117739414D01*
X132189852Y-117721476D01*
X132235230Y-117558037D01*
X132279168Y-117399788D01*
X132336191Y-117051957D01*
X132355274Y-116700000D01*
X132353191Y-116661590D01*
X132343824Y-116488825D01*
X132336191Y-116348043D01*
X132279168Y-116000212D01*
X132251344Y-115900001D01*
X132699500Y-115900001D01*
X132699501Y-115900019D01*
X132710000Y-116002796D01*
X132710001Y-116002799D01*
X132754509Y-116137112D01*
X132765186Y-116169334D01*
X132857288Y-116318656D01*
X132981344Y-116442712D01*
X133130666Y-116534814D01*
X133297203Y-116589999D01*
X133399991Y-116600500D01*
X134800008Y-116600499D01*
X134902797Y-116589999D01*
X135069334Y-116534814D01*
X135218656Y-116442712D01*
X135342712Y-116318656D01*
X135386970Y-116246902D01*
X135438917Y-116200179D01*
X135492508Y-116188000D01*
X136676000Y-116188000D01*
X136743039Y-116207685D01*
X136788794Y-116260489D01*
X136800000Y-116312000D01*
X136800000Y-116850000D01*
X137550393Y-116850000D01*
X137490762Y-116967031D01*
X137469702Y-117100000D01*
X137490762Y-117232969D01*
X137550393Y-117350000D01*
X136800000Y-117350000D01*
X136800000Y-117947844D01*
X136806401Y-118007372D01*
X136806403Y-118007379D01*
X136856645Y-118142086D01*
X136856649Y-118142093D01*
X136942809Y-118257187D01*
X136942812Y-118257190D01*
X137057906Y-118343350D01*
X137057913Y-118343354D01*
X137192620Y-118393596D01*
X137192627Y-118393598D01*
X137252155Y-118399999D01*
X137252172Y-118400000D01*
X137650000Y-118400000D01*
X137650000Y-117449607D01*
X137767031Y-117509238D01*
X137866549Y-117525000D01*
X137933451Y-117525000D01*
X138032969Y-117509238D01*
X138150000Y-117449607D01*
X138150000Y-118400000D01*
X138547828Y-118400000D01*
X138547844Y-118399999D01*
X138607372Y-118393598D01*
X138607379Y-118393596D01*
X138742086Y-118343354D01*
X138742093Y-118343350D01*
X138857187Y-118257190D01*
X138857190Y-118257187D01*
X138943350Y-118142093D01*
X138947604Y-118134304D01*
X138950045Y-118135637D01*
X138983367Y-118091117D01*
X139048830Y-118066694D01*
X139117104Y-118081539D01*
X139138888Y-118096662D01*
X139171560Y-118124973D01*
X139258746Y-118200521D01*
X139440750Y-118305601D01*
X139440752Y-118305601D01*
X139440756Y-118305604D01*
X139639367Y-118374344D01*
X139847398Y-118404254D01*
X140057330Y-118394254D01*
X140261576Y-118344704D01*
X140347199Y-118305601D01*
X140452743Y-118257401D01*
X140452746Y-118257399D01*
X140452753Y-118257396D01*
X140623952Y-118135486D01*
X140657776Y-118100013D01*
X140768986Y-117983378D01*
X140795540Y-117942059D01*
X140848343Y-117896303D01*
X140917502Y-117886359D01*
X140981058Y-117915383D01*
X140997326Y-117932444D01*
X141099909Y-118062887D01*
X141258746Y-118200521D01*
X141440750Y-118305601D01*
X141440752Y-118305601D01*
X141440756Y-118305604D01*
X141639367Y-118374344D01*
X141847398Y-118404254D01*
X142057330Y-118394254D01*
X142261576Y-118344704D01*
X142347199Y-118305601D01*
X142452743Y-118257401D01*
X142452746Y-118257399D01*
X142452753Y-118257396D01*
X142623952Y-118135486D01*
X142657776Y-118100013D01*
X142768986Y-117983378D01*
X142795540Y-117942059D01*
X142848343Y-117896303D01*
X142917502Y-117886359D01*
X142981058Y-117915383D01*
X142997326Y-117932444D01*
X143099909Y-118062887D01*
X143258746Y-118200521D01*
X143440750Y-118305601D01*
X143440752Y-118305601D01*
X143440756Y-118305604D01*
X143639367Y-118374344D01*
X143847398Y-118404254D01*
X144057330Y-118394254D01*
X144261576Y-118344704D01*
X144347199Y-118305601D01*
X144452743Y-118257401D01*
X144452746Y-118257399D01*
X144452753Y-118257396D01*
X144623952Y-118135486D01*
X144657776Y-118100013D01*
X144768985Y-117983379D01*
X144768986Y-117983378D01*
X144848604Y-117859491D01*
X148200000Y-117859491D01*
X148215147Y-118037450D01*
X148215148Y-118037453D01*
X148275197Y-118268078D01*
X148373360Y-118485241D01*
X148373362Y-118485244D01*
X148506812Y-118682688D01*
X148506814Y-118682690D01*
X148671706Y-118854736D01*
X148863316Y-118996450D01*
X149076115Y-119103741D01*
X149303987Y-119173526D01*
X149303985Y-119173526D01*
X149350000Y-119179418D01*
X149350000Y-118035501D01*
X149457685Y-118084680D01*
X149564237Y-118100000D01*
X149635763Y-118100000D01*
X149742315Y-118084680D01*
X149850000Y-118035501D01*
X149850000Y-119178264D01*
X150011434Y-119143473D01*
X150232562Y-119054616D01*
X150435494Y-118929666D01*
X150568326Y-118812760D01*
X150631656Y-118783245D01*
X150700889Y-118792654D01*
X150754045Y-118838000D01*
X150766432Y-118862510D01*
X150796202Y-118942328D01*
X150796206Y-118942335D01*
X150882452Y-119057544D01*
X150882455Y-119057547D01*
X150997664Y-119143793D01*
X150997671Y-119143797D01*
X151132517Y-119194091D01*
X151132516Y-119194091D01*
X151139444Y-119194835D01*
X151192127Y-119200500D01*
X153087872Y-119200499D01*
X153147483Y-119194091D01*
X153282331Y-119143796D01*
X153397546Y-119057546D01*
X153483796Y-118942331D01*
X153534091Y-118807483D01*
X153540500Y-118747873D01*
X153540500Y-118650000D01*
X163000000Y-118650000D01*
X163000000Y-118851096D01*
X163002897Y-118893824D01*
X163048831Y-119078523D01*
X163133390Y-119249022D01*
X163133392Y-119249025D01*
X163252632Y-119397366D01*
X163252633Y-119397367D01*
X163400974Y-119516607D01*
X163400977Y-119516609D01*
X163571476Y-119601168D01*
X163756175Y-119647102D01*
X163798903Y-119650000D01*
X164250000Y-119650000D01*
X164250000Y-118650000D01*
X163000000Y-118650000D01*
X153540500Y-118650000D01*
X153540499Y-116452128D01*
X153534189Y-116393428D01*
X153534091Y-116392516D01*
X153483797Y-116257671D01*
X153483793Y-116257664D01*
X153397547Y-116142455D01*
X153397544Y-116142452D01*
X153282335Y-116056206D01*
X153282328Y-116056202D01*
X153147482Y-116005908D01*
X153147483Y-116005908D01*
X153087883Y-115999501D01*
X153087881Y-115999500D01*
X153087873Y-115999500D01*
X153087864Y-115999500D01*
X151192129Y-115999500D01*
X151192123Y-115999501D01*
X151132516Y-116005908D01*
X150997671Y-116056202D01*
X150997664Y-116056206D01*
X150882455Y-116142452D01*
X150882452Y-116142455D01*
X150796206Y-116257664D01*
X150796202Y-116257671D01*
X150766661Y-116336876D01*
X150724790Y-116392810D01*
X150659325Y-116417227D01*
X150591052Y-116402375D01*
X150560957Y-116379344D01*
X150528293Y-116345264D01*
X150336683Y-116203549D01*
X150123884Y-116096257D01*
X149896020Y-116026475D01*
X149850000Y-116020581D01*
X149850000Y-117164498D01*
X149742315Y-117115320D01*
X149635763Y-117100000D01*
X149564237Y-117100000D01*
X149457685Y-117115320D01*
X149350000Y-117164498D01*
X149350000Y-116021734D01*
X149349999Y-116021734D01*
X149188566Y-116056525D01*
X148967437Y-116145383D01*
X148764505Y-116270333D01*
X148585610Y-116427780D01*
X148585603Y-116427786D01*
X148435897Y-116613194D01*
X148435890Y-116613204D01*
X148319668Y-116821248D01*
X148240277Y-117045947D01*
X148240273Y-117045961D01*
X148200000Y-117280832D01*
X148200000Y-117350000D01*
X149166314Y-117350000D01*
X149140507Y-117390156D01*
X149100000Y-117528111D01*
X149100000Y-117671889D01*
X149140507Y-117809844D01*
X149166314Y-117850000D01*
X148200000Y-117850000D01*
X148200000Y-117859491D01*
X144848604Y-117859491D01*
X144882613Y-117806572D01*
X144960725Y-117611457D01*
X145000500Y-117405085D01*
X145000500Y-116847575D01*
X144985528Y-116690782D01*
X144926316Y-116489125D01*
X144830011Y-116302318D01*
X144830009Y-116302316D01*
X144830008Y-116302313D01*
X144700094Y-116137116D01*
X144700090Y-116137112D01*
X144541253Y-115999478D01*
X144462500Y-115954010D01*
X144414284Y-115903443D01*
X144400500Y-115846623D01*
X144400500Y-115758675D01*
X144420185Y-115691636D01*
X144436814Y-115670999D01*
X148806431Y-111301381D01*
X148827068Y-111284751D01*
X148831128Y-111282143D01*
X148863640Y-111244620D01*
X148869674Y-111238139D01*
X148879220Y-111228594D01*
X148887314Y-111217780D01*
X148892852Y-111210906D01*
X148925377Y-111173373D01*
X148927377Y-111168992D01*
X148940911Y-111146183D01*
X148943795Y-111142331D01*
X148961146Y-111095807D01*
X148964533Y-111087633D01*
X148985165Y-111042457D01*
X148985851Y-111037683D01*
X148992407Y-111011996D01*
X148994091Y-111007483D01*
X148994091Y-111007478D01*
X148994092Y-111007477D01*
X148995650Y-110985678D01*
X148997633Y-110957946D01*
X148998574Y-110949184D01*
X149000500Y-110935799D01*
X149000500Y-110922297D01*
X149000816Y-110913450D01*
X149004358Y-110863927D01*
X149003333Y-110859214D01*
X149000500Y-110832858D01*
X149000500Y-110540969D01*
X149020185Y-110473930D01*
X149055613Y-110437864D01*
X149058528Y-110435915D01*
X149058538Y-110435910D01*
X149210883Y-110310883D01*
X149335910Y-110158538D01*
X149401475Y-110035875D01*
X149428811Y-109984733D01*
X149428811Y-109984732D01*
X149428814Y-109984727D01*
X149486024Y-109796132D01*
X149505341Y-109600000D01*
X149486024Y-109403868D01*
X149428814Y-109215273D01*
X149428811Y-109215269D01*
X149428811Y-109215266D01*
X149335913Y-109041467D01*
X149335909Y-109041460D01*
X149210883Y-108889116D01*
X149058539Y-108764090D01*
X149058532Y-108764086D01*
X148884733Y-108671188D01*
X148884727Y-108671186D01*
X148696132Y-108613976D01*
X148696129Y-108613975D01*
X148500000Y-108594659D01*
X148499998Y-108594659D01*
X148436436Y-108600918D01*
X148367790Y-108587898D01*
X148317080Y-108539832D01*
X148300881Y-108489668D01*
X148300592Y-108486737D01*
X148293131Y-108410975D01*
X148235921Y-108222380D01*
X148235918Y-108222376D01*
X148235918Y-108222373D01*
X148143020Y-108048574D01*
X148143016Y-108048567D01*
X148017990Y-107896223D01*
X147865646Y-107771197D01*
X147865639Y-107771193D01*
X147733510Y-107700569D01*
X147683666Y-107651607D01*
X147668205Y-107583470D01*
X147692036Y-107517790D01*
X147704275Y-107503537D01*
X148706431Y-106501381D01*
X148727068Y-106484751D01*
X148731128Y-106482143D01*
X148763640Y-106444620D01*
X148769674Y-106438139D01*
X148779220Y-106428594D01*
X148787314Y-106417780D01*
X148792852Y-106410906D01*
X148825377Y-106373373D01*
X148827377Y-106368992D01*
X148840911Y-106346183D01*
X148843795Y-106342331D01*
X148861146Y-106295807D01*
X148864533Y-106287633D01*
X148885165Y-106242457D01*
X148885851Y-106237683D01*
X148892407Y-106211996D01*
X148894091Y-106207483D01*
X148894091Y-106207478D01*
X148894092Y-106207477D01*
X148896157Y-106178588D01*
X148897633Y-106157946D01*
X148898574Y-106149184D01*
X148900500Y-106135799D01*
X148900500Y-106122297D01*
X148900816Y-106113450D01*
X148904358Y-106063927D01*
X148903333Y-106059214D01*
X148900500Y-106032858D01*
X148900500Y-106004295D01*
X148920185Y-105937256D01*
X148972989Y-105891501D01*
X149042147Y-105881557D01*
X149063508Y-105886590D01*
X149072308Y-105889506D01*
X149175019Y-105899999D01*
X149387499Y-105899999D01*
X149387500Y-105899998D01*
X149387500Y-104750000D01*
X149887500Y-104750000D01*
X149887500Y-105899999D01*
X150099972Y-105899999D01*
X150099986Y-105899998D01*
X150202697Y-105889505D01*
X150369119Y-105834358D01*
X150369124Y-105834356D01*
X150518345Y-105742315D01*
X150642315Y-105618345D01*
X150734356Y-105469124D01*
X150734358Y-105469119D01*
X150789505Y-105302697D01*
X150789506Y-105302690D01*
X150799999Y-105199986D01*
X150800000Y-105199973D01*
X150800000Y-104750000D01*
X149887500Y-104750000D01*
X149387500Y-104750000D01*
X149387500Y-103100000D01*
X149887500Y-103100000D01*
X149887500Y-104250000D01*
X150799999Y-104250000D01*
X150799999Y-103800028D01*
X150799998Y-103800013D01*
X150789505Y-103697302D01*
X150734358Y-103530880D01*
X150734356Y-103530875D01*
X150642315Y-103381654D01*
X150518345Y-103257684D01*
X150369124Y-103165643D01*
X150369119Y-103165641D01*
X150202697Y-103110494D01*
X150202690Y-103110493D01*
X150099986Y-103100000D01*
X149887500Y-103100000D01*
X149387500Y-103100000D01*
X149175029Y-103100000D01*
X149175012Y-103100001D01*
X149072302Y-103110494D01*
X149063499Y-103113411D01*
X148993670Y-103115809D01*
X148933630Y-103080075D01*
X148902440Y-103017553D01*
X148900500Y-102995703D01*
X148900500Y-101619335D01*
X148920185Y-101552296D01*
X148936815Y-101531658D01*
X149442045Y-101026428D01*
X149503365Y-100992945D01*
X149573056Y-100997929D01*
X149628990Y-101039800D01*
X149653012Y-101100853D01*
X149656401Y-101132373D01*
X149656403Y-101132379D01*
X149706645Y-101267086D01*
X149706649Y-101267093D01*
X149792809Y-101382187D01*
X149792812Y-101382190D01*
X149907906Y-101468350D01*
X149907913Y-101468354D01*
X150042620Y-101518596D01*
X150042627Y-101518598D01*
X150102155Y-101524999D01*
X150102172Y-101525000D01*
X150650000Y-101525000D01*
X150650000Y-100849499D01*
X150669685Y-100782460D01*
X150722489Y-100736705D01*
X150773997Y-100725499D01*
X151026001Y-100725499D01*
X151093039Y-100745184D01*
X151138794Y-100797988D01*
X151150000Y-100849499D01*
X151150000Y-101525000D01*
X151400500Y-101525000D01*
X151467539Y-101544685D01*
X151513294Y-101597489D01*
X151524500Y-101649000D01*
X151524500Y-102947870D01*
X151524501Y-102947876D01*
X151530908Y-103007483D01*
X151581202Y-103142328D01*
X151581206Y-103142335D01*
X151667451Y-103257543D01*
X151667452Y-103257544D01*
X151667454Y-103257546D01*
X151690431Y-103274746D01*
X151732301Y-103330679D01*
X151737285Y-103400370D01*
X151721658Y-103439108D01*
X151665190Y-103530659D01*
X151665185Y-103530668D01*
X151665115Y-103530880D01*
X151610001Y-103697203D01*
X151610001Y-103697204D01*
X151610000Y-103697204D01*
X151599500Y-103799983D01*
X151599500Y-105200001D01*
X151599501Y-105200018D01*
X151610000Y-105302796D01*
X151628568Y-105358828D01*
X151640929Y-105396132D01*
X151643206Y-105403001D01*
X151649500Y-105442006D01*
X151649500Y-111093021D01*
X151629815Y-111160060D01*
X151621353Y-111171686D01*
X151564091Y-111241460D01*
X151564086Y-111241467D01*
X151471188Y-111415266D01*
X151413975Y-111603870D01*
X151394659Y-111800000D01*
X151413975Y-111996129D01*
X151413976Y-111996132D01*
X151464497Y-112162678D01*
X151471188Y-112184733D01*
X151564086Y-112358532D01*
X151564090Y-112358539D01*
X151689116Y-112510883D01*
X151841460Y-112635909D01*
X151841467Y-112635913D01*
X152015266Y-112728811D01*
X152015269Y-112728811D01*
X152015273Y-112728814D01*
X152203868Y-112786024D01*
X152293697Y-112794871D01*
X152358485Y-112821031D01*
X152369225Y-112830593D01*
X156124267Y-116585634D01*
X156136048Y-116599266D01*
X156150390Y-116618530D01*
X156188343Y-116650376D01*
X156196319Y-116657686D01*
X156200219Y-116661587D01*
X156224544Y-116680821D01*
X156227340Y-116683099D01*
X156255062Y-116706360D01*
X156284786Y-116731302D01*
X156284794Y-116731306D01*
X156290824Y-116735273D01*
X156290790Y-116735323D01*
X156297137Y-116739366D01*
X156297169Y-116739316D01*
X156303321Y-116743110D01*
X156371294Y-116774806D01*
X156374510Y-116776362D01*
X156441567Y-116810040D01*
X156441576Y-116810042D01*
X156448355Y-116812510D01*
X156448334Y-116812567D01*
X156455451Y-116815040D01*
X156455470Y-116814984D01*
X156462324Y-116817255D01*
X156462325Y-116817255D01*
X156462327Y-116817256D01*
X156535848Y-116832436D01*
X156539209Y-116833181D01*
X156604099Y-116848561D01*
X156664791Y-116883177D01*
X156697134Y-116945110D01*
X156699500Y-116969218D01*
X156699500Y-117558028D01*
X156699501Y-117558034D01*
X156710113Y-117677415D01*
X156766089Y-117873045D01*
X156766090Y-117873048D01*
X156766091Y-117873049D01*
X156860302Y-118053407D01*
X156871267Y-118066854D01*
X156988890Y-118211109D01*
X157058758Y-118268078D01*
X157146593Y-118339698D01*
X157326951Y-118433909D01*
X157522582Y-118489886D01*
X157641963Y-118500500D01*
X158758036Y-118500499D01*
X158877418Y-118489886D01*
X159073049Y-118433909D01*
X159253407Y-118339698D01*
X159411109Y-118211109D01*
X159539698Y-118053407D01*
X159633909Y-117873049D01*
X159689886Y-117677418D01*
X159700500Y-117558037D01*
X159700500Y-116974500D01*
X159720185Y-116907461D01*
X159772989Y-116861706D01*
X159824500Y-116850500D01*
X162412279Y-116850500D01*
X163007058Y-116850500D01*
X163074097Y-116870185D01*
X163118146Y-116919406D01*
X163132969Y-116949295D01*
X163252277Y-117097721D01*
X163252278Y-117097722D01*
X163321884Y-117153673D01*
X163361803Y-117211016D01*
X163364383Y-117280838D01*
X163328804Y-117340971D01*
X163321885Y-117346967D01*
X163252631Y-117402635D01*
X163133392Y-117550974D01*
X163133390Y-117550977D01*
X163048831Y-117721476D01*
X163002897Y-117906175D01*
X163000000Y-117948903D01*
X163000000Y-118150000D01*
X164626000Y-118150000D01*
X164693039Y-118169685D01*
X164738794Y-118222489D01*
X164750000Y-118274000D01*
X164750000Y-119650000D01*
X165201097Y-119650000D01*
X165243824Y-119647102D01*
X165428523Y-119601168D01*
X165599022Y-119516609D01*
X165599025Y-119516607D01*
X165747366Y-119397367D01*
X165747367Y-119397366D01*
X165866607Y-119249025D01*
X165866609Y-119249022D01*
X165951168Y-119078523D01*
X165970696Y-119000000D01*
X169050000Y-119000000D01*
X170200000Y-119000000D01*
X170700000Y-119000000D01*
X171782000Y-119000000D01*
X171795681Y-118986319D01*
X171857004Y-118952834D01*
X171883362Y-118950000D01*
X172950000Y-118950000D01*
X172950000Y-118050000D01*
X173450000Y-118050000D01*
X173450000Y-118950000D01*
X174574999Y-118950000D01*
X174574999Y-118750028D01*
X174574998Y-118750013D01*
X174564505Y-118647302D01*
X174509358Y-118480880D01*
X174509356Y-118480875D01*
X174417315Y-118331654D01*
X174293345Y-118207684D01*
X174144124Y-118115643D01*
X174144119Y-118115641D01*
X173977697Y-118060494D01*
X173977690Y-118060493D01*
X173874986Y-118050000D01*
X173450000Y-118050000D01*
X172950000Y-118050000D01*
X172525028Y-118050000D01*
X172525012Y-118050001D01*
X172422302Y-118060494D01*
X172255880Y-118115641D01*
X172255875Y-118115643D01*
X172106654Y-118207684D01*
X171982682Y-118331656D01*
X171931472Y-118414680D01*
X171879523Y-118461404D01*
X171810561Y-118472625D01*
X171746479Y-118444781D01*
X171720395Y-118414678D01*
X171692317Y-118369156D01*
X171568345Y-118245184D01*
X171419124Y-118153143D01*
X171419119Y-118153141D01*
X171252697Y-118097994D01*
X171252690Y-118097993D01*
X171149986Y-118087500D01*
X170700000Y-118087500D01*
X170700000Y-119000000D01*
X170200000Y-119000000D01*
X170200000Y-118087500D01*
X169750028Y-118087500D01*
X169750012Y-118087501D01*
X169647302Y-118097994D01*
X169480880Y-118153141D01*
X169480875Y-118153143D01*
X169331654Y-118245184D01*
X169207684Y-118369154D01*
X169115643Y-118518375D01*
X169115641Y-118518380D01*
X169060494Y-118684802D01*
X169060493Y-118684809D01*
X169050000Y-118787513D01*
X169050000Y-119000000D01*
X165970696Y-119000000D01*
X165997102Y-118893824D01*
X166000000Y-118851096D01*
X166000000Y-118685023D01*
X166019685Y-118617984D01*
X166072489Y-118572229D01*
X166141647Y-118562285D01*
X166205203Y-118591310D01*
X166211681Y-118597342D01*
X166281654Y-118667315D01*
X166430875Y-118759356D01*
X166430880Y-118759358D01*
X166597302Y-118814505D01*
X166597309Y-118814506D01*
X166700019Y-118824999D01*
X167149999Y-118824999D01*
X167150000Y-118824998D01*
X167150000Y-117912500D01*
X167650000Y-117912500D01*
X167650000Y-118824999D01*
X168099972Y-118824999D01*
X168099986Y-118824998D01*
X168202697Y-118814505D01*
X168369119Y-118759358D01*
X168369124Y-118759356D01*
X168518345Y-118667315D01*
X168642315Y-118543345D01*
X168734356Y-118394124D01*
X168734358Y-118394119D01*
X168789505Y-118227697D01*
X168789506Y-118227690D01*
X168799999Y-118124986D01*
X168800000Y-118124973D01*
X168800000Y-117912500D01*
X167650000Y-117912500D01*
X167150000Y-117912500D01*
X167150000Y-117536500D01*
X167169685Y-117469461D01*
X167222489Y-117423706D01*
X167274000Y-117412500D01*
X168799999Y-117412500D01*
X168799999Y-117200028D01*
X168799998Y-117200013D01*
X168789506Y-117097304D01*
X168761737Y-117013505D01*
X168759335Y-116943676D01*
X168795066Y-116883634D01*
X168857587Y-116852441D01*
X168879443Y-116850500D01*
X169042072Y-116850500D01*
X169109111Y-116870185D01*
X169147609Y-116909401D01*
X169207288Y-117006156D01*
X169331344Y-117130212D01*
X169480666Y-117222314D01*
X169647203Y-117277499D01*
X169749991Y-117288000D01*
X171150008Y-117287999D01*
X171252797Y-117277499D01*
X171419334Y-117222314D01*
X171568656Y-117130212D01*
X171692712Y-117006156D01*
X171743527Y-116923772D01*
X171795474Y-116877048D01*
X171864436Y-116865825D01*
X171928519Y-116893669D01*
X171954602Y-116923769D01*
X171982288Y-116968656D01*
X172106344Y-117092712D01*
X172255666Y-117184814D01*
X172422203Y-117239999D01*
X172524991Y-117250500D01*
X173875008Y-117250499D01*
X173977797Y-117239999D01*
X174144334Y-117184814D01*
X174293656Y-117092712D01*
X174417712Y-116968656D01*
X174509814Y-116819334D01*
X174549357Y-116700002D01*
X175844726Y-116700002D01*
X175863808Y-117051954D01*
X175920833Y-117399793D01*
X175920834Y-117399796D01*
X176015126Y-117739408D01*
X176015127Y-117739410D01*
X176145588Y-118066844D01*
X176145597Y-118066862D01*
X176230863Y-118227690D01*
X176310695Y-118378269D01*
X176494933Y-118650000D01*
X176508498Y-118670006D01*
X176508505Y-118670016D01*
X176672012Y-118862510D01*
X176736686Y-118938650D01*
X176992580Y-119181046D01*
X177273182Y-119394354D01*
X177575202Y-119576074D01*
X177575206Y-119576075D01*
X177575210Y-119576078D01*
X177895088Y-119724070D01*
X177895092Y-119724070D01*
X177895099Y-119724074D01*
X178229122Y-119836619D01*
X178573355Y-119912391D01*
X178923763Y-119950500D01*
X178923769Y-119950500D01*
X179276231Y-119950500D01*
X179276237Y-119950500D01*
X179626645Y-119912391D01*
X179970878Y-119836619D01*
X180304901Y-119724074D01*
X180304908Y-119724070D01*
X180304911Y-119724070D01*
X180624789Y-119576078D01*
X180624798Y-119576074D01*
X180926818Y-119394354D01*
X181207420Y-119181046D01*
X181463314Y-118938650D01*
X181691501Y-118670008D01*
X181889305Y-118378269D01*
X182054407Y-118066854D01*
X182184871Y-117739414D01*
X182189852Y-117721476D01*
X182235230Y-117558037D01*
X182279168Y-117399788D01*
X182336191Y-117051957D01*
X182355274Y-116700000D01*
X182353191Y-116661590D01*
X182343824Y-116488825D01*
X182336191Y-116348043D01*
X182279168Y-116000212D01*
X182221501Y-115792516D01*
X182184873Y-115660591D01*
X182184872Y-115660589D01*
X182176716Y-115640120D01*
X182137138Y-115540785D01*
X182054411Y-115333155D01*
X182054402Y-115333137D01*
X181889305Y-115021731D01*
X181691501Y-114729992D01*
X181691497Y-114729987D01*
X181691494Y-114729983D01*
X181463314Y-114461350D01*
X181406512Y-114407544D01*
X181207420Y-114218954D01*
X181207413Y-114218948D01*
X181207410Y-114218946D01*
X181018041Y-114074992D01*
X180926818Y-114005646D01*
X180898971Y-113988891D01*
X180624802Y-113823928D01*
X180624789Y-113823921D01*
X180304911Y-113675929D01*
X180304906Y-113675928D01*
X180304903Y-113675927D01*
X180304901Y-113675926D01*
X180165080Y-113628815D01*
X179970880Y-113563381D01*
X179626643Y-113487608D01*
X179276238Y-113449500D01*
X179276237Y-113449500D01*
X178923763Y-113449500D01*
X178923761Y-113449500D01*
X178573356Y-113487608D01*
X178229119Y-113563381D01*
X177895093Y-113675928D01*
X177895088Y-113675929D01*
X177575210Y-113823921D01*
X177575197Y-113823928D01*
X177273184Y-114005644D01*
X176992589Y-114218946D01*
X176992580Y-114218954D01*
X176736685Y-114461350D01*
X176508505Y-114729983D01*
X176508498Y-114729993D01*
X176310695Y-115021730D01*
X176145597Y-115333137D01*
X176145588Y-115333155D01*
X176015127Y-115660589D01*
X176015126Y-115660591D01*
X175920834Y-116000203D01*
X175920833Y-116000206D01*
X175863808Y-116348045D01*
X175844726Y-116699997D01*
X175844726Y-116700002D01*
X174549357Y-116700002D01*
X174564999Y-116652797D01*
X174575500Y-116550009D01*
X174575499Y-115649992D01*
X174575214Y-115647206D01*
X174564999Y-115547203D01*
X174564998Y-115547200D01*
X174544896Y-115486537D01*
X174509814Y-115380666D01*
X174417712Y-115231344D01*
X174293656Y-115107288D01*
X174293655Y-115107287D01*
X174240295Y-115074375D01*
X174193570Y-115022427D01*
X174182347Y-114953465D01*
X174210190Y-114889383D01*
X174217700Y-114881165D01*
X174255211Y-114843655D01*
X174347314Y-114694334D01*
X174402499Y-114527797D01*
X174413000Y-114425008D01*
X174413000Y-113074992D01*
X174402499Y-112972203D01*
X174347314Y-112805666D01*
X174342965Y-112798616D01*
X174255213Y-112656348D01*
X174255210Y-112656344D01*
X174131155Y-112532289D01*
X174131151Y-112532286D01*
X173981837Y-112440187D01*
X173981835Y-112440186D01*
X173885708Y-112408333D01*
X173815297Y-112385001D01*
X173815295Y-112385000D01*
X173712515Y-112374500D01*
X173712508Y-112374500D01*
X172687492Y-112374500D01*
X172687484Y-112374500D01*
X172584704Y-112385000D01*
X172584703Y-112385001D01*
X172418164Y-112440186D01*
X172418162Y-112440187D01*
X172268848Y-112532286D01*
X172268844Y-112532289D01*
X172144789Y-112656344D01*
X172144786Y-112656348D01*
X172052687Y-112805662D01*
X172052686Y-112805664D01*
X171997501Y-112972203D01*
X171997500Y-112972204D01*
X171987000Y-113074984D01*
X171987000Y-114425015D01*
X171997500Y-114527795D01*
X171997501Y-114527797D01*
X172009492Y-114563984D01*
X172052686Y-114694335D01*
X172052687Y-114694337D01*
X172144786Y-114843651D01*
X172144789Y-114843655D01*
X172182289Y-114881155D01*
X172215774Y-114942478D01*
X172210790Y-115012170D01*
X172168918Y-115068103D01*
X172159705Y-115074375D01*
X172106342Y-115107289D01*
X171982287Y-115231344D01*
X171939182Y-115301228D01*
X171887233Y-115347952D01*
X171818271Y-115359173D01*
X171754189Y-115331329D01*
X171728105Y-115301226D01*
X171704414Y-115262817D01*
X171692712Y-115243844D01*
X171568656Y-115119788D01*
X171419334Y-115027686D01*
X171358433Y-115007505D01*
X171300990Y-114967733D01*
X171274167Y-114903217D01*
X171286482Y-114834441D01*
X171291901Y-114824703D01*
X171310599Y-114794388D01*
X171372314Y-114694334D01*
X171427499Y-114527797D01*
X171438000Y-114425008D01*
X171438000Y-113074992D01*
X171427499Y-112972203D01*
X171372314Y-112805666D01*
X171367965Y-112798616D01*
X171280213Y-112656348D01*
X171280210Y-112656344D01*
X171156155Y-112532289D01*
X171156151Y-112532286D01*
X171006837Y-112440187D01*
X171006835Y-112440186D01*
X170910708Y-112408333D01*
X170840297Y-112385001D01*
X170840295Y-112385000D01*
X170737515Y-112374500D01*
X170737508Y-112374500D01*
X170261230Y-112374500D01*
X170194191Y-112354815D01*
X170148436Y-112302011D01*
X170138492Y-112232853D01*
X170167517Y-112169297D01*
X170173549Y-112162819D01*
X170380044Y-111956324D01*
X171097526Y-111238840D01*
X171158847Y-111205357D01*
X171228538Y-111210341D01*
X171284471Y-111252212D01*
X171354818Y-111346183D01*
X171354821Y-111346186D01*
X171469915Y-111432346D01*
X171469922Y-111432350D01*
X171604629Y-111482592D01*
X171604636Y-111482594D01*
X171664164Y-111488995D01*
X171664181Y-111488996D01*
X172212008Y-111488996D01*
X172212008Y-107488996D01*
X171836510Y-107488996D01*
X171769471Y-107469311D01*
X171723716Y-107416507D01*
X171712510Y-107364996D01*
X171712510Y-107113494D01*
X171732195Y-107046455D01*
X171784999Y-107000700D01*
X171836510Y-106989494D01*
X171989878Y-106989494D01*
X171989879Y-106989494D01*
X172049490Y-106983086D01*
X172184338Y-106932791D01*
X172299553Y-106846541D01*
X172362741Y-106762131D01*
X172418674Y-106720262D01*
X172488366Y-106715278D01*
X172549689Y-106748763D01*
X172561273Y-106762132D01*
X172592517Y-106803868D01*
X172624461Y-106846540D01*
X172624463Y-106846542D01*
X172739672Y-106932788D01*
X172739679Y-106932792D01*
X172874525Y-106983086D01*
X172874524Y-106983086D01*
X172881452Y-106983830D01*
X172934135Y-106989495D01*
X174529880Y-106989494D01*
X174589491Y-106983086D01*
X174724339Y-106932791D01*
X174839554Y-106846541D01*
X174902742Y-106762131D01*
X174958675Y-106720262D01*
X175028367Y-106715278D01*
X175089690Y-106748763D01*
X175101268Y-106762125D01*
X175164462Y-106846541D01*
X175165525Y-106847337D01*
X175166322Y-106848401D01*
X175170733Y-106852812D01*
X175170099Y-106853445D01*
X175207398Y-106903266D01*
X175212387Y-106972957D01*
X175178905Y-107034282D01*
X174761010Y-107452177D01*
X174699687Y-107485662D01*
X174673329Y-107488496D01*
X174204137Y-107488496D01*
X174204131Y-107488497D01*
X174144524Y-107494904D01*
X174009679Y-107545198D01*
X174009672Y-107545202D01*
X173894463Y-107631448D01*
X173830961Y-107716275D01*
X173775027Y-107758145D01*
X173705335Y-107763129D01*
X173644012Y-107729643D01*
X173632429Y-107716275D01*
X173569194Y-107631805D01*
X173454100Y-107545645D01*
X173454093Y-107545641D01*
X173319386Y-107495399D01*
X173319379Y-107495397D01*
X173259851Y-107488996D01*
X172712008Y-107488996D01*
X172712008Y-111488996D01*
X173259835Y-111488996D01*
X173259851Y-111488995D01*
X173319379Y-111482594D01*
X173319386Y-111482592D01*
X173454093Y-111432350D01*
X173454100Y-111432346D01*
X173569193Y-111346186D01*
X173632428Y-111261717D01*
X173688362Y-111219846D01*
X173758054Y-111214862D01*
X173819377Y-111248347D01*
X173830961Y-111261716D01*
X173894195Y-111346186D01*
X173894463Y-111346543D01*
X174009672Y-111432789D01*
X174009679Y-111432793D01*
X174144525Y-111483087D01*
X174144524Y-111483087D01*
X174151452Y-111483831D01*
X174204135Y-111489496D01*
X175799880Y-111489495D01*
X175859491Y-111483087D01*
X175994339Y-111432792D01*
X176109554Y-111346542D01*
X176172742Y-111262132D01*
X176228675Y-111220263D01*
X176298367Y-111215279D01*
X176359690Y-111248764D01*
X176371268Y-111262126D01*
X176434462Y-111346542D01*
X176480651Y-111381119D01*
X176549672Y-111432789D01*
X176549679Y-111432793D01*
X176684525Y-111483087D01*
X176684524Y-111483087D01*
X176691452Y-111483831D01*
X176744135Y-111489496D01*
X178339880Y-111489495D01*
X178399491Y-111483087D01*
X178534339Y-111432792D01*
X178649554Y-111346542D01*
X178712742Y-111262132D01*
X178768675Y-111220263D01*
X178838367Y-111215279D01*
X178899690Y-111248764D01*
X178911268Y-111262126D01*
X178974462Y-111346542D01*
X179020651Y-111381119D01*
X179089672Y-111432789D01*
X179089679Y-111432793D01*
X179224525Y-111483087D01*
X179224524Y-111483087D01*
X179231452Y-111483831D01*
X179284135Y-111489496D01*
X180879880Y-111489495D01*
X180939491Y-111483087D01*
X181074339Y-111432792D01*
X181189554Y-111346542D01*
X181275804Y-111231327D01*
X181326099Y-111096479D01*
X181332508Y-111036869D01*
X181332507Y-107941124D01*
X181326099Y-107881513D01*
X181309091Y-107835913D01*
X181275805Y-107746667D01*
X181275801Y-107746660D01*
X181189555Y-107631451D01*
X181118196Y-107578031D01*
X181076326Y-107522097D01*
X181068508Y-107478765D01*
X181068508Y-101403718D01*
X181088193Y-101336679D01*
X181118195Y-101304452D01*
X181195554Y-101246542D01*
X181281804Y-101131327D01*
X181332099Y-100996479D01*
X181338508Y-100936869D01*
X181338507Y-97841124D01*
X181332099Y-97781513D01*
X181316295Y-97739141D01*
X181281805Y-97646667D01*
X181281801Y-97646660D01*
X181195555Y-97531451D01*
X181118196Y-97473539D01*
X181076326Y-97417605D01*
X181068508Y-97374273D01*
X181068508Y-92702700D01*
X181069817Y-92684730D01*
X181073297Y-92660969D01*
X181068980Y-92611630D01*
X181068508Y-92600821D01*
X181068508Y-92595291D01*
X181068508Y-92595286D01*
X181064902Y-92564438D01*
X181064542Y-92560911D01*
X181063254Y-92546192D01*
X181060166Y-92510883D01*
X181058007Y-92486204D01*
X181056546Y-92479130D01*
X181056606Y-92479117D01*
X181054974Y-92471759D01*
X181054916Y-92471773D01*
X181053250Y-92464745D01*
X181053249Y-92464743D01*
X181053249Y-92464740D01*
X181027575Y-92394201D01*
X181026428Y-92390903D01*
X181002822Y-92319661D01*
X181002819Y-92319657D01*
X180999770Y-92313116D01*
X180999823Y-92313090D01*
X180996539Y-92306306D01*
X180996487Y-92306333D01*
X180993244Y-92299877D01*
X180986422Y-92289505D01*
X180971290Y-92266497D01*
X180952033Y-92237217D01*
X180950096Y-92234176D01*
X180910722Y-92170342D01*
X180906242Y-92164676D01*
X180906288Y-92164638D01*
X180901527Y-92158794D01*
X180901482Y-92158833D01*
X180896839Y-92153300D01*
X180842298Y-92101843D01*
X180839711Y-92099330D01*
X180143737Y-91403356D01*
X180131957Y-91389725D01*
X180117618Y-91370465D01*
X180079659Y-91338614D01*
X180071694Y-91331313D01*
X180067788Y-91327406D01*
X180043451Y-91308163D01*
X180040655Y-91305885D01*
X179983222Y-91257693D01*
X179977188Y-91253724D01*
X179977220Y-91253675D01*
X179970861Y-91249623D01*
X179970830Y-91249674D01*
X179964688Y-91245886D01*
X179964686Y-91245885D01*
X179964685Y-91245884D01*
X179896696Y-91214179D01*
X179893455Y-91212610D01*
X179862538Y-91197083D01*
X179826441Y-91178955D01*
X179826439Y-91178954D01*
X179826438Y-91178954D01*
X179819653Y-91176484D01*
X179819673Y-91176428D01*
X179812557Y-91173954D01*
X179812539Y-91174010D01*
X179805682Y-91171738D01*
X179732218Y-91156568D01*
X179728701Y-91155788D01*
X179655726Y-91138494D01*
X179648555Y-91137656D01*
X179648561Y-91137596D01*
X179641063Y-91136830D01*
X179641058Y-91136890D01*
X179633868Y-91136260D01*
X179558878Y-91138443D01*
X179555271Y-91138495D01*
X173051713Y-91138495D01*
X173033743Y-91137186D01*
X173009980Y-91133705D01*
X172963650Y-91137759D01*
X172960640Y-91138023D01*
X172949834Y-91138495D01*
X172944290Y-91138495D01*
X172913496Y-91142094D01*
X172909913Y-91142460D01*
X172835208Y-91148996D01*
X172828142Y-91150456D01*
X172828130Y-91150399D01*
X172820761Y-91152033D01*
X172820775Y-91152090D01*
X172813751Y-91153754D01*
X172743253Y-91179412D01*
X172739853Y-91180593D01*
X172668673Y-91204181D01*
X172668671Y-91204181D01*
X172668668Y-91204183D01*
X172662131Y-91207231D01*
X172662106Y-91207179D01*
X172655318Y-91210465D01*
X172655344Y-91210516D01*
X172648892Y-91213756D01*
X172586244Y-91254960D01*
X172583204Y-91256897D01*
X172519355Y-91296280D01*
X172513690Y-91300760D01*
X172513654Y-91300714D01*
X172507806Y-91305479D01*
X172507843Y-91305523D01*
X172502318Y-91310159D01*
X172502312Y-91310164D01*
X172502312Y-91310165D01*
X172478741Y-91335148D01*
X172450856Y-91364704D01*
X172448345Y-91367289D01*
X172351679Y-91463954D01*
X172290359Y-91497438D01*
X172220667Y-91492454D01*
X172164733Y-91450583D01*
X172140316Y-91385119D01*
X172140000Y-91376272D01*
X172140000Y-90450000D01*
X171520000Y-90450000D01*
X171520000Y-91900000D01*
X171616272Y-91900000D01*
X171683311Y-91919685D01*
X171729066Y-91972489D01*
X171739010Y-92041647D01*
X171709985Y-92105203D01*
X171703953Y-92111681D01*
X170963458Y-92852176D01*
X170902135Y-92885661D01*
X170875777Y-92888495D01*
X170607271Y-92888495D01*
X170540232Y-92868810D01*
X170494477Y-92816006D01*
X170484532Y-92746856D01*
X170485163Y-92742459D01*
X170485165Y-92742457D01*
X170485851Y-92737683D01*
X170492407Y-92711996D01*
X170494091Y-92707483D01*
X170494091Y-92707478D01*
X170494092Y-92707477D01*
X170496248Y-92677314D01*
X170497633Y-92657946D01*
X170498574Y-92649184D01*
X170500500Y-92635799D01*
X170500500Y-92622297D01*
X170500816Y-92613450D01*
X170504358Y-92563927D01*
X170504357Y-92563923D01*
X170503334Y-92559219D01*
X170500500Y-92532862D01*
X170500500Y-91971601D01*
X170520185Y-91904562D01*
X170572989Y-91858807D01*
X170581148Y-91855426D01*
X170592383Y-91851235D01*
X170662073Y-91846252D01*
X170679049Y-91851236D01*
X170792623Y-91893597D01*
X170792627Y-91893598D01*
X170852155Y-91899999D01*
X170852172Y-91900000D01*
X171020000Y-91900000D01*
X171020000Y-88500000D01*
X171520000Y-88500000D01*
X171520000Y-89950000D01*
X172140000Y-89950000D01*
X172140000Y-88952172D01*
X172139999Y-88952155D01*
X172133598Y-88892627D01*
X172133596Y-88892620D01*
X172083354Y-88757913D01*
X172083350Y-88757906D01*
X171997190Y-88642812D01*
X171997187Y-88642809D01*
X171882093Y-88556649D01*
X171882086Y-88556645D01*
X171747379Y-88506403D01*
X171747372Y-88506401D01*
X171687844Y-88500000D01*
X171520000Y-88500000D01*
X171020000Y-88500000D01*
X170852155Y-88500000D01*
X170792627Y-88506401D01*
X170792620Y-88506403D01*
X170679047Y-88548763D01*
X170609355Y-88553747D01*
X170592381Y-88548763D01*
X170477482Y-88505908D01*
X170477483Y-88505908D01*
X170417883Y-88499501D01*
X170417881Y-88499500D01*
X170417873Y-88499500D01*
X170417864Y-88499500D01*
X169582129Y-88499500D01*
X169582123Y-88499501D01*
X169522516Y-88505908D01*
X169408333Y-88548496D01*
X169338641Y-88553480D01*
X169321667Y-88548496D01*
X169207482Y-88505908D01*
X169207483Y-88505908D01*
X169147883Y-88499501D01*
X169147881Y-88499500D01*
X169147873Y-88499500D01*
X169147864Y-88499500D01*
X168312129Y-88499500D01*
X168312123Y-88499501D01*
X168252516Y-88505908D01*
X168137618Y-88548763D01*
X168067926Y-88553747D01*
X168050952Y-88548763D01*
X167937379Y-88506403D01*
X167937372Y-88506401D01*
X167877844Y-88500000D01*
X167710000Y-88500000D01*
X167710000Y-91903072D01*
X167739789Y-91957627D01*
X167734805Y-92027319D01*
X167706304Y-92071666D01*
X167409683Y-92368287D01*
X167348360Y-92401772D01*
X167278668Y-92396788D01*
X167222735Y-92354916D01*
X167198318Y-92289452D01*
X167198599Y-92268452D01*
X167198792Y-92266496D01*
X167205341Y-92200000D01*
X167186024Y-92003868D01*
X167186021Y-92003858D01*
X167185701Y-92002250D01*
X167185778Y-92001378D01*
X167185427Y-91997806D01*
X167186104Y-91997739D01*
X167191921Y-91932657D01*
X167210000Y-91905067D01*
X167210000Y-88500000D01*
X167042155Y-88500000D01*
X166982627Y-88506401D01*
X166982620Y-88506403D01*
X166869047Y-88548763D01*
X166799355Y-88553747D01*
X166782381Y-88548763D01*
X166667482Y-88505908D01*
X166667483Y-88505908D01*
X166607883Y-88499501D01*
X166607881Y-88499500D01*
X166607873Y-88499500D01*
X166607864Y-88499500D01*
X165772129Y-88499500D01*
X165772123Y-88499501D01*
X165712516Y-88505908D01*
X165577671Y-88556202D01*
X165577664Y-88556206D01*
X165462455Y-88642452D01*
X165462452Y-88642455D01*
X165376206Y-88757664D01*
X165376202Y-88757671D01*
X165325908Y-88892517D01*
X165319501Y-88952116D01*
X165319500Y-88952135D01*
X165319500Y-90659457D01*
X165299815Y-90726496D01*
X165247011Y-90772251D01*
X165177853Y-90782195D01*
X165114297Y-90753170D01*
X165076523Y-90694392D01*
X165072142Y-90672058D01*
X165064505Y-90597303D01*
X165009358Y-90430880D01*
X165009356Y-90430875D01*
X164917315Y-90281654D01*
X164793345Y-90157684D01*
X164644124Y-90065643D01*
X164644119Y-90065641D01*
X164477697Y-90010494D01*
X164477690Y-90010493D01*
X164374986Y-90000000D01*
X163950000Y-90000000D01*
X163950000Y-92299999D01*
X164374972Y-92299999D01*
X164374986Y-92299998D01*
X164477697Y-92289505D01*
X164644119Y-92234358D01*
X164644124Y-92234356D01*
X164793345Y-92142315D01*
X164917317Y-92018343D01*
X164990914Y-91899023D01*
X165042862Y-91852298D01*
X165111824Y-91841075D01*
X165175906Y-91868918D01*
X165214763Y-91926987D01*
X165216057Y-91996845D01*
X165215117Y-92000103D01*
X165213976Y-92003864D01*
X165194659Y-92200000D01*
X165213975Y-92396129D01*
X165213976Y-92396132D01*
X165264876Y-92563927D01*
X165271188Y-92584733D01*
X165364086Y-92758532D01*
X165364090Y-92758539D01*
X165489116Y-92910883D01*
X165641460Y-93035909D01*
X165641467Y-93035913D01*
X165815266Y-93128811D01*
X165815269Y-93128811D01*
X165815273Y-93128814D01*
X166003868Y-93186024D01*
X166200000Y-93205341D01*
X166200000Y-93205340D01*
X166206062Y-93205938D01*
X166205868Y-93207904D01*
X166264176Y-93225026D01*
X166309931Y-93277830D01*
X166319875Y-93346988D01*
X166290850Y-93410544D01*
X166233133Y-93448001D01*
X166224348Y-93450666D01*
X166215268Y-93453420D01*
X166041467Y-93546319D01*
X166041460Y-93546323D01*
X165889116Y-93671349D01*
X165764090Y-93823693D01*
X165764086Y-93823700D01*
X165671188Y-93997499D01*
X165613975Y-94186103D01*
X165594659Y-94382231D01*
X165613975Y-94578362D01*
X165613976Y-94578365D01*
X165671186Y-94766960D01*
X165692319Y-94806497D01*
X165757432Y-94928316D01*
X165771673Y-94996719D01*
X165746673Y-95061963D01*
X165735754Y-95074450D01*
X161397025Y-99413181D01*
X161335702Y-99446666D01*
X161309344Y-99449500D01*
X160674500Y-99449500D01*
X160607461Y-99429815D01*
X160561706Y-99377011D01*
X160550500Y-99325500D01*
X160550499Y-98827129D01*
X160550499Y-98827128D01*
X160544091Y-98767517D01*
X160544089Y-98767513D01*
X160543632Y-98763255D01*
X160543632Y-98736745D01*
X160544089Y-98732486D01*
X160544091Y-98732483D01*
X160550500Y-98672873D01*
X160550499Y-98027128D01*
X160544091Y-97967517D01*
X160544089Y-97967513D01*
X160543632Y-97963255D01*
X160543632Y-97936745D01*
X160544089Y-97932486D01*
X160544091Y-97932483D01*
X160550500Y-97872873D01*
X160550499Y-97227128D01*
X160544091Y-97167517D01*
X160544089Y-97167513D01*
X160543632Y-97163255D01*
X160543632Y-97136745D01*
X160544089Y-97132486D01*
X160544091Y-97132483D01*
X160550500Y-97072873D01*
X160550499Y-96574499D01*
X160570183Y-96507461D01*
X160622987Y-96461706D01*
X160674499Y-96450500D01*
X161932857Y-96450500D01*
X161959215Y-96453334D01*
X161963927Y-96454359D01*
X162013461Y-96450815D01*
X162022308Y-96450500D01*
X162035799Y-96450500D01*
X162049156Y-96448579D01*
X162057951Y-96447633D01*
X162107483Y-96444091D01*
X162111992Y-96442408D01*
X162137685Y-96435850D01*
X162142457Y-96435165D01*
X162187637Y-96414530D01*
X162195801Y-96411149D01*
X162242331Y-96393796D01*
X162246189Y-96390907D01*
X162268995Y-96377375D01*
X162273373Y-96375377D01*
X162310899Y-96342859D01*
X162317778Y-96337316D01*
X162328593Y-96329221D01*
X162338155Y-96319658D01*
X162344605Y-96313653D01*
X162382143Y-96281128D01*
X162384751Y-96277068D01*
X162401381Y-96256431D01*
X163220995Y-95436818D01*
X163282318Y-95403333D01*
X163308676Y-95400499D01*
X164375002Y-95400499D01*
X164375008Y-95400499D01*
X164477797Y-95389999D01*
X164644334Y-95334814D01*
X164793656Y-95242712D01*
X164917712Y-95118656D01*
X165009814Y-94969334D01*
X165064999Y-94802797D01*
X165075500Y-94700009D01*
X165075499Y-93799992D01*
X165074264Y-93787905D01*
X165064999Y-93697203D01*
X165064998Y-93697200D01*
X165015002Y-93546323D01*
X165009814Y-93530666D01*
X164917712Y-93381344D01*
X164793656Y-93257288D01*
X164644334Y-93165186D01*
X164477797Y-93110001D01*
X164477795Y-93110000D01*
X164375010Y-93099500D01*
X163024998Y-93099500D01*
X163024981Y-93099501D01*
X162922203Y-93110000D01*
X162922200Y-93110001D01*
X162755668Y-93165185D01*
X162755663Y-93165187D01*
X162606342Y-93257289D01*
X162482289Y-93381342D01*
X162390187Y-93530663D01*
X162390185Y-93530668D01*
X162362349Y-93614670D01*
X162335001Y-93697203D01*
X162335001Y-93697204D01*
X162335000Y-93697204D01*
X162324500Y-93799983D01*
X162324500Y-94700001D01*
X162324501Y-94700019D01*
X162335000Y-94802796D01*
X162335001Y-94802799D01*
X162336924Y-94808601D01*
X162339326Y-94878429D01*
X162306899Y-94935286D01*
X161829005Y-95413181D01*
X161767682Y-95446666D01*
X161741324Y-95449500D01*
X160650862Y-95449500D01*
X160583823Y-95429815D01*
X160563181Y-95413181D01*
X160550000Y-95400000D01*
X160531409Y-95400000D01*
X160464370Y-95380315D01*
X160432144Y-95350313D01*
X160407546Y-95317454D01*
X160351503Y-95275500D01*
X160292335Y-95231206D01*
X160292328Y-95231202D01*
X160157482Y-95180908D01*
X160157483Y-95180908D01*
X160097883Y-95174501D01*
X160097881Y-95174500D01*
X160097873Y-95174500D01*
X160097865Y-95174500D01*
X159174000Y-95174500D01*
X159106961Y-95154815D01*
X159061206Y-95102011D01*
X159050000Y-95050500D01*
X159050000Y-94375000D01*
X159550000Y-94375000D01*
X159550000Y-94900000D01*
X160550000Y-94900000D01*
X160550000Y-94827172D01*
X160549999Y-94827155D01*
X160543598Y-94767627D01*
X160543596Y-94767620D01*
X160493354Y-94632913D01*
X160493350Y-94632906D01*
X160407190Y-94517812D01*
X160407187Y-94517809D01*
X160292093Y-94431649D01*
X160292086Y-94431645D01*
X160157379Y-94381403D01*
X160157372Y-94381401D01*
X160097844Y-94375000D01*
X159550000Y-94375000D01*
X159050000Y-94375000D01*
X158799500Y-94375000D01*
X158732461Y-94355315D01*
X158686706Y-94302511D01*
X158675500Y-94251000D01*
X158675499Y-93014981D01*
X158695184Y-92947942D01*
X158747987Y-92902187D01*
X158786897Y-92891623D01*
X158802797Y-92889999D01*
X158969334Y-92834814D01*
X159118656Y-92742712D01*
X159242712Y-92618656D01*
X159334814Y-92469334D01*
X159389999Y-92302797D01*
X159400500Y-92200009D01*
X159400500Y-91750000D01*
X160200001Y-91750000D01*
X160200001Y-92199986D01*
X160210494Y-92302697D01*
X160265641Y-92469119D01*
X160265643Y-92469124D01*
X160357684Y-92618345D01*
X160481654Y-92742315D01*
X160630875Y-92834356D01*
X160630880Y-92834358D01*
X160797302Y-92889505D01*
X160797309Y-92889506D01*
X160900019Y-92899999D01*
X161112499Y-92899999D01*
X161612500Y-92899999D01*
X161824972Y-92899999D01*
X161824986Y-92899998D01*
X161927697Y-92889505D01*
X162094119Y-92834358D01*
X162094124Y-92834356D01*
X162243345Y-92742315D01*
X162367315Y-92618345D01*
X162459356Y-92469124D01*
X162459358Y-92469119D01*
X162514505Y-92302697D01*
X162514505Y-92302695D01*
X162515277Y-92295139D01*
X162541669Y-92230446D01*
X162598847Y-92190290D01*
X162668657Y-92187422D01*
X162703733Y-92202194D01*
X162755875Y-92234356D01*
X162755880Y-92234358D01*
X162922302Y-92289505D01*
X162922309Y-92289506D01*
X163025019Y-92299999D01*
X163449999Y-92299999D01*
X163450000Y-92299998D01*
X163450000Y-90000000D01*
X163025028Y-90000000D01*
X163025012Y-90000001D01*
X162922302Y-90010494D01*
X162755880Y-90065641D01*
X162755875Y-90065643D01*
X162606654Y-90157684D01*
X162482683Y-90281655D01*
X162478202Y-90287323D01*
X162477163Y-90286501D01*
X162430893Y-90328114D01*
X162361929Y-90339330D01*
X162297849Y-90311482D01*
X162289630Y-90303969D01*
X162243345Y-90257684D01*
X162094124Y-90165643D01*
X162094119Y-90165641D01*
X161927697Y-90110494D01*
X161927690Y-90110493D01*
X161824986Y-90100000D01*
X161612500Y-90100000D01*
X161612500Y-92899999D01*
X161112499Y-92899999D01*
X161112500Y-92899998D01*
X161112500Y-91750000D01*
X160200001Y-91750000D01*
X159400500Y-91750000D01*
X159400499Y-90958674D01*
X159420184Y-90891636D01*
X159436813Y-90870999D01*
X159688541Y-90619271D01*
X159749862Y-90585788D01*
X159800412Y-90585337D01*
X159803864Y-90586023D01*
X159803865Y-90586023D01*
X159803868Y-90586024D01*
X160000000Y-90605341D01*
X160071199Y-90598328D01*
X160139843Y-90611346D01*
X160190554Y-90659411D01*
X160207229Y-90727262D01*
X160206710Y-90734332D01*
X160200000Y-90800009D01*
X160200000Y-91250000D01*
X161112500Y-91250000D01*
X161112500Y-90100000D01*
X161061040Y-90100000D01*
X160994001Y-90080315D01*
X160948246Y-90027511D01*
X160938302Y-89958353D01*
X160942378Y-89940012D01*
X160986024Y-89796132D01*
X161005341Y-89600000D01*
X160986024Y-89403868D01*
X160928814Y-89215273D01*
X160928811Y-89215269D01*
X160928811Y-89215266D01*
X160835913Y-89041467D01*
X160835909Y-89041460D01*
X160710883Y-88889116D01*
X160558539Y-88764090D01*
X160558532Y-88764086D01*
X160384733Y-88671188D01*
X160384727Y-88671186D01*
X160196132Y-88613976D01*
X160196129Y-88613975D01*
X160000000Y-88594659D01*
X159803870Y-88613975D01*
X159709989Y-88642454D01*
X159615273Y-88671186D01*
X159615272Y-88671186D01*
X159615267Y-88671188D01*
X159607447Y-88675368D01*
X159539044Y-88689607D01*
X159473801Y-88664603D01*
X159432433Y-88608296D01*
X159424999Y-88566007D01*
X159424999Y-88300028D01*
X159424998Y-88300013D01*
X159414505Y-88197302D01*
X159359358Y-88030880D01*
X159359356Y-88030875D01*
X159267315Y-87881654D01*
X159143345Y-87757684D01*
X158994124Y-87665643D01*
X158994119Y-87665641D01*
X158827697Y-87610494D01*
X158827690Y-87610493D01*
X158724986Y-87600000D01*
X158512500Y-87600000D01*
X158512500Y-89126000D01*
X158492815Y-89193039D01*
X158440011Y-89238794D01*
X158388500Y-89250000D01*
X158136500Y-89250000D01*
X158069461Y-89230315D01*
X158023706Y-89177511D01*
X158012500Y-89126000D01*
X158012500Y-87600000D01*
X157800029Y-87600000D01*
X157800010Y-87600001D01*
X157712101Y-87608982D01*
X157643408Y-87596212D01*
X157592524Y-87548331D01*
X157575500Y-87485624D01*
X157575500Y-87043676D01*
X157595185Y-86976637D01*
X157611819Y-86955995D01*
X157630996Y-86936818D01*
X157692319Y-86903333D01*
X157718677Y-86900499D01*
X159507871Y-86900499D01*
X159507872Y-86900499D01*
X159567483Y-86894091D01*
X159702331Y-86843796D01*
X159817546Y-86757546D01*
X159903796Y-86642331D01*
X159933338Y-86563123D01*
X159975208Y-86507190D01*
X160040672Y-86482772D01*
X160108945Y-86497623D01*
X160139042Y-86520655D01*
X160171706Y-86554735D01*
X160363316Y-86696450D01*
X160576115Y-86803741D01*
X160803987Y-86873526D01*
X160803985Y-86873526D01*
X160850000Y-86879418D01*
X160850000Y-85735501D01*
X160957685Y-85784680D01*
X161064237Y-85800000D01*
X161135763Y-85800000D01*
X161242315Y-85784680D01*
X161350000Y-85735501D01*
X161350000Y-86878264D01*
X161511434Y-86843473D01*
X161732562Y-86754616D01*
X161935494Y-86629666D01*
X162026012Y-86550000D01*
X165320000Y-86550000D01*
X165320000Y-87547844D01*
X165326401Y-87607372D01*
X165326403Y-87607379D01*
X165376645Y-87742086D01*
X165376649Y-87742093D01*
X165462809Y-87857187D01*
X165462812Y-87857190D01*
X165577906Y-87943350D01*
X165577913Y-87943354D01*
X165712620Y-87993596D01*
X165712627Y-87993598D01*
X165772155Y-87999999D01*
X165772172Y-88000000D01*
X165940000Y-88000000D01*
X165940000Y-86550000D01*
X165320000Y-86550000D01*
X162026012Y-86550000D01*
X162114389Y-86472219D01*
X162114396Y-86472213D01*
X162264102Y-86286805D01*
X162264109Y-86286795D01*
X162380331Y-86078751D01*
X162390489Y-86050000D01*
X165320000Y-86050000D01*
X165940000Y-86050000D01*
X165940000Y-84600000D01*
X165772155Y-84600000D01*
X165712627Y-84606401D01*
X165712620Y-84606403D01*
X165577913Y-84656645D01*
X165577906Y-84656649D01*
X165462812Y-84742809D01*
X165462809Y-84742812D01*
X165376649Y-84857906D01*
X165376645Y-84857913D01*
X165326403Y-84992620D01*
X165326401Y-84992627D01*
X165320000Y-85052155D01*
X165320000Y-86050000D01*
X162390489Y-86050000D01*
X162459722Y-85854052D01*
X162459726Y-85854038D01*
X162499999Y-85619167D01*
X162500000Y-85619156D01*
X162500000Y-85550000D01*
X161533686Y-85550000D01*
X161559493Y-85509844D01*
X161600000Y-85371889D01*
X161600000Y-85228111D01*
X161559493Y-85090156D01*
X161533686Y-85050000D01*
X162500000Y-85050000D01*
X162500000Y-85040527D01*
X162499999Y-85040508D01*
X162484852Y-84862549D01*
X162484851Y-84862546D01*
X162424802Y-84631921D01*
X162326639Y-84414758D01*
X162326637Y-84414755D01*
X162249075Y-84300000D01*
X166344656Y-84300000D01*
X166363972Y-84496129D01*
X166363973Y-84496132D01*
X166421183Y-84684727D01*
X166421184Y-84684730D01*
X166421185Y-84684731D01*
X166425356Y-84692534D01*
X166440000Y-84750991D01*
X166440000Y-88000000D01*
X166607828Y-88000000D01*
X166607844Y-87999999D01*
X166667372Y-87993598D01*
X166667376Y-87993597D01*
X166780951Y-87951236D01*
X166850643Y-87946252D01*
X166867608Y-87951232D01*
X166982517Y-87994091D01*
X167042127Y-88000500D01*
X167877872Y-88000499D01*
X167937483Y-87994091D01*
X168051667Y-87951502D01*
X168121358Y-87946519D01*
X168138330Y-87951502D01*
X168228585Y-87985165D01*
X168252517Y-87994091D01*
X168252516Y-87994091D01*
X168259444Y-87994835D01*
X168312127Y-88000500D01*
X169147872Y-88000499D01*
X169207483Y-87994091D01*
X169321667Y-87951502D01*
X169391358Y-87946519D01*
X169408330Y-87951502D01*
X169498585Y-87985165D01*
X169522517Y-87994091D01*
X169522516Y-87994091D01*
X169529444Y-87994835D01*
X169582127Y-88000500D01*
X170417872Y-88000499D01*
X170477483Y-87994091D01*
X170591667Y-87951502D01*
X170661358Y-87946519D01*
X170678330Y-87951502D01*
X170768585Y-87985165D01*
X170792517Y-87994091D01*
X170792516Y-87994091D01*
X170799444Y-87994835D01*
X170852127Y-88000500D01*
X171687872Y-88000499D01*
X171747483Y-87994091D01*
X171882331Y-87943796D01*
X171997546Y-87857546D01*
X172083796Y-87742331D01*
X172134091Y-87607483D01*
X172140500Y-87547873D01*
X172140500Y-86700002D01*
X175844726Y-86700002D01*
X175847394Y-86749200D01*
X175863573Y-87047612D01*
X175863809Y-87051951D01*
X175863808Y-87051954D01*
X175920833Y-87399793D01*
X175920834Y-87399796D01*
X176015126Y-87739408D01*
X176015127Y-87739410D01*
X176145588Y-88066844D01*
X176145597Y-88066862D01*
X176214700Y-88197203D01*
X176310695Y-88378269D01*
X176504834Y-88664603D01*
X176508498Y-88670006D01*
X176508505Y-88670016D01*
X176726846Y-88927066D01*
X176736686Y-88938650D01*
X176992580Y-89181046D01*
X176992587Y-89181051D01*
X176992589Y-89181053D01*
X177037596Y-89215266D01*
X177273182Y-89394354D01*
X177575202Y-89576074D01*
X177575206Y-89576075D01*
X177575210Y-89576078D01*
X177895088Y-89724070D01*
X177895092Y-89724070D01*
X177895099Y-89724074D01*
X178229122Y-89836619D01*
X178573355Y-89912391D01*
X178923763Y-89950500D01*
X178923769Y-89950500D01*
X179276231Y-89950500D01*
X179276237Y-89950500D01*
X179626645Y-89912391D01*
X179970878Y-89836619D01*
X180304901Y-89724074D01*
X180304908Y-89724070D01*
X180304911Y-89724070D01*
X180624789Y-89576078D01*
X180624798Y-89576074D01*
X180926818Y-89394354D01*
X181207420Y-89181046D01*
X181463314Y-88938650D01*
X181691501Y-88670008D01*
X181889305Y-88378269D01*
X182054407Y-88066854D01*
X182184871Y-87739414D01*
X182205354Y-87665643D01*
X182213180Y-87637453D01*
X182279168Y-87399788D01*
X182336191Y-87051957D01*
X182352606Y-86749200D01*
X182355274Y-86700002D01*
X182355274Y-86699997D01*
X182341604Y-86447870D01*
X182336191Y-86348043D01*
X182279168Y-86000212D01*
X182219326Y-85784680D01*
X182184873Y-85660591D01*
X182184872Y-85660589D01*
X182054411Y-85333155D01*
X182054402Y-85333137D01*
X181998721Y-85228111D01*
X181889305Y-85021731D01*
X181691501Y-84729992D01*
X181691497Y-84729987D01*
X181691494Y-84729983D01*
X181463314Y-84461350D01*
X181414124Y-84414755D01*
X181207420Y-84218954D01*
X181207413Y-84218948D01*
X181207410Y-84218946D01*
X180926815Y-84005644D01*
X180624802Y-83823928D01*
X180624789Y-83823921D01*
X180304911Y-83675929D01*
X180304906Y-83675928D01*
X180304903Y-83675927D01*
X180304901Y-83675926D01*
X180198432Y-83640052D01*
X179970880Y-83563381D01*
X179626643Y-83487608D01*
X179276238Y-83449500D01*
X179276237Y-83449500D01*
X178923763Y-83449500D01*
X178923761Y-83449500D01*
X178573356Y-83487608D01*
X178229119Y-83563381D01*
X177895093Y-83675928D01*
X177895088Y-83675929D01*
X177575210Y-83823921D01*
X177575197Y-83823928D01*
X177273184Y-84005644D01*
X176992589Y-84218946D01*
X176992580Y-84218954D01*
X176736685Y-84461350D01*
X176508505Y-84729983D01*
X176508498Y-84729993D01*
X176310695Y-85021730D01*
X176145597Y-85333137D01*
X176145588Y-85333155D01*
X176015127Y-85660589D01*
X176015126Y-85660591D01*
X175920834Y-86000203D01*
X175920833Y-86000206D01*
X175863808Y-86348045D01*
X175844726Y-86699997D01*
X175844726Y-86700002D01*
X172140500Y-86700002D01*
X172140499Y-85052128D01*
X172134091Y-84992517D01*
X172125300Y-84968948D01*
X172083862Y-84857845D01*
X172078878Y-84788153D01*
X172090686Y-84756058D01*
X172093395Y-84750991D01*
X172128814Y-84684727D01*
X172186024Y-84496132D01*
X172205341Y-84300000D01*
X172186024Y-84103868D01*
X172128814Y-83915273D01*
X172128811Y-83915269D01*
X172128811Y-83915266D01*
X172035913Y-83741467D01*
X172035909Y-83741460D01*
X171910883Y-83589116D01*
X171758539Y-83464090D01*
X171758532Y-83464086D01*
X171584733Y-83371188D01*
X171584727Y-83371186D01*
X171396132Y-83313976D01*
X171396129Y-83313975D01*
X171200000Y-83294659D01*
X171003870Y-83313975D01*
X170815266Y-83371188D01*
X170636089Y-83466961D01*
X170635151Y-83465207D01*
X170577190Y-83483346D01*
X170514368Y-83466099D01*
X170513908Y-83466961D01*
X170510108Y-83464930D01*
X170509813Y-83464849D01*
X170509103Y-83464392D01*
X170334730Y-83371188D01*
X170334724Y-83371186D01*
X170146129Y-83313976D01*
X170146126Y-83313975D01*
X169949997Y-83294659D01*
X169753867Y-83313975D01*
X169565263Y-83371188D01*
X169391464Y-83464086D01*
X169391452Y-83464094D01*
X169353661Y-83495108D01*
X169289351Y-83522421D01*
X169220484Y-83510628D01*
X169196333Y-83495107D01*
X169159899Y-83465207D01*
X169158538Y-83464090D01*
X169158536Y-83464089D01*
X169158532Y-83464086D01*
X168984733Y-83371188D01*
X168984727Y-83371186D01*
X168796132Y-83313976D01*
X168796129Y-83313975D01*
X168600000Y-83294659D01*
X168403870Y-83313975D01*
X168215266Y-83371188D01*
X168036089Y-83466961D01*
X168035151Y-83465207D01*
X167977190Y-83483346D01*
X167914368Y-83466099D01*
X167913908Y-83466961D01*
X167910108Y-83464930D01*
X167909813Y-83464849D01*
X167909103Y-83464392D01*
X167734730Y-83371188D01*
X167734724Y-83371186D01*
X167546129Y-83313976D01*
X167546126Y-83313975D01*
X167349997Y-83294659D01*
X167153867Y-83313975D01*
X166965263Y-83371188D01*
X166791464Y-83464086D01*
X166791457Y-83464090D01*
X166639113Y-83589116D01*
X166514087Y-83741460D01*
X166514083Y-83741467D01*
X166421185Y-83915266D01*
X166363972Y-84103870D01*
X166344656Y-84300000D01*
X162249075Y-84300000D01*
X162193187Y-84217311D01*
X162193185Y-84217309D01*
X162028293Y-84045263D01*
X161836683Y-83903549D01*
X161623884Y-83796257D01*
X161396020Y-83726475D01*
X161350000Y-83720581D01*
X161350000Y-84864498D01*
X161242315Y-84815320D01*
X161135763Y-84800000D01*
X161064237Y-84800000D01*
X160957685Y-84815320D01*
X160850000Y-84864498D01*
X160850000Y-83721734D01*
X160849999Y-83721734D01*
X160688566Y-83756525D01*
X160467437Y-83845383D01*
X160264505Y-83970333D01*
X160131672Y-84087240D01*
X160068342Y-84116754D01*
X159999109Y-84107344D01*
X159945954Y-84061998D01*
X159933567Y-84037489D01*
X159903797Y-83957671D01*
X159903793Y-83957664D01*
X159817547Y-83842455D01*
X159817544Y-83842452D01*
X159702335Y-83756206D01*
X159702328Y-83756202D01*
X159567482Y-83705908D01*
X159567483Y-83705908D01*
X159507883Y-83699501D01*
X159507881Y-83699500D01*
X159507873Y-83699500D01*
X159507864Y-83699500D01*
X157612129Y-83699500D01*
X157612123Y-83699501D01*
X157552516Y-83705908D01*
X157417671Y-83756202D01*
X157417664Y-83756206D01*
X157302455Y-83842452D01*
X157302452Y-83842455D01*
X157216206Y-83957664D01*
X157216202Y-83957671D01*
X157165908Y-84092517D01*
X157159501Y-84152116D01*
X157159500Y-84152135D01*
X157159500Y-85941323D01*
X157139815Y-86008362D01*
X157123181Y-86029004D01*
X156768568Y-86383616D01*
X156747938Y-86400243D01*
X156743876Y-86402854D01*
X156743867Y-86402861D01*
X156711353Y-86440384D01*
X156705329Y-86446854D01*
X156695780Y-86456403D01*
X156687678Y-86467226D01*
X156682132Y-86474108D01*
X156649624Y-86511625D01*
X156649617Y-86511636D01*
X156647615Y-86516020D01*
X156634100Y-86538799D01*
X156631206Y-86542664D01*
X156631200Y-86542675D01*
X156613851Y-86589191D01*
X156610466Y-86597365D01*
X156589835Y-86642543D01*
X156589833Y-86642550D01*
X156589146Y-86647327D01*
X156582598Y-86672986D01*
X156580910Y-86677513D01*
X156580909Y-86677516D01*
X156577365Y-86727054D01*
X156576420Y-86735845D01*
X156574500Y-86749200D01*
X156574500Y-86762690D01*
X156574184Y-86771537D01*
X156570641Y-86821069D01*
X156570641Y-86821073D01*
X156571666Y-86825785D01*
X156574500Y-86852143D01*
X156574500Y-87299736D01*
X156554815Y-87366775D01*
X156502011Y-87412530D01*
X156432853Y-87422474D01*
X156369297Y-87393449D01*
X156362819Y-87387417D01*
X156168973Y-87193571D01*
X156152338Y-87172928D01*
X156149733Y-87168874D01*
X156149731Y-87168872D01*
X156112202Y-87136353D01*
X156105735Y-87130333D01*
X156096181Y-87120779D01*
X156085373Y-87112688D01*
X156078492Y-87107144D01*
X156040961Y-87074623D01*
X156040960Y-87074622D01*
X156040955Y-87074619D01*
X156036571Y-87072617D01*
X156013782Y-87059096D01*
X156009919Y-87056204D01*
X156009917Y-87056203D01*
X155963378Y-87038845D01*
X155955210Y-87035461D01*
X155910045Y-87014835D01*
X155910043Y-87014834D01*
X155905270Y-87014148D01*
X155879588Y-87007593D01*
X155875074Y-87005909D01*
X155825534Y-87002365D01*
X155816747Y-87001420D01*
X155803387Y-86999500D01*
X155803385Y-86999500D01*
X155789896Y-86999500D01*
X155781049Y-86999184D01*
X155731517Y-86995641D01*
X155731513Y-86995641D01*
X155726803Y-86996666D01*
X155700445Y-86999500D01*
X153764300Y-86999500D01*
X153697261Y-86979815D01*
X153651506Y-86927011D01*
X153641562Y-86857853D01*
X153670587Y-86794297D01*
X153718065Y-86760442D01*
X153732562Y-86754616D01*
X153935494Y-86629666D01*
X154114389Y-86472219D01*
X154114396Y-86472213D01*
X154264102Y-86286805D01*
X154264109Y-86286795D01*
X154380331Y-86078751D01*
X154459722Y-85854052D01*
X154459726Y-85854038D01*
X154499999Y-85619167D01*
X154500000Y-85619156D01*
X154500000Y-85550000D01*
X153533686Y-85550000D01*
X153559493Y-85509844D01*
X153600000Y-85371889D01*
X153600000Y-85228111D01*
X153559493Y-85090156D01*
X153533686Y-85050000D01*
X154500000Y-85050000D01*
X154500000Y-85040527D01*
X154499999Y-85040508D01*
X154484852Y-84862549D01*
X154484851Y-84862546D01*
X154424802Y-84631921D01*
X154326639Y-84414758D01*
X154326637Y-84414755D01*
X154193187Y-84217311D01*
X154193185Y-84217309D01*
X154028293Y-84045263D01*
X153836683Y-83903549D01*
X153623884Y-83796257D01*
X153396020Y-83726475D01*
X153350000Y-83720581D01*
X153350000Y-84864498D01*
X153242315Y-84815320D01*
X153135763Y-84800000D01*
X153064237Y-84800000D01*
X152957685Y-84815320D01*
X152850000Y-84864498D01*
X152850000Y-83721734D01*
X152849999Y-83721734D01*
X152688566Y-83756525D01*
X152467437Y-83845383D01*
X152264505Y-83970333D01*
X152131672Y-84087240D01*
X152068342Y-84116754D01*
X151999109Y-84107344D01*
X151945954Y-84061998D01*
X151933567Y-84037489D01*
X151903797Y-83957671D01*
X151903793Y-83957664D01*
X151817547Y-83842455D01*
X151817544Y-83842452D01*
X151702335Y-83756206D01*
X151702328Y-83756202D01*
X151567482Y-83705908D01*
X151567483Y-83705908D01*
X151507883Y-83699501D01*
X151507881Y-83699500D01*
X151507873Y-83699500D01*
X151507864Y-83699500D01*
X149612129Y-83699500D01*
X149612123Y-83699501D01*
X149552516Y-83705908D01*
X149417671Y-83756202D01*
X149417664Y-83756206D01*
X149302455Y-83842452D01*
X149302452Y-83842455D01*
X149216206Y-83957664D01*
X149216202Y-83957671D01*
X149165908Y-84092517D01*
X149159501Y-84152116D01*
X149159500Y-84152135D01*
X149159500Y-86447870D01*
X149159501Y-86447876D01*
X149165908Y-86507483D01*
X149216202Y-86642328D01*
X149216206Y-86642335D01*
X149302452Y-86757544D01*
X149302455Y-86757547D01*
X149417664Y-86843793D01*
X149417671Y-86843797D01*
X149440048Y-86852143D01*
X149552517Y-86894091D01*
X149612127Y-86900500D01*
X149931364Y-86900499D01*
X149998403Y-86920183D01*
X150044158Y-86972987D01*
X150055048Y-87015650D01*
X150059184Y-87073459D01*
X150059500Y-87082308D01*
X150059500Y-87095799D01*
X150061420Y-87109154D01*
X150062365Y-87117946D01*
X150065909Y-87167486D01*
X150067593Y-87172000D01*
X150074148Y-87197682D01*
X150074834Y-87202455D01*
X150095457Y-87247612D01*
X150098845Y-87255790D01*
X150116203Y-87302329D01*
X150119096Y-87306194D01*
X150132617Y-87328983D01*
X150134619Y-87333367D01*
X150134622Y-87333372D01*
X150134623Y-87333373D01*
X150167144Y-87370904D01*
X150172689Y-87377786D01*
X150179898Y-87387417D01*
X150180779Y-87388593D01*
X150190333Y-87398147D01*
X150196353Y-87404614D01*
X150228872Y-87442143D01*
X150228874Y-87442145D01*
X150232928Y-87444750D01*
X150253571Y-87461385D01*
X150598614Y-87806428D01*
X150615246Y-87827066D01*
X150617854Y-87831125D01*
X150617857Y-87831128D01*
X150655400Y-87863658D01*
X150661863Y-87869677D01*
X150671406Y-87879220D01*
X150674376Y-87881794D01*
X150712145Y-87940575D01*
X150712139Y-88010445D01*
X150674360Y-88069220D01*
X150610801Y-88098239D01*
X150593165Y-88099500D01*
X144558676Y-88099500D01*
X144491637Y-88079815D01*
X144470995Y-88063181D01*
X143509891Y-87102077D01*
X143476406Y-87040754D01*
X143481390Y-86971062D01*
X143523262Y-86915129D01*
X143560548Y-86897697D01*
X143560215Y-86896802D01*
X143664642Y-86857853D01*
X143702331Y-86843796D01*
X143817546Y-86757546D01*
X143903796Y-86642331D01*
X143933338Y-86563123D01*
X143975208Y-86507190D01*
X144040672Y-86482772D01*
X144108945Y-86497623D01*
X144139042Y-86520655D01*
X144171706Y-86554735D01*
X144363316Y-86696450D01*
X144576115Y-86803741D01*
X144803987Y-86873526D01*
X144803985Y-86873526D01*
X144850000Y-86879418D01*
X144850000Y-85735501D01*
X144957685Y-85784680D01*
X145064237Y-85800000D01*
X145135763Y-85800000D01*
X145242315Y-85784680D01*
X145350000Y-85735501D01*
X145350000Y-86878264D01*
X145511434Y-86843473D01*
X145732562Y-86754616D01*
X145935494Y-86629666D01*
X146114389Y-86472219D01*
X146114396Y-86472213D01*
X146264102Y-86286805D01*
X146264109Y-86286795D01*
X146380331Y-86078751D01*
X146459722Y-85854052D01*
X146459726Y-85854038D01*
X146499999Y-85619167D01*
X146500000Y-85619156D01*
X146500000Y-85550000D01*
X145533686Y-85550000D01*
X145559493Y-85509844D01*
X145600000Y-85371889D01*
X145600000Y-85228111D01*
X145559493Y-85090156D01*
X145533686Y-85050000D01*
X146500000Y-85050000D01*
X146500000Y-85040527D01*
X146499999Y-85040508D01*
X146484852Y-84862549D01*
X146484851Y-84862546D01*
X146424802Y-84631921D01*
X146326639Y-84414758D01*
X146326637Y-84414755D01*
X146193187Y-84217311D01*
X146193185Y-84217309D01*
X146028293Y-84045263D01*
X145836683Y-83903549D01*
X145623884Y-83796257D01*
X145396020Y-83726475D01*
X145350000Y-83720581D01*
X145350000Y-84864498D01*
X145242315Y-84815320D01*
X145135763Y-84800000D01*
X145064237Y-84800000D01*
X144957685Y-84815320D01*
X144850000Y-84864498D01*
X144850000Y-83721734D01*
X144849999Y-83721734D01*
X144688566Y-83756525D01*
X144467437Y-83845383D01*
X144264505Y-83970333D01*
X144131672Y-84087240D01*
X144068342Y-84116754D01*
X143999109Y-84107344D01*
X143945954Y-84061998D01*
X143933567Y-84037489D01*
X143903797Y-83957671D01*
X143903793Y-83957664D01*
X143817547Y-83842455D01*
X143817544Y-83842452D01*
X143702335Y-83756206D01*
X143702328Y-83756202D01*
X143567482Y-83705908D01*
X143567483Y-83705908D01*
X143507883Y-83699501D01*
X143507881Y-83699500D01*
X143507873Y-83699500D01*
X143507864Y-83699500D01*
X141612129Y-83699500D01*
X141612123Y-83699501D01*
X141552516Y-83705908D01*
X141417671Y-83756202D01*
X141417664Y-83756206D01*
X141302455Y-83842452D01*
X141302452Y-83842455D01*
X141216206Y-83957664D01*
X141216202Y-83957671D01*
X141165908Y-84092517D01*
X141159501Y-84152116D01*
X141159500Y-84152135D01*
X141159500Y-86447870D01*
X141159501Y-86447876D01*
X141165908Y-86507483D01*
X141216202Y-86642328D01*
X141216206Y-86642335D01*
X141302452Y-86757544D01*
X141302455Y-86757547D01*
X141417664Y-86843793D01*
X141417671Y-86843797D01*
X141440048Y-86852143D01*
X141552517Y-86894091D01*
X141612127Y-86900500D01*
X141952729Y-86900499D01*
X142019768Y-86920183D01*
X142065523Y-86972987D01*
X142071730Y-86994125D01*
X142072336Y-86993948D01*
X142074833Y-87002454D01*
X142095457Y-87047612D01*
X142098845Y-87055790D01*
X142116203Y-87102329D01*
X142119096Y-87106194D01*
X142132617Y-87128983D01*
X142134619Y-87133367D01*
X142134622Y-87133372D01*
X142134623Y-87133373D01*
X142167144Y-87170904D01*
X142172688Y-87177785D01*
X142180779Y-87188593D01*
X142190333Y-87198147D01*
X142196353Y-87204614D01*
X142228872Y-87242143D01*
X142228874Y-87242145D01*
X142232928Y-87244750D01*
X142253571Y-87261385D01*
X143898614Y-88906428D01*
X143915246Y-88927066D01*
X143917854Y-88931125D01*
X143917857Y-88931128D01*
X143955400Y-88963658D01*
X143961863Y-88969677D01*
X143971407Y-88979221D01*
X143971413Y-88979226D01*
X143971416Y-88979228D01*
X143982207Y-88987306D01*
X143989100Y-88992860D01*
X144026627Y-89025377D01*
X144031010Y-89027379D01*
X144053807Y-89040905D01*
X144057669Y-89043796D01*
X144104212Y-89061155D01*
X144112360Y-89064530D01*
X144139673Y-89077004D01*
X144157540Y-89085164D01*
X144157541Y-89085164D01*
X144157543Y-89085165D01*
X144162312Y-89085850D01*
X144188002Y-89092407D01*
X144192517Y-89094091D01*
X144242049Y-89097633D01*
X144250843Y-89098579D01*
X144264201Y-89100500D01*
X144277692Y-89100500D01*
X144286538Y-89100815D01*
X144336073Y-89104359D01*
X144340785Y-89103334D01*
X144367143Y-89100500D01*
X151141324Y-89100500D01*
X151208363Y-89120185D01*
X151229005Y-89136819D01*
X152563181Y-90470995D01*
X152596666Y-90532318D01*
X152599500Y-90558676D01*
X152599500Y-90738807D01*
X152579815Y-90805846D01*
X152527011Y-90851601D01*
X152457853Y-90861545D01*
X152439505Y-90857468D01*
X152296130Y-90813975D01*
X152100000Y-90794659D01*
X151903870Y-90813975D01*
X151715266Y-90871188D01*
X151541467Y-90964086D01*
X151541460Y-90964090D01*
X151389116Y-91089116D01*
X151264090Y-91241460D01*
X151264086Y-91241467D01*
X151171188Y-91415266D01*
X151113975Y-91603870D01*
X151094659Y-91800000D01*
X151113975Y-91996129D01*
X151123995Y-92029159D01*
X151166821Y-92170339D01*
X151171188Y-92184733D01*
X151264086Y-92358532D01*
X151264090Y-92358539D01*
X151389116Y-92510883D01*
X151538188Y-92633223D01*
X151577522Y-92690968D01*
X151579393Y-92760813D01*
X151575705Y-92772408D01*
X151530909Y-92892514D01*
X151530908Y-92892516D01*
X151524501Y-92952116D01*
X151524500Y-92952135D01*
X151524500Y-94250500D01*
X151504815Y-94317539D01*
X151452011Y-94363294D01*
X151400500Y-94374500D01*
X150102129Y-94374500D01*
X150102123Y-94374501D01*
X150042516Y-94380908D01*
X149907671Y-94431202D01*
X149907664Y-94431206D01*
X149785355Y-94522768D01*
X149783609Y-94520436D01*
X149735163Y-94546862D01*
X149665473Y-94541846D01*
X149621179Y-94513365D01*
X146935238Y-91827424D01*
X146901753Y-91766101D01*
X146899392Y-91750558D01*
X146885635Y-91593308D01*
X146831084Y-91389721D01*
X146826741Y-91373511D01*
X146826738Y-91373502D01*
X146797203Y-91310165D01*
X146730568Y-91167266D01*
X146600047Y-90980861D01*
X146600045Y-90980858D01*
X146439141Y-90819954D01*
X146252734Y-90689432D01*
X146252732Y-90689431D01*
X146046497Y-90593261D01*
X146046488Y-90593258D01*
X145826697Y-90534366D01*
X145826687Y-90534364D01*
X145656785Y-90519500D01*
X145656784Y-90519500D01*
X144743216Y-90519500D01*
X144743215Y-90519500D01*
X144573312Y-90534364D01*
X144573302Y-90534366D01*
X144353511Y-90593258D01*
X144353502Y-90593261D01*
X144147267Y-90689431D01*
X144147265Y-90689432D01*
X143960858Y-90819954D01*
X143799954Y-90980858D01*
X143669432Y-91167265D01*
X143669431Y-91167267D01*
X143573261Y-91373502D01*
X143573258Y-91373511D01*
X143514366Y-91593302D01*
X143514364Y-91593313D01*
X143494532Y-91819998D01*
X143494532Y-91820001D01*
X143514364Y-92046686D01*
X143514366Y-92046697D01*
X143573258Y-92266488D01*
X143573261Y-92266497D01*
X143669431Y-92472732D01*
X143669432Y-92472734D01*
X143799954Y-92659141D01*
X143960858Y-92820045D01*
X143981299Y-92834358D01*
X144147266Y-92950568D01*
X144205275Y-92977618D01*
X144257714Y-93023791D01*
X144276866Y-93090984D01*
X144256650Y-93157865D01*
X144205275Y-93202382D01*
X144147267Y-93229431D01*
X144147265Y-93229432D01*
X143960858Y-93359954D01*
X143799954Y-93520858D01*
X143669432Y-93707265D01*
X143669431Y-93707267D01*
X143573261Y-93913502D01*
X143573258Y-93913511D01*
X143514366Y-94133302D01*
X143514364Y-94133313D01*
X143494532Y-94359998D01*
X143494532Y-94360001D01*
X143514364Y-94586686D01*
X143514366Y-94586697D01*
X143573258Y-94806488D01*
X143573261Y-94806497D01*
X143669431Y-95012732D01*
X143669432Y-95012734D01*
X143799954Y-95199141D01*
X143960858Y-95360045D01*
X143960861Y-95360047D01*
X144147266Y-95490568D01*
X144205275Y-95517618D01*
X144257714Y-95563791D01*
X144276866Y-95630984D01*
X144256650Y-95697865D01*
X144205275Y-95742382D01*
X144147267Y-95769431D01*
X144147265Y-95769432D01*
X143960858Y-95899954D01*
X143799954Y-96060858D01*
X143669432Y-96247265D01*
X143669431Y-96247267D01*
X143573261Y-96453502D01*
X143573258Y-96453511D01*
X143514366Y-96673302D01*
X143514364Y-96673313D01*
X143494532Y-96899998D01*
X143494532Y-96900001D01*
X143514364Y-97126686D01*
X143514366Y-97126697D01*
X143573258Y-97346488D01*
X143573261Y-97346497D01*
X143669431Y-97552732D01*
X143669432Y-97552734D01*
X143799954Y-97739141D01*
X143960858Y-97900045D01*
X143960861Y-97900047D01*
X144147266Y-98030568D01*
X144353504Y-98126739D01*
X144353506Y-98126739D01*
X144353513Y-98126742D01*
X144425481Y-98146025D01*
X144485142Y-98182389D01*
X144515672Y-98245236D01*
X144507378Y-98314611D01*
X144464513Y-98367375D01*
X144360856Y-98439956D01*
X144199954Y-98600858D01*
X144069432Y-98787265D01*
X144069431Y-98787267D01*
X143973261Y-98993502D01*
X143973258Y-98993511D01*
X143914366Y-99213302D01*
X143914364Y-99213313D01*
X143894532Y-99439998D01*
X143894532Y-99440001D01*
X143914364Y-99666686D01*
X143914366Y-99666697D01*
X143973258Y-99886488D01*
X143973261Y-99886497D01*
X144069431Y-100092732D01*
X144069432Y-100092734D01*
X144199954Y-100279141D01*
X144360858Y-100440045D01*
X144464512Y-100512624D01*
X144508137Y-100567201D01*
X144515331Y-100636699D01*
X144483808Y-100699054D01*
X144425483Y-100733974D01*
X144353509Y-100753259D01*
X144353502Y-100753261D01*
X144147267Y-100849431D01*
X144147265Y-100849432D01*
X143960858Y-100979954D01*
X143799954Y-101140858D01*
X143669432Y-101327265D01*
X143669431Y-101327267D01*
X143573261Y-101533502D01*
X143573258Y-101533511D01*
X143514366Y-101753302D01*
X143514364Y-101753313D01*
X143494532Y-101979998D01*
X143494532Y-101980001D01*
X143514364Y-102206686D01*
X143514366Y-102206697D01*
X143573258Y-102426488D01*
X143573261Y-102426497D01*
X143669431Y-102632732D01*
X143669432Y-102632734D01*
X143799954Y-102819141D01*
X143960858Y-102980045D01*
X143973640Y-102988995D01*
X144147266Y-103110568D01*
X144205275Y-103137618D01*
X144257714Y-103183791D01*
X144276866Y-103250984D01*
X144256650Y-103317865D01*
X144205275Y-103362382D01*
X144147267Y-103389431D01*
X144147265Y-103389432D01*
X143960858Y-103519954D01*
X143799954Y-103680858D01*
X143669432Y-103867265D01*
X143669431Y-103867267D01*
X143573261Y-104073502D01*
X143573258Y-104073511D01*
X143514366Y-104293302D01*
X143514364Y-104293313D01*
X143494532Y-104519998D01*
X143494532Y-104520001D01*
X143514364Y-104746686D01*
X143514366Y-104746697D01*
X143573258Y-104966488D01*
X143573261Y-104966497D01*
X143669431Y-105172732D01*
X143669432Y-105172734D01*
X143799954Y-105359141D01*
X143960858Y-105520045D01*
X143960861Y-105520047D01*
X144147266Y-105650568D01*
X144205275Y-105677618D01*
X144257714Y-105723791D01*
X144276866Y-105790984D01*
X144256650Y-105857865D01*
X144205275Y-105902381D01*
X144188272Y-105910310D01*
X144147267Y-105929431D01*
X144147265Y-105929432D01*
X143960858Y-106059954D01*
X143799954Y-106220858D01*
X143669432Y-106407265D01*
X143669431Y-106407267D01*
X143573261Y-106613502D01*
X143573258Y-106613511D01*
X143514366Y-106833302D01*
X143514364Y-106833313D01*
X143494532Y-107059998D01*
X143494532Y-107060001D01*
X143514364Y-107286686D01*
X143514366Y-107286697D01*
X143573258Y-107506488D01*
X143573261Y-107506497D01*
X143669431Y-107712732D01*
X143669432Y-107712734D01*
X143799954Y-107899141D01*
X143960858Y-108060045D01*
X143985462Y-108077273D01*
X144029087Y-108131849D01*
X144036281Y-108201348D01*
X144004758Y-108263703D01*
X143944529Y-108299117D01*
X143927593Y-108302138D01*
X143892516Y-108305908D01*
X143757671Y-108356202D01*
X143757664Y-108356206D01*
X143642455Y-108442452D01*
X143642452Y-108442455D01*
X143556206Y-108557664D01*
X143556202Y-108557671D01*
X143505908Y-108692517D01*
X143499501Y-108752116D01*
X143499501Y-108752123D01*
X143499500Y-108752135D01*
X143499500Y-110447870D01*
X143499501Y-110447876D01*
X143505908Y-110507483D01*
X143556202Y-110642328D01*
X143556206Y-110642335D01*
X143642452Y-110757544D01*
X143642455Y-110757547D01*
X143757664Y-110843793D01*
X143757671Y-110843797D01*
X143892517Y-110894091D01*
X143892516Y-110894091D01*
X143899444Y-110894835D01*
X143952127Y-110900500D01*
X145892323Y-110900499D01*
X145959362Y-110920184D01*
X146005117Y-110972987D01*
X146015061Y-111042146D01*
X145986036Y-111105702D01*
X145980004Y-111112180D01*
X141593568Y-115498616D01*
X141572938Y-115515243D01*
X141568876Y-115517854D01*
X141568867Y-115517861D01*
X141536353Y-115555384D01*
X141530329Y-115561854D01*
X141520780Y-115571403D01*
X141512678Y-115582226D01*
X141507132Y-115589108D01*
X141474624Y-115626625D01*
X141474617Y-115626636D01*
X141472615Y-115631020D01*
X141459100Y-115653799D01*
X141456206Y-115657664D01*
X141456200Y-115657675D01*
X141438851Y-115704191D01*
X141435466Y-115712365D01*
X141414835Y-115757543D01*
X141414833Y-115757550D01*
X141414146Y-115762327D01*
X141407598Y-115787986D01*
X141405910Y-115792513D01*
X141405909Y-115792516D01*
X141402365Y-115842054D01*
X141401420Y-115850842D01*
X141400460Y-115857523D01*
X141371441Y-115921081D01*
X141349648Y-115940893D01*
X141176052Y-116064509D01*
X141176040Y-116064520D01*
X141031016Y-116216618D01*
X141004458Y-116257943D01*
X140951653Y-116303697D01*
X140882494Y-116313640D01*
X140818939Y-116284614D01*
X140802673Y-116267554D01*
X140700094Y-116137116D01*
X140700090Y-116137112D01*
X140693292Y-116131221D01*
X140655521Y-116072441D01*
X140650500Y-116037512D01*
X140650500Y-115863705D01*
X140651809Y-115845735D01*
X140655289Y-115821974D01*
X140650972Y-115772635D01*
X140650500Y-115761826D01*
X140650500Y-115756296D01*
X140650500Y-115756291D01*
X140646898Y-115725478D01*
X140646534Y-115721915D01*
X140645257Y-115707314D01*
X140639998Y-115647202D01*
X140639995Y-115647195D01*
X140638538Y-115640133D01*
X140638597Y-115640120D01*
X140636967Y-115632764D01*
X140636908Y-115632779D01*
X140635241Y-115625747D01*
X140635241Y-115625745D01*
X140609563Y-115555196D01*
X140608424Y-115551918D01*
X140584814Y-115480665D01*
X140584813Y-115480663D01*
X140581763Y-115474121D01*
X140581817Y-115474095D01*
X140578533Y-115467312D01*
X140578480Y-115467340D01*
X140575238Y-115460885D01*
X140575237Y-115460883D01*
X140533994Y-115398176D01*
X140532118Y-115395232D01*
X140492711Y-115331344D01*
X140492708Y-115331341D01*
X140488233Y-115325681D01*
X140488280Y-115325643D01*
X140483515Y-115319794D01*
X140483470Y-115319833D01*
X140478834Y-115314308D01*
X140464970Y-115301228D01*
X140424258Y-115262817D01*
X140421672Y-115260304D01*
X140113229Y-114951861D01*
X140101449Y-114938230D01*
X140087110Y-114918970D01*
X140049151Y-114887119D01*
X140041186Y-114879818D01*
X140037280Y-114875911D01*
X140012943Y-114856668D01*
X140010147Y-114854390D01*
X139952714Y-114806198D01*
X139946680Y-114802229D01*
X139946712Y-114802180D01*
X139940353Y-114798128D01*
X139940322Y-114798179D01*
X139934177Y-114794388D01*
X139918075Y-114786880D01*
X139865637Y-114740707D01*
X139846486Y-114673513D01*
X139866703Y-114606632D01*
X139919869Y-114561299D01*
X139970479Y-114550499D01*
X140797872Y-114550499D01*
X140857483Y-114544091D01*
X140992331Y-114493796D01*
X141107546Y-114407546D01*
X141193796Y-114292331D01*
X141244091Y-114157483D01*
X141250500Y-114097873D01*
X141250499Y-112302128D01*
X141244091Y-112242517D01*
X141242810Y-112239083D01*
X141193797Y-112107671D01*
X141193793Y-112107664D01*
X141107547Y-111992455D01*
X141107544Y-111992452D01*
X140992335Y-111906206D01*
X140992328Y-111906202D01*
X140857482Y-111855908D01*
X140857483Y-111855908D01*
X140797883Y-111849501D01*
X140797881Y-111849500D01*
X140797873Y-111849500D01*
X140797864Y-111849500D01*
X139002129Y-111849500D01*
X139002123Y-111849501D01*
X138942516Y-111855908D01*
X138807671Y-111906202D01*
X138807664Y-111906206D01*
X138692455Y-111992452D01*
X138692452Y-111992455D01*
X138606206Y-112107664D01*
X138606203Y-112107669D01*
X138557189Y-112239083D01*
X138515317Y-112295016D01*
X138449853Y-112319433D01*
X138381580Y-112304581D01*
X138353326Y-112283430D01*
X138231402Y-112161506D01*
X138231395Y-112161501D01*
X138225155Y-112157132D01*
X138154518Y-112107671D01*
X138037834Y-112025967D01*
X138037830Y-112025965D01*
X137973853Y-111996132D01*
X137823663Y-111926097D01*
X137823659Y-111926096D01*
X137823655Y-111926094D01*
X137595413Y-111864938D01*
X137595403Y-111864936D01*
X137360001Y-111844341D01*
X137359999Y-111844341D01*
X137124596Y-111864936D01*
X137124586Y-111864938D01*
X136896344Y-111926094D01*
X136896335Y-111926098D01*
X136682171Y-112025964D01*
X136682169Y-112025965D01*
X136488597Y-112161505D01*
X136321505Y-112328597D01*
X136185965Y-112522169D01*
X136185964Y-112522171D01*
X136086098Y-112736335D01*
X136086094Y-112736344D01*
X136024938Y-112964586D01*
X136024936Y-112964596D01*
X136004341Y-113199999D01*
X136004341Y-113200000D01*
X136024936Y-113435403D01*
X136024938Y-113435413D01*
X136086094Y-113663655D01*
X136086096Y-113663659D01*
X136086097Y-113663663D01*
X136184055Y-113873733D01*
X136185965Y-113877830D01*
X136185967Y-113877834D01*
X136263730Y-113988890D01*
X136321505Y-114071401D01*
X136488599Y-114238495D01*
X136567710Y-114293889D01*
X136682165Y-114374032D01*
X136682167Y-114374033D01*
X136682170Y-114374035D01*
X136846403Y-114450618D01*
X136898842Y-114496790D01*
X136917994Y-114563984D01*
X136897778Y-114630865D01*
X136844613Y-114676200D01*
X136793998Y-114687000D01*
X135492508Y-114687000D01*
X135425469Y-114667315D01*
X135386969Y-114628097D01*
X135342712Y-114556344D01*
X135218656Y-114432288D01*
X135069334Y-114340186D01*
X134902797Y-114285001D01*
X134902795Y-114285000D01*
X134800010Y-114274500D01*
X133399998Y-114274500D01*
X133399981Y-114274501D01*
X133297203Y-114285000D01*
X133297200Y-114285001D01*
X133130668Y-114340185D01*
X133130663Y-114340187D01*
X132981342Y-114432289D01*
X132857289Y-114556342D01*
X132765187Y-114705663D01*
X132765185Y-114705668D01*
X132749809Y-114752071D01*
X132710001Y-114872203D01*
X132710001Y-114872204D01*
X132710000Y-114872204D01*
X132699500Y-114974983D01*
X132699500Y-115900001D01*
X132251344Y-115900001D01*
X132221501Y-115792516D01*
X132184873Y-115660591D01*
X132184872Y-115660589D01*
X132176716Y-115640120D01*
X132137138Y-115540785D01*
X132054411Y-115333155D01*
X132054402Y-115333137D01*
X131889305Y-115021731D01*
X131691501Y-114729992D01*
X131691497Y-114729987D01*
X131691494Y-114729983D01*
X131463314Y-114461350D01*
X131406512Y-114407544D01*
X131207420Y-114218954D01*
X131207413Y-114218948D01*
X131207410Y-114218946D01*
X131018041Y-114074992D01*
X130926818Y-114005646D01*
X130898971Y-113988891D01*
X130624802Y-113823928D01*
X130624789Y-113823921D01*
X130304911Y-113675929D01*
X130304906Y-113675928D01*
X130304903Y-113675927D01*
X130304901Y-113675926D01*
X130165080Y-113628815D01*
X129970880Y-113563381D01*
X129626643Y-113487608D01*
X129276238Y-113449500D01*
X129276237Y-113449500D01*
X128923763Y-113449500D01*
X128923761Y-113449500D01*
X128573356Y-113487608D01*
X128229119Y-113563381D01*
X127895093Y-113675928D01*
X127895088Y-113675929D01*
X127575210Y-113823921D01*
X127575197Y-113823928D01*
X127273184Y-114005644D01*
X126992589Y-114218946D01*
X126992580Y-114218954D01*
X126736685Y-114461350D01*
X126508505Y-114729983D01*
X126508498Y-114729993D01*
X126310695Y-115021730D01*
X126145597Y-115333137D01*
X126145588Y-115333155D01*
X126015127Y-115660589D01*
X126015126Y-115660591D01*
X125920834Y-116000203D01*
X125920833Y-116000206D01*
X125863808Y-116348045D01*
X125844726Y-116699997D01*
X125844726Y-116700002D01*
X125300500Y-116700002D01*
X125300500Y-110647870D01*
X126499500Y-110647870D01*
X126499501Y-110647876D01*
X126505908Y-110707483D01*
X126556202Y-110842328D01*
X126556206Y-110842335D01*
X126642452Y-110957544D01*
X126642455Y-110957547D01*
X126757664Y-111043793D01*
X126757671Y-111043797D01*
X126892517Y-111094091D01*
X126892516Y-111094091D01*
X126899444Y-111094835D01*
X126952127Y-111100500D01*
X129247872Y-111100499D01*
X129307483Y-111094091D01*
X129442331Y-111043796D01*
X129557546Y-110957546D01*
X129643796Y-110842331D01*
X129694091Y-110707483D01*
X129700500Y-110647873D01*
X129700499Y-109600001D01*
X131556532Y-109600001D01*
X131576364Y-109826686D01*
X131576366Y-109826697D01*
X131635258Y-110046488D01*
X131635261Y-110046497D01*
X131731431Y-110252732D01*
X131731432Y-110252734D01*
X131861954Y-110439141D01*
X132022858Y-110600045D01*
X132022861Y-110600047D01*
X132209266Y-110730568D01*
X132415504Y-110826739D01*
X132415509Y-110826740D01*
X132415511Y-110826741D01*
X132468415Y-110840916D01*
X132635308Y-110885635D01*
X132805214Y-110900499D01*
X132805215Y-110900500D01*
X132805216Y-110900500D01*
X133718785Y-110900500D01*
X133718785Y-110900499D01*
X133888692Y-110885635D01*
X134108496Y-110826739D01*
X134314734Y-110730568D01*
X134501139Y-110600047D01*
X134662047Y-110439139D01*
X134792568Y-110252734D01*
X134888739Y-110046496D01*
X134947635Y-109826692D01*
X134966735Y-109608381D01*
X134967468Y-109600001D01*
X134967468Y-109599998D01*
X134959068Y-109503988D01*
X134947635Y-109373308D01*
X134895789Y-109179815D01*
X134888741Y-109153511D01*
X134888738Y-109153502D01*
X134844136Y-109057853D01*
X134792568Y-108947266D01*
X134662047Y-108760861D01*
X134662045Y-108760858D01*
X134501141Y-108599954D01*
X134314734Y-108469432D01*
X134314732Y-108469431D01*
X134264900Y-108446194D01*
X134256132Y-108442105D01*
X134203694Y-108395934D01*
X134184542Y-108328740D01*
X134204758Y-108261859D01*
X134256134Y-108217341D01*
X134314484Y-108190132D01*
X134500820Y-108059657D01*
X134661657Y-107898820D01*
X134792134Y-107712482D01*
X134888265Y-107506326D01*
X134888269Y-107506317D01*
X134940872Y-107310000D01*
X133577686Y-107310000D01*
X133589641Y-107298045D01*
X133647165Y-107185148D01*
X133666986Y-107060000D01*
X133647165Y-106934852D01*
X133589641Y-106821955D01*
X133577686Y-106810000D01*
X134940872Y-106810000D01*
X134940872Y-106809999D01*
X134888269Y-106613682D01*
X134888265Y-106613673D01*
X134792134Y-106407517D01*
X134661657Y-106221179D01*
X134500820Y-106060342D01*
X134314482Y-105929865D01*
X134256133Y-105902657D01*
X134203694Y-105856484D01*
X134184542Y-105789291D01*
X134204758Y-105722410D01*
X134256129Y-105677895D01*
X134314734Y-105650568D01*
X134501139Y-105520047D01*
X134662047Y-105359139D01*
X134792568Y-105172734D01*
X134888739Y-104966496D01*
X134947635Y-104746692D01*
X134967468Y-104520000D01*
X134947635Y-104293308D01*
X134888739Y-104073504D01*
X134792568Y-103867266D01*
X134668336Y-103689842D01*
X134662045Y-103680858D01*
X134501141Y-103519954D01*
X134314734Y-103389432D01*
X134314728Y-103389429D01*
X134256725Y-103362382D01*
X134204285Y-103316210D01*
X134185133Y-103249017D01*
X134205348Y-103182135D01*
X134256725Y-103137618D01*
X134314734Y-103110568D01*
X134501139Y-102980047D01*
X134662047Y-102819139D01*
X134792568Y-102632734D01*
X134888739Y-102426496D01*
X134947635Y-102206692D01*
X134967468Y-101980000D01*
X134947635Y-101753308D01*
X134896140Y-101561125D01*
X134888741Y-101533511D01*
X134888738Y-101533502D01*
X134881787Y-101518596D01*
X134792568Y-101327266D01*
X134662047Y-101140861D01*
X134662045Y-101140858D01*
X134501141Y-100979954D01*
X134314734Y-100849432D01*
X134314728Y-100849429D01*
X134256725Y-100822382D01*
X134204285Y-100776210D01*
X134185133Y-100709017D01*
X134205348Y-100642135D01*
X134256725Y-100597618D01*
X134314734Y-100570568D01*
X134501139Y-100440047D01*
X134662047Y-100279139D01*
X134792568Y-100092734D01*
X134888739Y-99886496D01*
X134947635Y-99666692D01*
X134967468Y-99440000D01*
X134965985Y-99423054D01*
X134959264Y-99346224D01*
X134947635Y-99213308D01*
X134888739Y-98993504D01*
X134792568Y-98787266D01*
X134662047Y-98600861D01*
X134662045Y-98600858D01*
X134501141Y-98439954D01*
X134314734Y-98309432D01*
X134314728Y-98309429D01*
X134256725Y-98282382D01*
X134204285Y-98236210D01*
X134185133Y-98169017D01*
X134205348Y-98102135D01*
X134256725Y-98057618D01*
X134314734Y-98030568D01*
X134501139Y-97900047D01*
X134662047Y-97739139D01*
X134792568Y-97552734D01*
X134888739Y-97346496D01*
X134947635Y-97126692D01*
X134967407Y-96900700D01*
X134967468Y-96900001D01*
X134967468Y-96899998D01*
X134957337Y-96784203D01*
X134947635Y-96673308D01*
X134888739Y-96453504D01*
X134792568Y-96247266D01*
X134662047Y-96060861D01*
X134662045Y-96060858D01*
X134501141Y-95899954D01*
X134314734Y-95769432D01*
X134314728Y-95769429D01*
X134287038Y-95756517D01*
X134256724Y-95742381D01*
X134204285Y-95696210D01*
X134185133Y-95629017D01*
X134205348Y-95562135D01*
X134256725Y-95517618D01*
X134314734Y-95490568D01*
X134501139Y-95360047D01*
X134662047Y-95199139D01*
X134792568Y-95012734D01*
X134888739Y-94806496D01*
X134947635Y-94586692D01*
X134965523Y-94382231D01*
X134967468Y-94360001D01*
X134967468Y-94359998D01*
X134952254Y-94186103D01*
X134947635Y-94133308D01*
X134889268Y-93915477D01*
X134888741Y-93913511D01*
X134888738Y-93913502D01*
X134860489Y-93852923D01*
X134792568Y-93707266D01*
X134668914Y-93530668D01*
X134662045Y-93520858D01*
X134501141Y-93359954D01*
X134314734Y-93229432D01*
X134314732Y-93229431D01*
X134305285Y-93225026D01*
X134265131Y-93206301D01*
X134212694Y-93160131D01*
X134193542Y-93092937D01*
X134213758Y-93026056D01*
X134265134Y-92981539D01*
X134332479Y-92950135D01*
X134332481Y-92950134D01*
X134518820Y-92819657D01*
X134679657Y-92658820D01*
X134810134Y-92472482D01*
X134906265Y-92266326D01*
X134906269Y-92266317D01*
X134958872Y-92070000D01*
X133595686Y-92070000D01*
X133607641Y-92058045D01*
X133665165Y-91945148D01*
X133684986Y-91820000D01*
X133665165Y-91694852D01*
X133607641Y-91581955D01*
X133595686Y-91570000D01*
X134958872Y-91570000D01*
X134958872Y-91569999D01*
X134906269Y-91373682D01*
X134906265Y-91373673D01*
X134810134Y-91167517D01*
X134679657Y-90981179D01*
X134518820Y-90820342D01*
X134332482Y-90689865D01*
X134126326Y-90593734D01*
X134126317Y-90593730D01*
X133906610Y-90534860D01*
X133906599Y-90534858D01*
X133736766Y-90520000D01*
X133530000Y-90520000D01*
X133530000Y-91504314D01*
X133518045Y-91492359D01*
X133405148Y-91434835D01*
X133311481Y-91420000D01*
X133248519Y-91420000D01*
X133154852Y-91434835D01*
X133041955Y-91492359D01*
X133030000Y-91504314D01*
X133030000Y-90520000D01*
X132823233Y-90520000D01*
X132653400Y-90534858D01*
X132653389Y-90534860D01*
X132433682Y-90593730D01*
X132433673Y-90593734D01*
X132227517Y-90689865D01*
X132041179Y-90820342D01*
X131880342Y-90981179D01*
X131749865Y-91167517D01*
X131653734Y-91373673D01*
X131653730Y-91373682D01*
X131601127Y-91569999D01*
X131601128Y-91570000D01*
X132964314Y-91570000D01*
X132952359Y-91581955D01*
X132894835Y-91694852D01*
X132875014Y-91820000D01*
X132894835Y-91945148D01*
X132952359Y-92058045D01*
X132964314Y-92070000D01*
X131601128Y-92070000D01*
X131653730Y-92266317D01*
X131653734Y-92266326D01*
X131749865Y-92472482D01*
X131880342Y-92658820D01*
X132041179Y-92819657D01*
X132227515Y-92950132D01*
X132276865Y-92973144D01*
X132329304Y-93019316D01*
X132348457Y-93086510D01*
X132328242Y-93153391D01*
X132276867Y-93197908D01*
X132209268Y-93229431D01*
X132209264Y-93229433D01*
X132022858Y-93359954D01*
X131861954Y-93520858D01*
X131731432Y-93707265D01*
X131731431Y-93707267D01*
X131635261Y-93913502D01*
X131635258Y-93913511D01*
X131576366Y-94133302D01*
X131576364Y-94133313D01*
X131556532Y-94359998D01*
X131556532Y-94360001D01*
X131576364Y-94586686D01*
X131576366Y-94586697D01*
X131635258Y-94806488D01*
X131635261Y-94806497D01*
X131731431Y-95012732D01*
X131731432Y-95012734D01*
X131861954Y-95199141D01*
X132022858Y-95360045D01*
X132022861Y-95360047D01*
X132209266Y-95490568D01*
X132267275Y-95517618D01*
X132319714Y-95563791D01*
X132338866Y-95630984D01*
X132318650Y-95697865D01*
X132267275Y-95742382D01*
X132209267Y-95769431D01*
X132209265Y-95769432D01*
X132022858Y-95899954D01*
X131861954Y-96060858D01*
X131731432Y-96247265D01*
X131731431Y-96247267D01*
X131635261Y-96453502D01*
X131635258Y-96453511D01*
X131576366Y-96673302D01*
X131576364Y-96673313D01*
X131556532Y-96899998D01*
X131556532Y-96900001D01*
X131576364Y-97126686D01*
X131576366Y-97126697D01*
X131635258Y-97346488D01*
X131635261Y-97346497D01*
X131731431Y-97552732D01*
X131731432Y-97552734D01*
X131861954Y-97739141D01*
X132022858Y-97900045D01*
X132022861Y-97900047D01*
X132209266Y-98030568D01*
X132267275Y-98057618D01*
X132319714Y-98103791D01*
X132338866Y-98170984D01*
X132318650Y-98237865D01*
X132267275Y-98282382D01*
X132209267Y-98309431D01*
X132209265Y-98309432D01*
X132022858Y-98439954D01*
X131861954Y-98600858D01*
X131731432Y-98787265D01*
X131731431Y-98787267D01*
X131635261Y-98993502D01*
X131635258Y-98993511D01*
X131576366Y-99213302D01*
X131576364Y-99213313D01*
X131556532Y-99439998D01*
X131556532Y-99440001D01*
X131576364Y-99666686D01*
X131576366Y-99666697D01*
X131635258Y-99886488D01*
X131635261Y-99886497D01*
X131731431Y-100092732D01*
X131731432Y-100092734D01*
X131861954Y-100279141D01*
X132022858Y-100440045D01*
X132022861Y-100440047D01*
X132209266Y-100570568D01*
X132267275Y-100597618D01*
X132319714Y-100643791D01*
X132338866Y-100710984D01*
X132318650Y-100777865D01*
X132267275Y-100822382D01*
X132209267Y-100849431D01*
X132209265Y-100849432D01*
X132022858Y-100979954D01*
X131861954Y-101140858D01*
X131731432Y-101327265D01*
X131731431Y-101327267D01*
X131635261Y-101533502D01*
X131635258Y-101533511D01*
X131576366Y-101753302D01*
X131576364Y-101753313D01*
X131556532Y-101979998D01*
X131556532Y-101980001D01*
X131576364Y-102206686D01*
X131576366Y-102206697D01*
X131635258Y-102426488D01*
X131635261Y-102426497D01*
X131731431Y-102632732D01*
X131731432Y-102632734D01*
X131861954Y-102819141D01*
X132022858Y-102980045D01*
X132035640Y-102988995D01*
X132209266Y-103110568D01*
X132267275Y-103137618D01*
X132319714Y-103183791D01*
X132338866Y-103250984D01*
X132318650Y-103317865D01*
X132267275Y-103362382D01*
X132209267Y-103389431D01*
X132209265Y-103389432D01*
X132022858Y-103519954D01*
X131861954Y-103680858D01*
X131731432Y-103867265D01*
X131731431Y-103867267D01*
X131635261Y-104073502D01*
X131635258Y-104073511D01*
X131576366Y-104293302D01*
X131576364Y-104293313D01*
X131556532Y-104519998D01*
X131556532Y-104520001D01*
X131576364Y-104746686D01*
X131576366Y-104746697D01*
X131635258Y-104966488D01*
X131635261Y-104966497D01*
X131731431Y-105172732D01*
X131731432Y-105172734D01*
X131861954Y-105359141D01*
X132022858Y-105520045D01*
X132022861Y-105520047D01*
X132209266Y-105650568D01*
X132267865Y-105677893D01*
X132320305Y-105724065D01*
X132339457Y-105791258D01*
X132319242Y-105858139D01*
X132267867Y-105902657D01*
X132209515Y-105929867D01*
X132023179Y-106060342D01*
X131862342Y-106221179D01*
X131731865Y-106407517D01*
X131635734Y-106613673D01*
X131635730Y-106613682D01*
X131583127Y-106809999D01*
X131583128Y-106810000D01*
X132946314Y-106810000D01*
X132934359Y-106821955D01*
X132876835Y-106934852D01*
X132857014Y-107060000D01*
X132876835Y-107185148D01*
X132934359Y-107298045D01*
X132946314Y-107310000D01*
X131583128Y-107310000D01*
X131635730Y-107506317D01*
X131635734Y-107506326D01*
X131731865Y-107712482D01*
X131862342Y-107898820D01*
X132023179Y-108059657D01*
X132209518Y-108190134D01*
X132209520Y-108190135D01*
X132267865Y-108217342D01*
X132320305Y-108263514D01*
X132339457Y-108330707D01*
X132319242Y-108397589D01*
X132267867Y-108442105D01*
X132259100Y-108446194D01*
X132209264Y-108469433D01*
X132022858Y-108599954D01*
X131861954Y-108760858D01*
X131731432Y-108947265D01*
X131731431Y-108947267D01*
X131635261Y-109153502D01*
X131635258Y-109153511D01*
X131576366Y-109373302D01*
X131576364Y-109373313D01*
X131556532Y-109599998D01*
X131556532Y-109600001D01*
X129700499Y-109600001D01*
X129700499Y-108752128D01*
X129694091Y-108692517D01*
X129659567Y-108599954D01*
X129643797Y-108557671D01*
X129643793Y-108557664D01*
X129557547Y-108442455D01*
X129557544Y-108442452D01*
X129442335Y-108356206D01*
X129442328Y-108356202D01*
X129363123Y-108326661D01*
X129307189Y-108284790D01*
X129282772Y-108219326D01*
X129297623Y-108151053D01*
X129320656Y-108120956D01*
X129354736Y-108088293D01*
X129496450Y-107896683D01*
X129603742Y-107683884D01*
X129673524Y-107456020D01*
X129679418Y-107410000D01*
X128533686Y-107410000D01*
X128559493Y-107369844D01*
X128600000Y-107231889D01*
X128600000Y-107088111D01*
X128559493Y-106950156D01*
X128533686Y-106910000D01*
X129678266Y-106910000D01*
X129678265Y-106909999D01*
X129643474Y-106748566D01*
X129554616Y-106527437D01*
X129429666Y-106324505D01*
X129272219Y-106145610D01*
X129272213Y-106145603D01*
X129086805Y-105995897D01*
X129086795Y-105995890D01*
X128878751Y-105879668D01*
X128654052Y-105800277D01*
X128654038Y-105800273D01*
X128419167Y-105760000D01*
X128350000Y-105760000D01*
X128350000Y-106724498D01*
X128242315Y-106675320D01*
X128135763Y-106660000D01*
X128064237Y-106660000D01*
X127957685Y-106675320D01*
X127850000Y-106724498D01*
X127850000Y-105760000D01*
X127840508Y-105760000D01*
X127662549Y-105775147D01*
X127662546Y-105775148D01*
X127431921Y-105835197D01*
X127214758Y-105933360D01*
X127214755Y-105933362D01*
X127017311Y-106066812D01*
X127017309Y-106066814D01*
X126845263Y-106231706D01*
X126703549Y-106423316D01*
X126596257Y-106636115D01*
X126526475Y-106863979D01*
X126520582Y-106910000D01*
X127666314Y-106910000D01*
X127640507Y-106950156D01*
X127600000Y-107088111D01*
X127600000Y-107231889D01*
X127640507Y-107369844D01*
X127666314Y-107410000D01*
X126521734Y-107410000D01*
X126556525Y-107571433D01*
X126645383Y-107792562D01*
X126770333Y-107995494D01*
X126887240Y-108128327D01*
X126916754Y-108191657D01*
X126907344Y-108260890D01*
X126861998Y-108314045D01*
X126837490Y-108326432D01*
X126757669Y-108356203D01*
X126757664Y-108356206D01*
X126642455Y-108442452D01*
X126642452Y-108442455D01*
X126556206Y-108557664D01*
X126556202Y-108557671D01*
X126505908Y-108692517D01*
X126499501Y-108752116D01*
X126499501Y-108752123D01*
X126499500Y-108752135D01*
X126499500Y-110647870D01*
X125300500Y-110647870D01*
X125300500Y-100100346D01*
X126495702Y-100100346D01*
X126505819Y-100338528D01*
X126505819Y-100338532D01*
X126556045Y-100571580D01*
X126640785Y-100782460D01*
X126644936Y-100792790D01*
X126769931Y-100995795D01*
X126875090Y-101115279D01*
X126886738Y-101128513D01*
X126916253Y-101191843D01*
X126906844Y-101261076D01*
X126861498Y-101314232D01*
X126836989Y-101326619D01*
X126757669Y-101356203D01*
X126757664Y-101356206D01*
X126642455Y-101442452D01*
X126642452Y-101442455D01*
X126556206Y-101557664D01*
X126556202Y-101557671D01*
X126505908Y-101692517D01*
X126499501Y-101752116D01*
X126499501Y-101752123D01*
X126499500Y-101752135D01*
X126499500Y-103647870D01*
X126499501Y-103647876D01*
X126505908Y-103707483D01*
X126556202Y-103842328D01*
X126556206Y-103842335D01*
X126642452Y-103957544D01*
X126642455Y-103957547D01*
X126757664Y-104043793D01*
X126757671Y-104043797D01*
X126892517Y-104094091D01*
X126892516Y-104094091D01*
X126899444Y-104094835D01*
X126952127Y-104100500D01*
X129247872Y-104100499D01*
X129307483Y-104094091D01*
X129442331Y-104043796D01*
X129557546Y-103957546D01*
X129643796Y-103842331D01*
X129694091Y-103707483D01*
X129700500Y-103647873D01*
X129700499Y-101752128D01*
X129694091Y-101692517D01*
X129677860Y-101649000D01*
X129643797Y-101557671D01*
X129643793Y-101557664D01*
X129557547Y-101442455D01*
X129557544Y-101442452D01*
X129442335Y-101356206D01*
X129442328Y-101356202D01*
X129363644Y-101326855D01*
X129307710Y-101284984D01*
X129283293Y-101219519D01*
X129298145Y-101151246D01*
X129321175Y-101121152D01*
X129355118Y-101088621D01*
X129496879Y-100896947D01*
X129604207Y-100684074D01*
X129674016Y-100456123D01*
X129704298Y-100219654D01*
X129694180Y-99981468D01*
X129643954Y-99748419D01*
X129555064Y-99527210D01*
X129430069Y-99324205D01*
X129272564Y-99145245D01*
X129087080Y-98995477D01*
X129087074Y-98995474D01*
X129087071Y-98995471D01*
X129087057Y-98995463D01*
X129087051Y-98995457D01*
X129082709Y-98992522D01*
X129083306Y-98991638D01*
X129038134Y-98945580D01*
X129023947Y-98877165D01*
X129048999Y-98811942D01*
X129078099Y-98784481D01*
X129183003Y-98713579D01*
X129355118Y-98548621D01*
X129496879Y-98356947D01*
X129604207Y-98144074D01*
X129674016Y-97916123D01*
X129704298Y-97679654D01*
X129702896Y-97646660D01*
X129694785Y-97455703D01*
X129694180Y-97441468D01*
X129683550Y-97392147D01*
X129643954Y-97208419D01*
X129611113Y-97126692D01*
X129555064Y-96987210D01*
X129430069Y-96784205D01*
X129272564Y-96605245D01*
X129087080Y-96455477D01*
X129087074Y-96455474D01*
X129087071Y-96455471D01*
X129087057Y-96455463D01*
X129087051Y-96455457D01*
X129082709Y-96452522D01*
X129083306Y-96451638D01*
X129038134Y-96405580D01*
X129023947Y-96337165D01*
X129048999Y-96271942D01*
X129078099Y-96244481D01*
X129183003Y-96173579D01*
X129355118Y-96008621D01*
X129496879Y-95816947D01*
X129604207Y-95604074D01*
X129674016Y-95376123D01*
X129704298Y-95139654D01*
X129700806Y-95057460D01*
X129695978Y-94943796D01*
X129694180Y-94901468D01*
X129665333Y-94767620D01*
X129643954Y-94668419D01*
X129629686Y-94632913D01*
X129555064Y-94447210D01*
X129430069Y-94244205D01*
X129272564Y-94065245D01*
X129087080Y-93915477D01*
X128951640Y-93839815D01*
X128878955Y-93799210D01*
X128654170Y-93719788D01*
X128419209Y-93679500D01*
X128419200Y-93679500D01*
X127840503Y-93679500D01*
X127840484Y-93679500D01*
X127662463Y-93694652D01*
X127431751Y-93754724D01*
X127214519Y-93852919D01*
X127214511Y-93852924D01*
X127017006Y-93986413D01*
X127016997Y-93986421D01*
X126844881Y-94151379D01*
X126703123Y-94343050D01*
X126703120Y-94343054D01*
X126595796Y-94555920D01*
X126595793Y-94555926D01*
X126525983Y-94783878D01*
X126495702Y-95020346D01*
X126505819Y-95258528D01*
X126505819Y-95258532D01*
X126556045Y-95491580D01*
X126644935Y-95712788D01*
X126644936Y-95712790D01*
X126769931Y-95915795D01*
X126927436Y-96094755D01*
X127112920Y-96244523D01*
X127112935Y-96244531D01*
X127112942Y-96244538D01*
X127117291Y-96247478D01*
X127116693Y-96248362D01*
X127161861Y-96294411D01*
X127176053Y-96362824D01*
X127151005Y-96428050D01*
X127121897Y-96455520D01*
X127017007Y-96526413D01*
X127016997Y-96526421D01*
X126844881Y-96691379D01*
X126703123Y-96883050D01*
X126703120Y-96883054D01*
X126595796Y-97095920D01*
X126595793Y-97095926D01*
X126525983Y-97323878D01*
X126495702Y-97560346D01*
X126505819Y-97798528D01*
X126505819Y-97798532D01*
X126556045Y-98031580D01*
X126644935Y-98252788D01*
X126644936Y-98252790D01*
X126769931Y-98455795D01*
X126927436Y-98634755D01*
X127112920Y-98784523D01*
X127112935Y-98784531D01*
X127112942Y-98784538D01*
X127117291Y-98787478D01*
X127116693Y-98788362D01*
X127161861Y-98834411D01*
X127176053Y-98902824D01*
X127151005Y-98968050D01*
X127121897Y-98995520D01*
X127017007Y-99066413D01*
X127016997Y-99066421D01*
X126844881Y-99231379D01*
X126703123Y-99423050D01*
X126703120Y-99423054D01*
X126595796Y-99635920D01*
X126595793Y-99635926D01*
X126525983Y-99863878D01*
X126495702Y-100100346D01*
X125300500Y-100100346D01*
X125300500Y-86700002D01*
X125844726Y-86700002D01*
X125847394Y-86749200D01*
X125863573Y-87047612D01*
X125863809Y-87051951D01*
X125863808Y-87051954D01*
X125920833Y-87399793D01*
X125920834Y-87399796D01*
X126015126Y-87739408D01*
X126015127Y-87739410D01*
X126145588Y-88066844D01*
X126145597Y-88066862D01*
X126214700Y-88197203D01*
X126310695Y-88378269D01*
X126504834Y-88664603D01*
X126508498Y-88670006D01*
X126508505Y-88670016D01*
X126726846Y-88927066D01*
X126736686Y-88938650D01*
X126992580Y-89181046D01*
X126992587Y-89181051D01*
X126992589Y-89181053D01*
X127037596Y-89215266D01*
X127273182Y-89394354D01*
X127575202Y-89576074D01*
X127575206Y-89576075D01*
X127575210Y-89576078D01*
X127895088Y-89724070D01*
X127895092Y-89724070D01*
X127895099Y-89724074D01*
X128229122Y-89836619D01*
X128573355Y-89912391D01*
X128923763Y-89950500D01*
X128923769Y-89950500D01*
X129276231Y-89950500D01*
X129276237Y-89950500D01*
X129626645Y-89912391D01*
X129970878Y-89836619D01*
X130304901Y-89724074D01*
X130304908Y-89724070D01*
X130304911Y-89724070D01*
X130624789Y-89576078D01*
X130624798Y-89576074D01*
X130926818Y-89394354D01*
X131207420Y-89181046D01*
X131463314Y-88938650D01*
X131691501Y-88670008D01*
X131889305Y-88378269D01*
X132054407Y-88066854D01*
X132184871Y-87739414D01*
X132205354Y-87665643D01*
X132213180Y-87637453D01*
X132279168Y-87399788D01*
X132336191Y-87051957D01*
X132352606Y-86749200D01*
X132355274Y-86700002D01*
X132355274Y-86699997D01*
X132341604Y-86447870D01*
X133699500Y-86447870D01*
X133699501Y-86447876D01*
X133705908Y-86507483D01*
X133756202Y-86642328D01*
X133756206Y-86642335D01*
X133842452Y-86757544D01*
X133842455Y-86757547D01*
X133957664Y-86843793D01*
X133957671Y-86843797D01*
X134092517Y-86894091D01*
X134092516Y-86894091D01*
X134099444Y-86894835D01*
X134152127Y-86900500D01*
X136047872Y-86900499D01*
X136107483Y-86894091D01*
X136242331Y-86843796D01*
X136357546Y-86757546D01*
X136443796Y-86642331D01*
X136473338Y-86563123D01*
X136515208Y-86507190D01*
X136580672Y-86482772D01*
X136648945Y-86497623D01*
X136679042Y-86520655D01*
X136711706Y-86554735D01*
X136903316Y-86696450D01*
X137116115Y-86803741D01*
X137343987Y-86873526D01*
X137343985Y-86873526D01*
X137390000Y-86879418D01*
X137390000Y-85735501D01*
X137497685Y-85784680D01*
X137604237Y-85800000D01*
X137675763Y-85800000D01*
X137782315Y-85784680D01*
X137890000Y-85735501D01*
X137890000Y-86878264D01*
X138051434Y-86843473D01*
X138272562Y-86754616D01*
X138475494Y-86629666D01*
X138654389Y-86472219D01*
X138654396Y-86472213D01*
X138804102Y-86286805D01*
X138804109Y-86286795D01*
X138920331Y-86078751D01*
X138999722Y-85854052D01*
X138999726Y-85854038D01*
X139039999Y-85619167D01*
X139040000Y-85619156D01*
X139040000Y-85550000D01*
X138073686Y-85550000D01*
X138099493Y-85509844D01*
X138140000Y-85371889D01*
X138140000Y-85228111D01*
X138099493Y-85090156D01*
X138073686Y-85050000D01*
X139040000Y-85050000D01*
X139040000Y-85040527D01*
X139039999Y-85040508D01*
X139024852Y-84862549D01*
X139024851Y-84862546D01*
X138964802Y-84631921D01*
X138866639Y-84414758D01*
X138866637Y-84414755D01*
X138733187Y-84217311D01*
X138733185Y-84217309D01*
X138568293Y-84045263D01*
X138376683Y-83903549D01*
X138163884Y-83796257D01*
X137936020Y-83726475D01*
X137890000Y-83720581D01*
X137890000Y-84864498D01*
X137782315Y-84815320D01*
X137675763Y-84800000D01*
X137604237Y-84800000D01*
X137497685Y-84815320D01*
X137390000Y-84864498D01*
X137390000Y-83721734D01*
X137389999Y-83721734D01*
X137228566Y-83756525D01*
X137007437Y-83845383D01*
X136804505Y-83970333D01*
X136671672Y-84087240D01*
X136608342Y-84116754D01*
X136539109Y-84107344D01*
X136485954Y-84061998D01*
X136473567Y-84037489D01*
X136443797Y-83957671D01*
X136443793Y-83957664D01*
X136357547Y-83842455D01*
X136357544Y-83842452D01*
X136242335Y-83756206D01*
X136242328Y-83756202D01*
X136107482Y-83705908D01*
X136107483Y-83705908D01*
X136047883Y-83699501D01*
X136047881Y-83699500D01*
X136047873Y-83699500D01*
X136047864Y-83699500D01*
X134152129Y-83699500D01*
X134152123Y-83699501D01*
X134092516Y-83705908D01*
X133957671Y-83756202D01*
X133957664Y-83756206D01*
X133842455Y-83842452D01*
X133842452Y-83842455D01*
X133756206Y-83957664D01*
X133756202Y-83957671D01*
X133705908Y-84092517D01*
X133699501Y-84152116D01*
X133699500Y-84152135D01*
X133699500Y-86447870D01*
X132341604Y-86447870D01*
X132336191Y-86348043D01*
X132279168Y-86000212D01*
X132219326Y-85784680D01*
X132184873Y-85660591D01*
X132184872Y-85660589D01*
X132054411Y-85333155D01*
X132054402Y-85333137D01*
X131998721Y-85228111D01*
X131889305Y-85021731D01*
X131691501Y-84729992D01*
X131691497Y-84729987D01*
X131691494Y-84729983D01*
X131463314Y-84461350D01*
X131414124Y-84414755D01*
X131207420Y-84218954D01*
X131207413Y-84218948D01*
X131207410Y-84218946D01*
X130926815Y-84005644D01*
X130624802Y-83823928D01*
X130624789Y-83823921D01*
X130304911Y-83675929D01*
X130304906Y-83675928D01*
X130304903Y-83675927D01*
X130304901Y-83675926D01*
X130198432Y-83640052D01*
X129970880Y-83563381D01*
X129626643Y-83487608D01*
X129276238Y-83449500D01*
X129276237Y-83449500D01*
X128923763Y-83449500D01*
X128923761Y-83449500D01*
X128573356Y-83487608D01*
X128229119Y-83563381D01*
X127895093Y-83675928D01*
X127895088Y-83675929D01*
X127575210Y-83823921D01*
X127575197Y-83823928D01*
X127273184Y-84005644D01*
X126992589Y-84218946D01*
X126992580Y-84218954D01*
X126736685Y-84461350D01*
X126508505Y-84729983D01*
X126508498Y-84729993D01*
X126310695Y-85021730D01*
X126145597Y-85333137D01*
X126145588Y-85333155D01*
X126015127Y-85660589D01*
X126015126Y-85660591D01*
X125920834Y-86000203D01*
X125920833Y-86000206D01*
X125863808Y-86348045D01*
X125844726Y-86699997D01*
X125844726Y-86700002D01*
X125300500Y-86700002D01*
X125300500Y-83024500D01*
X125320185Y-82957461D01*
X125372989Y-82911706D01*
X125424500Y-82900500D01*
X182775500Y-82900500D01*
X182842539Y-82920185D01*
G37*
%TD.AperFunction*%
%TD*%
M02*
