M48
; DRILL file {KiCad 7.0.11-2.fc39} date mer. 03 avril 2024 17:16:19
; FORMAT={-:-/ absolute / metric / decimal}
; #@! TF.CreationDate,2024-04-03T17:16:19+02:00
; #@! TF.GenerationSoftware,Kicad,Pcbnew,7.0.11-2.fc39
; #@! TF.FileFunction,MixedPlating,1,2
FMAT,2
METRIC
; #@! TA.AperFunction,Plated,PTH,ViaDrill
T1C0.500
; #@! TA.AperFunction,Plated,PTH,ViaDrill
T2C0.700
; #@! TA.AperFunction,Plated,PTH,ComponentDrill
T3C0.800
; #@! TA.AperFunction,Plated,PTH,ComponentDrill
T4C0.850
; #@! TA.AperFunction,Plated,PTH,ComponentDrill
T5C1.000
; #@! TA.AperFunction,Plated,PTH,ComponentDrill
T6C3.500
%
G90
G05
T1
X147.307Y-108.607
X148.5Y-109.6
X150.3Y-110.7
X152.1Y-91.8
X152.4Y-111.8
X153.357Y-100.057
X154.7Y-92.1
X155.6Y-98.0
X156.6Y-98.8
X156.9Y-105.4
X156.957Y-108.243
X160.0Y-89.6
X161.4Y-94.0
X166.2Y-92.2
X166.6Y-94.382
X167.35Y-84.3
X168.6Y-84.3
X168.6Y-93.3
X168.8Y-107.0
X168.9Y-105.2
X169.95Y-84.3
X170.924Y-101.762
X171.2Y-84.3
X173.732Y-102.2
X176.272Y-102.272
T2
X176.1Y-112.6
X178.818Y-102.0
T3
X133.262Y-94.36
X133.262Y-96.9
X133.262Y-99.44
X133.262Y-101.98
X133.262Y-104.52
X133.262Y-107.06
X133.262Y-109.6
X133.28Y-91.82
X145.2Y-91.82
X145.2Y-94.36
X145.2Y-96.9
X145.2Y-99.44
X145.2Y-101.98
X145.2Y-104.52
X145.2Y-107.06
X145.2Y-109.6
T4
X137.9Y-117.1
X139.9Y-117.1
X141.9Y-117.1
X143.9Y-117.1
T5
X128.1Y-95.08
X128.1Y-97.62
X128.1Y-100.16
X128.1Y-102.7
X128.1Y-107.16
X128.1Y-109.7
X135.1Y-85.3
X137.36Y-113.2
X137.64Y-85.3
X139.9Y-113.2
X142.56Y-85.3
X145.1Y-85.3
X149.6Y-117.6
X150.56Y-85.3
X152.14Y-117.6
X153.1Y-85.3
X158.56Y-85.3
X161.1Y-85.3
T6
X129.1Y-86.7
X129.1Y-116.7
X179.1Y-86.7
X179.1Y-116.7
M30
