%TF.GenerationSoftware,KiCad,Pcbnew,7.0.11-2.fc39*%
%TF.CreationDate,2024-04-03T17:16:26+02:00*%
%TF.ProjectId,CarteMPP,43617274-654d-4505-902e-6b696361645f,rev?*%
%TF.SameCoordinates,Original*%
%TF.FileFunction,Legend,Bot*%
%TF.FilePolarity,Positive*%
%FSLAX46Y46*%
G04 Gerber Fmt 4.6, Leading zero omitted, Abs format (unit mm)*
G04 Created by KiCad (PCBNEW 7.0.11-2.fc39) date 2024-04-03 17:16:26*
%MOMM*%
%LPD*%
G01*
G04 APERTURE LIST*
%ADD10C,0.300000*%
G04 APERTURE END LIST*
D10*
X173488346Y-113127971D02*
X173559774Y-113199400D01*
X173559774Y-113199400D02*
X173774060Y-113270828D01*
X173774060Y-113270828D02*
X173916917Y-113270828D01*
X173916917Y-113270828D02*
X174131203Y-113199400D01*
X174131203Y-113199400D02*
X174274060Y-113056542D01*
X174274060Y-113056542D02*
X174345489Y-112913685D01*
X174345489Y-112913685D02*
X174416917Y-112627971D01*
X174416917Y-112627971D02*
X174416917Y-112413685D01*
X174416917Y-112413685D02*
X174345489Y-112127971D01*
X174345489Y-112127971D02*
X174274060Y-111985114D01*
X174274060Y-111985114D02*
X174131203Y-111842257D01*
X174131203Y-111842257D02*
X173916917Y-111770828D01*
X173916917Y-111770828D02*
X173774060Y-111770828D01*
X173774060Y-111770828D02*
X173559774Y-111842257D01*
X173559774Y-111842257D02*
X173488346Y-111913685D01*
X172202632Y-113270828D02*
X172202632Y-112485114D01*
X172202632Y-112485114D02*
X172274060Y-112342257D01*
X172274060Y-112342257D02*
X172416917Y-112270828D01*
X172416917Y-112270828D02*
X172702632Y-112270828D01*
X172702632Y-112270828D02*
X172845489Y-112342257D01*
X172202632Y-113199400D02*
X172345489Y-113270828D01*
X172345489Y-113270828D02*
X172702632Y-113270828D01*
X172702632Y-113270828D02*
X172845489Y-113199400D01*
X172845489Y-113199400D02*
X172916917Y-113056542D01*
X172916917Y-113056542D02*
X172916917Y-112913685D01*
X172916917Y-112913685D02*
X172845489Y-112770828D01*
X172845489Y-112770828D02*
X172702632Y-112699400D01*
X172702632Y-112699400D02*
X172345489Y-112699400D01*
X172345489Y-112699400D02*
X172202632Y-112627971D01*
X171488346Y-113270828D02*
X171488346Y-112270828D01*
X171488346Y-112556542D02*
X171416917Y-112413685D01*
X171416917Y-112413685D02*
X171345489Y-112342257D01*
X171345489Y-112342257D02*
X171202631Y-112270828D01*
X171202631Y-112270828D02*
X171059774Y-112270828D01*
X170774060Y-112270828D02*
X170202632Y-112270828D01*
X170559775Y-111770828D02*
X170559775Y-113056542D01*
X170559775Y-113056542D02*
X170488346Y-113199400D01*
X170488346Y-113199400D02*
X170345489Y-113270828D01*
X170345489Y-113270828D02*
X170202632Y-113270828D01*
X169131203Y-113199400D02*
X169274060Y-113270828D01*
X169274060Y-113270828D02*
X169559775Y-113270828D01*
X169559775Y-113270828D02*
X169702632Y-113199400D01*
X169702632Y-113199400D02*
X169774060Y-113056542D01*
X169774060Y-113056542D02*
X169774060Y-112485114D01*
X169774060Y-112485114D02*
X169702632Y-112342257D01*
X169702632Y-112342257D02*
X169559775Y-112270828D01*
X169559775Y-112270828D02*
X169274060Y-112270828D01*
X169274060Y-112270828D02*
X169131203Y-112342257D01*
X169131203Y-112342257D02*
X169059775Y-112485114D01*
X169059775Y-112485114D02*
X169059775Y-112627971D01*
X169059775Y-112627971D02*
X169774060Y-112770828D01*
X167274061Y-113270828D02*
X167274061Y-111770828D01*
X167274061Y-111770828D02*
X166774061Y-112842257D01*
X166774061Y-112842257D02*
X166274061Y-111770828D01*
X166274061Y-111770828D02*
X166274061Y-113270828D01*
X165559775Y-113270828D02*
X165559775Y-111770828D01*
X165559775Y-111770828D02*
X164988346Y-111770828D01*
X164988346Y-111770828D02*
X164845489Y-111842257D01*
X164845489Y-111842257D02*
X164774060Y-111913685D01*
X164774060Y-111913685D02*
X164702632Y-112056542D01*
X164702632Y-112056542D02*
X164702632Y-112270828D01*
X164702632Y-112270828D02*
X164774060Y-112413685D01*
X164774060Y-112413685D02*
X164845489Y-112485114D01*
X164845489Y-112485114D02*
X164988346Y-112556542D01*
X164988346Y-112556542D02*
X165559775Y-112556542D01*
X164059775Y-113270828D02*
X164059775Y-111770828D01*
X164059775Y-111770828D02*
X163488346Y-111770828D01*
X163488346Y-111770828D02*
X163345489Y-111842257D01*
X163345489Y-111842257D02*
X163274060Y-111913685D01*
X163274060Y-111913685D02*
X163202632Y-112056542D01*
X163202632Y-112056542D02*
X163202632Y-112270828D01*
X163202632Y-112270828D02*
X163274060Y-112413685D01*
X163274060Y-112413685D02*
X163345489Y-112485114D01*
X163345489Y-112485114D02*
X163488346Y-112556542D01*
X163488346Y-112556542D02*
X164059775Y-112556542D01*
X162559775Y-113127971D02*
X162488346Y-113199400D01*
X162488346Y-113199400D02*
X162559775Y-113270828D01*
X162559775Y-113270828D02*
X162631203Y-113199400D01*
X162631203Y-113199400D02*
X162559775Y-113127971D01*
X162559775Y-113127971D02*
X162559775Y-113270828D01*
X162059774Y-111770828D02*
X161559774Y-113270828D01*
X161559774Y-113270828D02*
X161059774Y-111770828D01*
X159774060Y-113270828D02*
X160631203Y-113270828D01*
X160202632Y-113270828D02*
X160202632Y-111770828D01*
X160202632Y-111770828D02*
X160345489Y-111985114D01*
X160345489Y-111985114D02*
X160488346Y-112127971D01*
X160488346Y-112127971D02*
X160631203Y-112199400D01*
X173916917Y-114185828D02*
X173916917Y-115257257D01*
X173916917Y-115257257D02*
X173988346Y-115471542D01*
X173988346Y-115471542D02*
X174131203Y-115614400D01*
X174131203Y-115614400D02*
X174345489Y-115685828D01*
X174345489Y-115685828D02*
X174488346Y-115685828D01*
X173416917Y-114185828D02*
X172916917Y-115685828D01*
X172916917Y-115685828D02*
X172416917Y-114185828D01*
X170774061Y-115114400D02*
X169631204Y-115114400D01*
X166774061Y-115828685D02*
X166916918Y-115757257D01*
X166916918Y-115757257D02*
X167059775Y-115614400D01*
X167059775Y-115614400D02*
X167274061Y-115400114D01*
X167274061Y-115400114D02*
X167416918Y-115328685D01*
X167416918Y-115328685D02*
X167559775Y-115328685D01*
X167488346Y-115685828D02*
X167631204Y-115614400D01*
X167631204Y-115614400D02*
X167774061Y-115471542D01*
X167774061Y-115471542D02*
X167845489Y-115185828D01*
X167845489Y-115185828D02*
X167845489Y-114685828D01*
X167845489Y-114685828D02*
X167774061Y-114400114D01*
X167774061Y-114400114D02*
X167631204Y-114257257D01*
X167631204Y-114257257D02*
X167488346Y-114185828D01*
X167488346Y-114185828D02*
X167202632Y-114185828D01*
X167202632Y-114185828D02*
X167059775Y-114257257D01*
X167059775Y-114257257D02*
X166916918Y-114400114D01*
X166916918Y-114400114D02*
X166845489Y-114685828D01*
X166845489Y-114685828D02*
X166845489Y-115185828D01*
X166845489Y-115185828D02*
X166916918Y-115471542D01*
X166916918Y-115471542D02*
X167059775Y-115614400D01*
X167059775Y-115614400D02*
X167202632Y-115685828D01*
X167202632Y-115685828D02*
X167488346Y-115685828D01*
X165345489Y-115542971D02*
X165416917Y-115614400D01*
X165416917Y-115614400D02*
X165631203Y-115685828D01*
X165631203Y-115685828D02*
X165774060Y-115685828D01*
X165774060Y-115685828D02*
X165988346Y-115614400D01*
X165988346Y-115614400D02*
X166131203Y-115471542D01*
X166131203Y-115471542D02*
X166202632Y-115328685D01*
X166202632Y-115328685D02*
X166274060Y-115042971D01*
X166274060Y-115042971D02*
X166274060Y-114828685D01*
X166274060Y-114828685D02*
X166202632Y-114542971D01*
X166202632Y-114542971D02*
X166131203Y-114400114D01*
X166131203Y-114400114D02*
X165988346Y-114257257D01*
X165988346Y-114257257D02*
X165774060Y-114185828D01*
X165774060Y-114185828D02*
X165631203Y-114185828D01*
X165631203Y-114185828D02*
X165416917Y-114257257D01*
X165416917Y-114257257D02*
X165345489Y-114328685D01*
X163559775Y-115114400D02*
X162416918Y-115114400D01*
X160274060Y-114971542D02*
X160274060Y-115685828D01*
X160774060Y-114185828D02*
X160274060Y-114971542D01*
X160274060Y-114971542D02*
X159774060Y-114185828D01*
X158488346Y-114257257D02*
X158631204Y-114185828D01*
X158631204Y-114185828D02*
X158845489Y-114185828D01*
X158845489Y-114185828D02*
X159059775Y-114257257D01*
X159059775Y-114257257D02*
X159202632Y-114400114D01*
X159202632Y-114400114D02*
X159274061Y-114542971D01*
X159274061Y-114542971D02*
X159345489Y-114828685D01*
X159345489Y-114828685D02*
X159345489Y-115042971D01*
X159345489Y-115042971D02*
X159274061Y-115328685D01*
X159274061Y-115328685D02*
X159202632Y-115471542D01*
X159202632Y-115471542D02*
X159059775Y-115614400D01*
X159059775Y-115614400D02*
X158845489Y-115685828D01*
X158845489Y-115685828D02*
X158702632Y-115685828D01*
X158702632Y-115685828D02*
X158488346Y-115614400D01*
X158488346Y-115614400D02*
X158416918Y-115542971D01*
X158416918Y-115542971D02*
X158416918Y-115042971D01*
X158416918Y-115042971D02*
X158702632Y-115042971D01*
X156631204Y-115114400D02*
X155488347Y-115114400D01*
X153631204Y-115685828D02*
X153631204Y-114185828D01*
X153631204Y-114185828D02*
X153131204Y-115257257D01*
X153131204Y-115257257D02*
X152631204Y-114185828D01*
X152631204Y-114185828D02*
X152631204Y-115685828D01*
X151988346Y-115257257D02*
X151274061Y-115257257D01*
X152131203Y-115685828D02*
X151631203Y-114185828D01*
X151631203Y-114185828D02*
X151131203Y-115685828D01*
X173488346Y-117957971D02*
X173559774Y-118029400D01*
X173559774Y-118029400D02*
X173774060Y-118100828D01*
X173774060Y-118100828D02*
X173916917Y-118100828D01*
X173916917Y-118100828D02*
X174131203Y-118029400D01*
X174131203Y-118029400D02*
X174274060Y-117886542D01*
X174274060Y-117886542D02*
X174345489Y-117743685D01*
X174345489Y-117743685D02*
X174416917Y-117457971D01*
X174416917Y-117457971D02*
X174416917Y-117243685D01*
X174416917Y-117243685D02*
X174345489Y-116957971D01*
X174345489Y-116957971D02*
X174274060Y-116815114D01*
X174274060Y-116815114D02*
X174131203Y-116672257D01*
X174131203Y-116672257D02*
X173916917Y-116600828D01*
X173916917Y-116600828D02*
X173774060Y-116600828D01*
X173774060Y-116600828D02*
X173559774Y-116672257D01*
X173559774Y-116672257D02*
X173488346Y-116743685D01*
X171988346Y-118100828D02*
X172488346Y-117386542D01*
X172845489Y-118100828D02*
X172845489Y-116600828D01*
X172845489Y-116600828D02*
X172274060Y-116600828D01*
X172274060Y-116600828D02*
X172131203Y-116672257D01*
X172131203Y-116672257D02*
X172059774Y-116743685D01*
X172059774Y-116743685D02*
X171988346Y-116886542D01*
X171988346Y-116886542D02*
X171988346Y-117100828D01*
X171988346Y-117100828D02*
X172059774Y-117243685D01*
X172059774Y-117243685D02*
X172131203Y-117315114D01*
X172131203Y-117315114D02*
X172274060Y-117386542D01*
X172274060Y-117386542D02*
X172845489Y-117386542D01*
X171416917Y-117672257D02*
X170702632Y-117672257D01*
X171559774Y-118100828D02*
X171059774Y-116600828D01*
X171059774Y-116600828D02*
X170559774Y-118100828D01*
X169202632Y-117957971D02*
X169274060Y-118029400D01*
X169274060Y-118029400D02*
X169488346Y-118100828D01*
X169488346Y-118100828D02*
X169631203Y-118100828D01*
X169631203Y-118100828D02*
X169845489Y-118029400D01*
X169845489Y-118029400D02*
X169988346Y-117886542D01*
X169988346Y-117886542D02*
X170059775Y-117743685D01*
X170059775Y-117743685D02*
X170131203Y-117457971D01*
X170131203Y-117457971D02*
X170131203Y-117243685D01*
X170131203Y-117243685D02*
X170059775Y-116957971D01*
X170059775Y-116957971D02*
X169988346Y-116815114D01*
X169988346Y-116815114D02*
X169845489Y-116672257D01*
X169845489Y-116672257D02*
X169631203Y-116600828D01*
X169631203Y-116600828D02*
X169488346Y-116600828D01*
X169488346Y-116600828D02*
X169274060Y-116672257D01*
X169274060Y-116672257D02*
X169202632Y-116743685D01*
X167488346Y-116743685D02*
X167416918Y-116672257D01*
X167416918Y-116672257D02*
X167274061Y-116600828D01*
X167274061Y-116600828D02*
X166916918Y-116600828D01*
X166916918Y-116600828D02*
X166774061Y-116672257D01*
X166774061Y-116672257D02*
X166702632Y-116743685D01*
X166702632Y-116743685D02*
X166631203Y-116886542D01*
X166631203Y-116886542D02*
X166631203Y-117029400D01*
X166631203Y-117029400D02*
X166702632Y-117243685D01*
X166702632Y-117243685D02*
X167559775Y-118100828D01*
X167559775Y-118100828D02*
X166631203Y-118100828D01*
X165702632Y-116600828D02*
X165559775Y-116600828D01*
X165559775Y-116600828D02*
X165416918Y-116672257D01*
X165416918Y-116672257D02*
X165345490Y-116743685D01*
X165345490Y-116743685D02*
X165274061Y-116886542D01*
X165274061Y-116886542D02*
X165202632Y-117172257D01*
X165202632Y-117172257D02*
X165202632Y-117529400D01*
X165202632Y-117529400D02*
X165274061Y-117815114D01*
X165274061Y-117815114D02*
X165345490Y-117957971D01*
X165345490Y-117957971D02*
X165416918Y-118029400D01*
X165416918Y-118029400D02*
X165559775Y-118100828D01*
X165559775Y-118100828D02*
X165702632Y-118100828D01*
X165702632Y-118100828D02*
X165845490Y-118029400D01*
X165845490Y-118029400D02*
X165916918Y-117957971D01*
X165916918Y-117957971D02*
X165988347Y-117815114D01*
X165988347Y-117815114D02*
X166059775Y-117529400D01*
X166059775Y-117529400D02*
X166059775Y-117172257D01*
X166059775Y-117172257D02*
X165988347Y-116886542D01*
X165988347Y-116886542D02*
X165916918Y-116743685D01*
X165916918Y-116743685D02*
X165845490Y-116672257D01*
X165845490Y-116672257D02*
X165702632Y-116600828D01*
X164631204Y-116743685D02*
X164559776Y-116672257D01*
X164559776Y-116672257D02*
X164416919Y-116600828D01*
X164416919Y-116600828D02*
X164059776Y-116600828D01*
X164059776Y-116600828D02*
X163916919Y-116672257D01*
X163916919Y-116672257D02*
X163845490Y-116743685D01*
X163845490Y-116743685D02*
X163774061Y-116886542D01*
X163774061Y-116886542D02*
X163774061Y-117029400D01*
X163774061Y-117029400D02*
X163845490Y-117243685D01*
X163845490Y-117243685D02*
X164702633Y-118100828D01*
X164702633Y-118100828D02*
X163774061Y-118100828D01*
X162488348Y-117100828D02*
X162488348Y-118100828D01*
X162845490Y-116529400D02*
X163202633Y-117600828D01*
X163202633Y-117600828D02*
X162274062Y-117600828D01*
M02*
