%TF.GenerationSoftware,KiCad,Pcbnew,7.0.11-2.fc39*%
%TF.CreationDate,2024-04-03T17:16:25+02:00*%
%TF.ProjectId,CarteMPP,43617274-654d-4505-902e-6b696361645f,rev?*%
%TF.SameCoordinates,Original*%
%TF.FileFunction,Copper,L2,Bot*%
%TF.FilePolarity,Positive*%
%FSLAX46Y46*%
G04 Gerber Fmt 4.6, Leading zero omitted, Abs format (unit mm)*
G04 Created by KiCad (PCBNEW 7.0.11-2.fc39) date 2024-04-03 17:16:25*
%MOMM*%
%LPD*%
G01*
G04 APERTURE LIST*
%TA.AperFunction,ComponentPad*%
%ADD10R,1.700000X1.700000*%
%TD*%
%TA.AperFunction,ComponentPad*%
%ADD11O,1.700000X1.700000*%
%TD*%
%TA.AperFunction,ComponentPad*%
%ADD12C,5.500000*%
%TD*%
%TA.AperFunction,ComponentPad*%
%ADD13R,1.800000X2.200000*%
%TD*%
%TA.AperFunction,ComponentPad*%
%ADD14O,1.800000X2.200000*%
%TD*%
%TA.AperFunction,ComponentPad*%
%ADD15R,1.200000X1.600000*%
%TD*%
%TA.AperFunction,ComponentPad*%
%ADD16O,1.200000X1.600000*%
%TD*%
%TA.AperFunction,ComponentPad*%
%ADD17R,2.200000X1.800000*%
%TD*%
%TA.AperFunction,ComponentPad*%
%ADD18O,2.200000X1.800000*%
%TD*%
%TA.AperFunction,ComponentPad*%
%ADD19R,2.400000X1.600000*%
%TD*%
%TA.AperFunction,ComponentPad*%
%ADD20O,2.400000X1.600000*%
%TD*%
%TA.AperFunction,ComponentPad*%
%ADD21O,1.600000X1.600000*%
%TD*%
%TA.AperFunction,ViaPad*%
%ADD22C,1.000000*%
%TD*%
%TA.AperFunction,ViaPad*%
%ADD23C,1.500000*%
%TD*%
%TA.AperFunction,Conductor*%
%ADD24C,0.500000*%
%TD*%
%TA.AperFunction,Conductor*%
%ADD25C,2.000000*%
%TD*%
%TA.AperFunction,Conductor*%
%ADD26C,1.000000*%
%TD*%
G04 APERTURE END LIST*
D10*
%TO.P,J15,1,Pin_1*%
%TO.N,/V_HERKULEX*%
X139900000Y-113200000D03*
D11*
%TO.P,J15,2,Pin_2*%
%TO.N,/V_STEPPER*%
X137360000Y-113200000D03*
%TD*%
D12*
%TO.P,J9,1,Pin_1*%
%TO.N,unconnected-(J9-Pin_1-Pad1)*%
X129100000Y-86700000D03*
%TD*%
D13*
%TO.P,J14,1,Pin_1*%
%TO.N,/V_HERKULEX*%
X152140000Y-117600000D03*
D14*
%TO.P,J14,2,Pin_2*%
%TO.N,GND*%
X149600000Y-117600000D03*
%TD*%
D13*
%TO.P,J4,1,Pin_1*%
%TO.N,/Aux3*%
X150560000Y-85300000D03*
D14*
%TO.P,J4,2,Pin_2*%
%TO.N,GND*%
X153100000Y-85300000D03*
%TD*%
D12*
%TO.P,J11,1,Pin_1*%
%TO.N,unconnected-(J11-Pin_1-Pad1)*%
X179100000Y-86700000D03*
%TD*%
%TO.P,J12,1,Pin_1*%
%TO.N,unconnected-(J12-Pin_1-Pad1)*%
X179100000Y-116700000D03*
%TD*%
D15*
%TO.P,J16,1,GND*%
%TO.N,GND*%
X137900000Y-117100000D03*
D16*
%TO.P,J16,2,VCC*%
%TO.N,/V_HERKULEX*%
X139900000Y-117100000D03*
%TO.P,J16,3,TXD*%
%TO.N,/Rx1*%
X141900000Y-117100000D03*
%TO.P,J16,4,RXD*%
%TO.N,/Tx1*%
X143900000Y-117100000D03*
%TD*%
D13*
%TO.P,J3,1,Pin_1*%
%TO.N,/Aux2*%
X135100000Y-85300000D03*
D14*
%TO.P,J3,2,Pin_2*%
%TO.N,GND*%
X137640000Y-85300000D03*
%TD*%
D13*
%TO.P,J8,1,Pin_1*%
%TO.N,/Aux1*%
X142560000Y-85300000D03*
D14*
%TO.P,J8,2,Pin_2*%
%TO.N,GND*%
X145100000Y-85300000D03*
%TD*%
D17*
%TO.P,J5,1,Pin_1*%
%TO.N,/B1*%
X128100000Y-102700000D03*
D18*
%TO.P,J5,2,Pin_2*%
%TO.N,/B2*%
X128100000Y-100160000D03*
%TO.P,J5,3,Pin_3*%
%TO.N,/A1*%
X128100000Y-97620000D03*
%TO.P,J5,4,Pin_4*%
%TO.N,/A2*%
X128100000Y-95080000D03*
%TD*%
D13*
%TO.P,J7,1,Pin_1*%
%TO.N,/Aux4*%
X158560000Y-85300000D03*
D14*
%TO.P,J7,2,Pin_2*%
%TO.N,GND*%
X161100000Y-85300000D03*
%TD*%
D19*
%TO.P,J1,1,Pin_1*%
%TO.N,/EN*%
X145200000Y-109600000D03*
D20*
%TO.P,J1,2,Pin_2*%
%TO.N,/M0*%
X145200000Y-107060000D03*
%TO.P,J1,3,Pin_3*%
%TO.N,/M1*%
X145200000Y-104520000D03*
%TO.P,J1,4,Pin_4*%
%TO.N,/M2*%
X145200000Y-101980000D03*
D21*
%TO.P,J1,5,Pin_5*%
%TO.N,unconnected-(J1-Pin_5-Pad5)*%
X145200000Y-99440000D03*
D20*
%TO.P,J1,6,Pin_6*%
%TO.N,/STBY*%
X145200000Y-96900000D03*
%TO.P,J1,7,Pin_7*%
%TO.N,/STEP*%
X145200000Y-94360000D03*
%TO.P,J1,8,Pin_8*%
%TO.N,/DIR*%
X145200000Y-91820000D03*
%TO.P,J1,9,Pin_1*%
%TO.N,GND*%
X133280000Y-91820000D03*
%TO.P,J1,10,Pin_2*%
%TO.N,+3.3V*%
X133262000Y-94360000D03*
%TO.P,J1,11,Pin_3*%
%TO.N,/A2*%
X133262000Y-96900000D03*
%TO.P,J1,12,Pin_4*%
%TO.N,/A1*%
X133262000Y-99440000D03*
%TO.P,J1,13,Pin_5*%
%TO.N,/B2*%
X133262000Y-101980000D03*
%TO.P,J1,14,Pin_6*%
%TO.N,/B1*%
X133262000Y-104520000D03*
%TO.P,J1,15,Pin_7*%
%TO.N,GND*%
X133262000Y-107060000D03*
%TO.P,J1,16,Pin_8*%
%TO.N,/V_STEPPER*%
X133262000Y-109600000D03*
%TD*%
D17*
%TO.P,J2,1,Pin_1*%
%TO.N,/V_STEPPER*%
X128100000Y-109700000D03*
D18*
%TO.P,J2,2,Pin_2*%
%TO.N,GND*%
X128100000Y-107160000D03*
%TD*%
D12*
%TO.P,J10,1,Pin_1*%
%TO.N,unconnected-(J10-Pin_1-Pad1)*%
X129100000Y-116700000D03*
%TD*%
D22*
%TO.N,GND*%
X156900000Y-105400000D03*
D23*
X178818008Y-102000000D03*
D22*
X161400000Y-94000000D03*
D23*
X176100000Y-112600000D03*
D22*
X150300000Y-110700000D03*
%TO.N,+5V*%
X170923898Y-101761888D03*
X156957107Y-108242893D03*
%TO.N,+3.3V*%
X166200000Y-92200000D03*
X160000000Y-89600000D03*
X152400000Y-111800000D03*
%TO.N,/CAN_H*%
X176272008Y-102272008D03*
X168900000Y-105200000D03*
%TO.N,/CAN_L*%
X168800000Y-107000000D03*
X173732008Y-102200000D03*
%TO.N,/Tx1*%
X156600000Y-98800000D03*
X148500000Y-109600000D03*
%TO.N,/Aux2*%
X153357107Y-100057107D03*
%TO.N,/NRST*%
X171200000Y-84300000D03*
X154700000Y-92100000D03*
%TO.N,/TX_TARGET*%
X152100000Y-91800000D03*
X169949997Y-84300000D03*
%TO.N,/TCK*%
X168600000Y-84300000D03*
X168600000Y-93300000D03*
%TO.N,/SWO*%
X167349997Y-84300000D03*
X166600000Y-94382233D03*
%TO.N,/Rx1*%
X147307107Y-108607107D03*
X155600000Y-98000000D03*
%TD*%
D24*
%TO.N,GND*%
X142310660Y-110950000D02*
X138950000Y-107589340D01*
X138950000Y-96750000D02*
X134020000Y-91820000D01*
D25*
X128200000Y-107060000D02*
X128100000Y-107160000D01*
D24*
X150300000Y-110700000D02*
X151600000Y-110700000D01*
D25*
X138968019Y-119350000D02*
X137650000Y-118031981D01*
D24*
X138950000Y-107589340D02*
X138950000Y-96750000D01*
X150300000Y-110700000D02*
X150050000Y-110950000D01*
X150050000Y-110950000D02*
X142310660Y-110950000D01*
D26*
X126940000Y-107160000D02*
X128100000Y-107160000D01*
X178818008Y-109881992D02*
X176100000Y-112600000D01*
D25*
X137650000Y-118031981D02*
X137650000Y-117100000D01*
D26*
X137900000Y-117100000D02*
X136500000Y-117100000D01*
X136500000Y-117100000D02*
X131600000Y-112200000D01*
X131600000Y-112200000D02*
X126900000Y-112200000D01*
X178818008Y-102000000D02*
X178818008Y-109881992D01*
D25*
X133262000Y-107060000D02*
X128200000Y-107060000D01*
D24*
X161400000Y-100900000D02*
X156900000Y-105400000D01*
X161400000Y-94000000D02*
X161400000Y-100900000D01*
D26*
X126900000Y-112200000D02*
X126200000Y-111500000D01*
X126200000Y-107900000D02*
X126940000Y-107160000D01*
D25*
X149600000Y-117600000D02*
X147850000Y-119350000D01*
D24*
X134020000Y-91820000D02*
X133280000Y-91820000D01*
X151600000Y-110700000D02*
X156900000Y-105400000D01*
D26*
X126200000Y-111500000D02*
X126200000Y-107900000D01*
D25*
X147850000Y-119350000D02*
X138968019Y-119350000D01*
D24*
%TO.N,+5V*%
X163438112Y-101761888D02*
X170923898Y-101761888D01*
X156957107Y-108242893D02*
X163438112Y-101761888D01*
D25*
%TO.N,/A2*%
X132463960Y-96900000D02*
X130643960Y-95080000D01*
X133262000Y-96900000D02*
X132463960Y-96900000D01*
X130643960Y-95080000D02*
X128100000Y-95080000D01*
%TO.N,/A1*%
X131821980Y-99440000D02*
X130001980Y-97620000D01*
X130001980Y-97620000D02*
X128100000Y-97620000D01*
X133262000Y-99440000D02*
X131821980Y-99440000D01*
%TO.N,/B2*%
X131180000Y-101980000D02*
X133262000Y-101980000D01*
X128100000Y-100160000D02*
X129360000Y-100160000D01*
X129360000Y-100160000D02*
X131180000Y-101980000D01*
%TO.N,/B1*%
X129920000Y-104520000D02*
X128100000Y-102700000D01*
X133262000Y-104520000D02*
X129920000Y-104520000D01*
%TO.N,/V_HERKULEX*%
X152140000Y-114500000D02*
X152140000Y-117600000D01*
X139900000Y-113200000D02*
X139900000Y-117100000D01*
X150840000Y-113200000D02*
X152140000Y-114500000D01*
X139900000Y-113200000D02*
X150840000Y-113200000D01*
D24*
%TO.N,+3.3V*%
X134760000Y-94360000D02*
X138200000Y-97800000D01*
X160000000Y-89600000D02*
X163600000Y-89600000D01*
X152300000Y-111700000D02*
X152400000Y-111800000D01*
X142000000Y-111700000D02*
X152300000Y-111700000D01*
X138200000Y-97800000D02*
X138200000Y-107900000D01*
X133262000Y-94360000D02*
X134760000Y-94360000D01*
X138200000Y-107900000D02*
X142000000Y-111700000D01*
X163600000Y-89600000D02*
X166200000Y-92200000D01*
%TO.N,/CAN_H*%
X175200000Y-101200000D02*
X176272008Y-102272008D01*
X168900000Y-105200000D02*
X172900000Y-101200000D01*
X172900000Y-101200000D02*
X175200000Y-101200000D01*
%TO.N,/CAN_L*%
X168932008Y-107000000D02*
X173732008Y-102200000D01*
X168800000Y-107000000D02*
X168932008Y-107000000D01*
D25*
%TO.N,/V_STEPPER*%
X133262000Y-109600000D02*
X128200000Y-109600000D01*
X128200000Y-109600000D02*
X128100000Y-109700000D01*
X133462000Y-109600000D02*
X133262000Y-109600000D01*
X137062000Y-113200000D02*
X133462000Y-109600000D01*
X137360000Y-113200000D02*
X137062000Y-113200000D01*
D24*
%TO.N,/Tx1*%
X156600000Y-98800000D02*
X156600000Y-101500000D01*
X156600000Y-101500000D02*
X148500000Y-109600000D01*
%TO.N,/Aux2*%
X153357107Y-100057107D02*
X153357107Y-97457107D01*
X135100000Y-87100000D02*
X135100000Y-85300000D01*
X153357107Y-97457107D02*
X144500000Y-88600000D01*
X144500000Y-88600000D02*
X136600000Y-88600000D01*
X136600000Y-88600000D02*
X135100000Y-87100000D01*
%TO.N,/NRST*%
X165400000Y-96300000D02*
X168500000Y-96300000D01*
X168500000Y-96300000D02*
X171200000Y-93600000D01*
X161200000Y-92100000D02*
X165400000Y-96300000D01*
X154700000Y-92100000D02*
X161200000Y-92100000D01*
X171200000Y-93600000D02*
X171200000Y-84300000D01*
%TO.N,/TX_TARGET*%
X152100000Y-91800000D02*
X152800000Y-91100000D01*
X161260660Y-91100000D02*
X165660660Y-95500000D01*
X168239340Y-95500000D02*
X169949997Y-93789343D01*
X152800000Y-91100000D02*
X161260660Y-91100000D01*
X165660660Y-95500000D02*
X168239340Y-95500000D01*
X169949997Y-93789343D02*
X169949997Y-84300000D01*
%TO.N,/TCK*%
X168600000Y-93300000D02*
X168600000Y-84300000D01*
%TO.N,/SWO*%
X166617767Y-94382233D02*
X167400000Y-93600000D01*
X167400000Y-93600000D02*
X167400000Y-84350003D01*
X166600000Y-94382233D02*
X166617767Y-94382233D01*
X167400000Y-84350003D02*
X167349997Y-84300000D01*
%TO.N,/Rx1*%
X147307107Y-108592893D02*
X155600000Y-100300000D01*
X155600000Y-100300000D02*
X155600000Y-98000000D01*
X147307107Y-108607107D02*
X147307107Y-108592893D01*
%TD*%
%TA.AperFunction,Conductor*%
%TO.N,GND*%
G36*
X134858137Y-95166039D02*
G01*
X134860966Y-95168780D01*
X137663181Y-97970995D01*
X137696666Y-98032318D01*
X137699500Y-98058676D01*
X137699500Y-107832858D01*
X137696667Y-107859206D01*
X137695641Y-107863927D01*
X137695641Y-107863929D01*
X137695641Y-107863930D01*
X137699184Y-107913461D01*
X137699500Y-107922308D01*
X137699500Y-107935797D01*
X137701420Y-107949154D01*
X137702365Y-107957946D01*
X137705909Y-108007486D01*
X137707593Y-108012000D01*
X137714148Y-108037682D01*
X137714834Y-108042455D01*
X137735457Y-108087612D01*
X137738845Y-108095790D01*
X137756203Y-108142329D01*
X137759096Y-108146194D01*
X137772617Y-108168983D01*
X137774619Y-108173367D01*
X137774622Y-108173372D01*
X137774623Y-108173373D01*
X137807144Y-108210904D01*
X137812688Y-108217785D01*
X137820779Y-108228593D01*
X137830333Y-108238147D01*
X137836353Y-108244614D01*
X137868872Y-108282143D01*
X137868874Y-108282145D01*
X137872928Y-108284750D01*
X137893571Y-108301385D01*
X141330005Y-111737819D01*
X141363490Y-111799142D01*
X141358506Y-111868834D01*
X141316634Y-111924767D01*
X141251170Y-111949184D01*
X141242324Y-111949500D01*
X141091439Y-111949500D01*
X141024400Y-111929815D01*
X141017128Y-111924767D01*
X140992331Y-111906204D01*
X140992328Y-111906202D01*
X140857482Y-111855908D01*
X140857483Y-111855908D01*
X140797883Y-111849501D01*
X140797881Y-111849500D01*
X140797873Y-111849500D01*
X140797864Y-111849500D01*
X139002129Y-111849500D01*
X139002123Y-111849501D01*
X138942516Y-111855908D01*
X138807671Y-111906202D01*
X138807664Y-111906206D01*
X138692455Y-111992452D01*
X138692452Y-111992455D01*
X138606206Y-112107664D01*
X138606203Y-112107669D01*
X138557189Y-112239083D01*
X138515317Y-112295016D01*
X138449853Y-112319433D01*
X138381580Y-112304581D01*
X138353326Y-112283430D01*
X138231402Y-112161506D01*
X138231395Y-112161501D01*
X138037834Y-112025967D01*
X138037830Y-112025965D01*
X137973853Y-111996132D01*
X137823663Y-111926097D01*
X137823659Y-111926096D01*
X137823655Y-111926094D01*
X137595413Y-111864938D01*
X137595403Y-111864936D01*
X137530781Y-111859282D01*
X137465712Y-111833828D01*
X137453909Y-111823435D01*
X134950577Y-109320103D01*
X134918483Y-109264514D01*
X134888742Y-109153513D01*
X134888738Y-109153502D01*
X134792568Y-108947266D01*
X134662047Y-108760861D01*
X134662045Y-108760858D01*
X134501141Y-108599954D01*
X134314734Y-108469432D01*
X134314732Y-108469431D01*
X134303275Y-108464088D01*
X134256132Y-108442105D01*
X134203694Y-108395934D01*
X134184542Y-108328740D01*
X134204758Y-108261859D01*
X134256134Y-108217341D01*
X134314484Y-108190132D01*
X134500820Y-108059657D01*
X134661657Y-107898820D01*
X134792134Y-107712482D01*
X134888265Y-107506326D01*
X134888269Y-107506317D01*
X134940872Y-107310000D01*
X133577686Y-107310000D01*
X133589641Y-107298045D01*
X133647165Y-107185148D01*
X133666986Y-107060000D01*
X133647165Y-106934852D01*
X133589641Y-106821955D01*
X133577686Y-106810000D01*
X134940872Y-106810000D01*
X134940872Y-106809999D01*
X134888269Y-106613682D01*
X134888265Y-106613673D01*
X134792134Y-106407517D01*
X134661657Y-106221179D01*
X134500820Y-106060342D01*
X134314482Y-105929865D01*
X134256133Y-105902657D01*
X134203694Y-105856484D01*
X134184542Y-105789291D01*
X134204758Y-105722410D01*
X134256129Y-105677895D01*
X134314734Y-105650568D01*
X134501139Y-105520047D01*
X134662047Y-105359139D01*
X134792568Y-105172734D01*
X134888739Y-104966496D01*
X134947635Y-104746692D01*
X134967468Y-104520000D01*
X134947635Y-104293308D01*
X134888739Y-104073504D01*
X134792568Y-103867266D01*
X134662047Y-103680861D01*
X134662045Y-103680858D01*
X134501141Y-103519954D01*
X134314734Y-103389432D01*
X134314728Y-103389429D01*
X134256725Y-103362382D01*
X134204285Y-103316210D01*
X134185133Y-103249017D01*
X134205348Y-103182135D01*
X134256725Y-103137618D01*
X134314734Y-103110568D01*
X134501139Y-102980047D01*
X134662047Y-102819139D01*
X134792568Y-102632734D01*
X134888739Y-102426496D01*
X134947635Y-102206692D01*
X134967468Y-101980000D01*
X134947635Y-101753308D01*
X134895291Y-101557955D01*
X134888741Y-101533511D01*
X134888738Y-101533502D01*
X134846280Y-101442452D01*
X134792568Y-101327266D01*
X134662047Y-101140861D01*
X134662045Y-101140858D01*
X134501141Y-100979954D01*
X134314734Y-100849432D01*
X134314728Y-100849429D01*
X134256725Y-100822382D01*
X134204285Y-100776210D01*
X134185133Y-100709017D01*
X134205348Y-100642135D01*
X134256725Y-100597618D01*
X134314734Y-100570568D01*
X134501139Y-100440047D01*
X134662047Y-100279139D01*
X134792568Y-100092734D01*
X134888739Y-99886496D01*
X134947635Y-99666692D01*
X134967468Y-99440000D01*
X134965985Y-99423054D01*
X134959264Y-99346224D01*
X134947635Y-99213308D01*
X134888739Y-98993504D01*
X134792568Y-98787266D01*
X134662047Y-98600861D01*
X134662045Y-98600858D01*
X134501141Y-98439954D01*
X134314734Y-98309432D01*
X134314728Y-98309429D01*
X134256725Y-98282382D01*
X134204285Y-98236210D01*
X134185133Y-98169017D01*
X134205348Y-98102135D01*
X134256725Y-98057618D01*
X134314734Y-98030568D01*
X134501139Y-97900047D01*
X134662047Y-97739139D01*
X134792568Y-97552734D01*
X134888739Y-97346496D01*
X134947635Y-97126692D01*
X134967468Y-96900000D01*
X134965985Y-96883054D01*
X134959011Y-96803334D01*
X134947635Y-96673308D01*
X134888739Y-96453504D01*
X134792568Y-96247266D01*
X134662047Y-96060861D01*
X134662045Y-96060858D01*
X134501141Y-95899954D01*
X134314734Y-95769432D01*
X134314728Y-95769429D01*
X134256725Y-95742382D01*
X134204285Y-95696210D01*
X134185133Y-95629017D01*
X134205348Y-95562135D01*
X134256725Y-95517618D01*
X134314734Y-95490568D01*
X134501139Y-95360047D01*
X134662047Y-95199139D01*
X134671708Y-95185340D01*
X134726283Y-95141714D01*
X134795781Y-95134519D01*
X134858137Y-95166039D01*
G37*
%TD.AperFunction*%
%TA.AperFunction,Conductor*%
G36*
X182842539Y-82920185D02*
G01*
X182888294Y-82972989D01*
X182899500Y-83024500D01*
X182899500Y-120375500D01*
X182879815Y-120442539D01*
X182827011Y-120488294D01*
X182775500Y-120499500D01*
X125424500Y-120499500D01*
X125357461Y-120479815D01*
X125311706Y-120427011D01*
X125300500Y-120375500D01*
X125300500Y-116700002D01*
X125844726Y-116700002D01*
X125863808Y-117051954D01*
X125920833Y-117399793D01*
X125920834Y-117399796D01*
X126015126Y-117739408D01*
X126015127Y-117739410D01*
X126145588Y-118066844D01*
X126145597Y-118066862D01*
X126310695Y-118378269D01*
X126508498Y-118670006D01*
X126508505Y-118670016D01*
X126672012Y-118862510D01*
X126736686Y-118938650D01*
X126992580Y-119181046D01*
X127273182Y-119394354D01*
X127575202Y-119576074D01*
X127575206Y-119576075D01*
X127575210Y-119576078D01*
X127895088Y-119724070D01*
X127895092Y-119724070D01*
X127895099Y-119724074D01*
X128229122Y-119836619D01*
X128573355Y-119912391D01*
X128923763Y-119950500D01*
X128923769Y-119950500D01*
X129276231Y-119950500D01*
X129276237Y-119950500D01*
X129626645Y-119912391D01*
X129970878Y-119836619D01*
X130304901Y-119724074D01*
X130304908Y-119724070D01*
X130304911Y-119724070D01*
X130624789Y-119576078D01*
X130624798Y-119576074D01*
X130926818Y-119394354D01*
X131207420Y-119181046D01*
X131463314Y-118938650D01*
X131691501Y-118670008D01*
X131889305Y-118378269D01*
X132054407Y-118066854D01*
X132184871Y-117739414D01*
X132279168Y-117399788D01*
X132336191Y-117051957D01*
X132355274Y-116700000D01*
X132350567Y-116613194D01*
X132343824Y-116488825D01*
X132336191Y-116348043D01*
X132279168Y-116000212D01*
X132236704Y-115847271D01*
X132184873Y-115660591D01*
X132184872Y-115660589D01*
X132054411Y-115333155D01*
X132054402Y-115333137D01*
X131889305Y-115021731D01*
X131691501Y-114729992D01*
X131691497Y-114729987D01*
X131691494Y-114729983D01*
X131463314Y-114461350D01*
X131410249Y-114411084D01*
X131207420Y-114218954D01*
X131207413Y-114218948D01*
X131207410Y-114218946D01*
X130996780Y-114058830D01*
X130926818Y-114005646D01*
X130926815Y-114005644D01*
X130624802Y-113823928D01*
X130624789Y-113823921D01*
X130304911Y-113675929D01*
X130304906Y-113675928D01*
X130304903Y-113675927D01*
X130304901Y-113675926D01*
X130198432Y-113640052D01*
X129970880Y-113563381D01*
X129626643Y-113487608D01*
X129276238Y-113449500D01*
X129276237Y-113449500D01*
X128923763Y-113449500D01*
X128923761Y-113449500D01*
X128573356Y-113487608D01*
X128229119Y-113563381D01*
X127895093Y-113675928D01*
X127895088Y-113675929D01*
X127575210Y-113823921D01*
X127575197Y-113823928D01*
X127273184Y-114005644D01*
X126992589Y-114218946D01*
X126992580Y-114218954D01*
X126736685Y-114461350D01*
X126508505Y-114729983D01*
X126508498Y-114729993D01*
X126310695Y-115021730D01*
X126145597Y-115333137D01*
X126145588Y-115333155D01*
X126015127Y-115660589D01*
X126015126Y-115660591D01*
X125920834Y-116000203D01*
X125920833Y-116000206D01*
X125863808Y-116348045D01*
X125844726Y-116699997D01*
X125844726Y-116700002D01*
X125300500Y-116700002D01*
X125300500Y-100100346D01*
X126495702Y-100100346D01*
X126505819Y-100338528D01*
X126505819Y-100338532D01*
X126556045Y-100571580D01*
X126644935Y-100792788D01*
X126644936Y-100792790D01*
X126763851Y-100985921D01*
X126769932Y-100995796D01*
X126886738Y-101128513D01*
X126916253Y-101191843D01*
X126906844Y-101261076D01*
X126861498Y-101314232D01*
X126836989Y-101326619D01*
X126757669Y-101356203D01*
X126757664Y-101356206D01*
X126642455Y-101442452D01*
X126642452Y-101442455D01*
X126556206Y-101557664D01*
X126556202Y-101557671D01*
X126505908Y-101692517D01*
X126499501Y-101752116D01*
X126499500Y-101752135D01*
X126499500Y-103647870D01*
X126499501Y-103647876D01*
X126505908Y-103707483D01*
X126556202Y-103842328D01*
X126556206Y-103842335D01*
X126642452Y-103957544D01*
X126642455Y-103957547D01*
X126757664Y-104043793D01*
X126757671Y-104043797D01*
X126892517Y-104094091D01*
X126892516Y-104094091D01*
X126899444Y-104094835D01*
X126952127Y-104100500D01*
X127680663Y-104100499D01*
X127747702Y-104120183D01*
X127768344Y-104136818D01*
X128981182Y-105349656D01*
X128990448Y-105360024D01*
X129012492Y-105387666D01*
X129062395Y-105431266D01*
X129068491Y-105436965D01*
X129075471Y-105443945D01*
X129106771Y-105470076D01*
X129108859Y-105471860D01*
X129182004Y-105535765D01*
X129185753Y-105538005D01*
X129201622Y-105549264D01*
X129204980Y-105552067D01*
X129204983Y-105552070D01*
X129289466Y-105600006D01*
X129291834Y-105601384D01*
X129375236Y-105651215D01*
X129379326Y-105652749D01*
X129396950Y-105660995D01*
X129400749Y-105663151D01*
X129400751Y-105663152D01*
X129400755Y-105663154D01*
X129492479Y-105695249D01*
X129495020Y-105696170D01*
X129585976Y-105730307D01*
X129590266Y-105731085D01*
X129609094Y-105736055D01*
X129613218Y-105737498D01*
X129709279Y-105752712D01*
X129711827Y-105753145D01*
X129790022Y-105767336D01*
X129807452Y-105770500D01*
X129807453Y-105770500D01*
X129811822Y-105770500D01*
X129831220Y-105772026D01*
X129835541Y-105772711D01*
X129932667Y-105770530D01*
X129935449Y-105770500D01*
X132043838Y-105770500D01*
X132110877Y-105790185D01*
X132156632Y-105842989D01*
X132166576Y-105912147D01*
X132137551Y-105975703D01*
X132114962Y-105996075D01*
X132023179Y-106060342D01*
X131862342Y-106221179D01*
X131731865Y-106407517D01*
X131635734Y-106613673D01*
X131635730Y-106613682D01*
X131583127Y-106809999D01*
X131583128Y-106810000D01*
X132946314Y-106810000D01*
X132934359Y-106821955D01*
X132876835Y-106934852D01*
X132857014Y-107060000D01*
X132876835Y-107185148D01*
X132934359Y-107298045D01*
X132946314Y-107310000D01*
X131583128Y-107310000D01*
X131635730Y-107506317D01*
X131635734Y-107506326D01*
X131731865Y-107712482D01*
X131862342Y-107898820D01*
X132023179Y-108059657D01*
X132114962Y-108123925D01*
X132158587Y-108178503D01*
X132165779Y-108248001D01*
X132134257Y-108310356D01*
X132074027Y-108345769D01*
X132043838Y-108349500D01*
X129446729Y-108349500D01*
X129403396Y-108341682D01*
X129363123Y-108326661D01*
X129307189Y-108284790D01*
X129282772Y-108219325D01*
X129297624Y-108151052D01*
X129320656Y-108120956D01*
X129354736Y-108088293D01*
X129496450Y-107896683D01*
X129603742Y-107683884D01*
X129673524Y-107456020D01*
X129679418Y-107410000D01*
X128533686Y-107410000D01*
X128559493Y-107369844D01*
X128600000Y-107231889D01*
X128600000Y-107088111D01*
X128559493Y-106950156D01*
X128533686Y-106910000D01*
X129678266Y-106910000D01*
X129678265Y-106909999D01*
X129643474Y-106748566D01*
X129554616Y-106527437D01*
X129429666Y-106324505D01*
X129272219Y-106145610D01*
X129272213Y-106145603D01*
X129086805Y-105995897D01*
X129086795Y-105995890D01*
X128878751Y-105879668D01*
X128654052Y-105800277D01*
X128654038Y-105800273D01*
X128419167Y-105760000D01*
X128350000Y-105760000D01*
X128350000Y-106724498D01*
X128242315Y-106675320D01*
X128135763Y-106660000D01*
X128064237Y-106660000D01*
X127957685Y-106675320D01*
X127850000Y-106724498D01*
X127850000Y-105760000D01*
X127840508Y-105760000D01*
X127662549Y-105775147D01*
X127662546Y-105775148D01*
X127431921Y-105835197D01*
X127214758Y-105933360D01*
X127214755Y-105933362D01*
X127017311Y-106066812D01*
X127017309Y-106066814D01*
X126845263Y-106231706D01*
X126703549Y-106423316D01*
X126596257Y-106636115D01*
X126526475Y-106863979D01*
X126520582Y-106910000D01*
X127666314Y-106910000D01*
X127640507Y-106950156D01*
X127600000Y-107088111D01*
X127600000Y-107231889D01*
X127640507Y-107369844D01*
X127666314Y-107410000D01*
X126521734Y-107410000D01*
X126556525Y-107571433D01*
X126645383Y-107792562D01*
X126770333Y-107995494D01*
X126887240Y-108128327D01*
X126916754Y-108191657D01*
X126907344Y-108260890D01*
X126861998Y-108314045D01*
X126837490Y-108326432D01*
X126757669Y-108356203D01*
X126757664Y-108356206D01*
X126642455Y-108442452D01*
X126642452Y-108442455D01*
X126556206Y-108557664D01*
X126556202Y-108557671D01*
X126505908Y-108692517D01*
X126499501Y-108752116D01*
X126499500Y-108752135D01*
X126499500Y-110647870D01*
X126499501Y-110647876D01*
X126505908Y-110707483D01*
X126556202Y-110842328D01*
X126556206Y-110842335D01*
X126642452Y-110957544D01*
X126642455Y-110957547D01*
X126757664Y-111043793D01*
X126757671Y-111043797D01*
X126892517Y-111094091D01*
X126892516Y-111094091D01*
X126899444Y-111094835D01*
X126952127Y-111100500D01*
X129247872Y-111100499D01*
X129307483Y-111094091D01*
X129442331Y-111043796D01*
X129557546Y-110957546D01*
X129600252Y-110900499D01*
X129600485Y-110900188D01*
X129656419Y-110858318D01*
X129699751Y-110850500D01*
X132487857Y-110850500D01*
X132519949Y-110854724D01*
X132635308Y-110885635D01*
X132805214Y-110900499D01*
X132805215Y-110900500D01*
X132805216Y-110900500D01*
X132942664Y-110900500D01*
X133009703Y-110920185D01*
X133030345Y-110936819D01*
X136123182Y-114029656D01*
X136132448Y-114040024D01*
X136154492Y-114067666D01*
X136204395Y-114111266D01*
X136210491Y-114116965D01*
X136217473Y-114123947D01*
X136217477Y-114123950D01*
X136248714Y-114150028D01*
X136250833Y-114151837D01*
X136324005Y-114215766D01*
X136327755Y-114218006D01*
X136343626Y-114229266D01*
X136346982Y-114232068D01*
X136431485Y-114280016D01*
X136433806Y-114281368D01*
X136517227Y-114331210D01*
X136517230Y-114331211D01*
X136517236Y-114331215D01*
X136521327Y-114332750D01*
X136538955Y-114340996D01*
X136542755Y-114343153D01*
X136634450Y-114375238D01*
X136637023Y-114376172D01*
X136677700Y-114391438D01*
X136727976Y-114410307D01*
X136732273Y-114411086D01*
X136751083Y-114416051D01*
X136755218Y-114417498D01*
X136761827Y-114418544D01*
X136768528Y-114419606D01*
X136801538Y-114429697D01*
X136896337Y-114473903D01*
X137124592Y-114535063D01*
X137312918Y-114551539D01*
X137359999Y-114555659D01*
X137360000Y-114555659D01*
X137360001Y-114555659D01*
X137399234Y-114552226D01*
X137595408Y-114535063D01*
X137823663Y-114473903D01*
X138037830Y-114374035D01*
X138231401Y-114238495D01*
X138353329Y-114116566D01*
X138414648Y-114083084D01*
X138484340Y-114088068D01*
X138540274Y-114129939D01*
X138557189Y-114160917D01*
X138606202Y-114292328D01*
X138606203Y-114292329D01*
X138624766Y-114317126D01*
X138649184Y-114382590D01*
X138649500Y-114391438D01*
X138649500Y-115676000D01*
X138629815Y-115743039D01*
X138577011Y-115788794D01*
X138525500Y-115800000D01*
X138150000Y-115800000D01*
X138150000Y-116750392D01*
X138032969Y-116690762D01*
X137933451Y-116675000D01*
X137866549Y-116675000D01*
X137767031Y-116690762D01*
X137650000Y-116750392D01*
X137650000Y-115800000D01*
X137252155Y-115800000D01*
X137192627Y-115806401D01*
X137192620Y-115806403D01*
X137057913Y-115856645D01*
X137057906Y-115856649D01*
X136942812Y-115942809D01*
X136942809Y-115942812D01*
X136856649Y-116057906D01*
X136856645Y-116057913D01*
X136806403Y-116192620D01*
X136806401Y-116192627D01*
X136800000Y-116252155D01*
X136800000Y-116850000D01*
X137550393Y-116850000D01*
X137490762Y-116967031D01*
X137469702Y-117100000D01*
X137490762Y-117232969D01*
X137550393Y-117350000D01*
X136800000Y-117350000D01*
X136800000Y-117947844D01*
X136806401Y-118007372D01*
X136806403Y-118007379D01*
X136856645Y-118142086D01*
X136856649Y-118142093D01*
X136942809Y-118257187D01*
X136942812Y-118257190D01*
X137057906Y-118343350D01*
X137057913Y-118343354D01*
X137192620Y-118393596D01*
X137192627Y-118393598D01*
X137252155Y-118399999D01*
X137252172Y-118400000D01*
X137650000Y-118400000D01*
X137650000Y-117449607D01*
X137767031Y-117509238D01*
X137866549Y-117525000D01*
X137933451Y-117525000D01*
X138032969Y-117509238D01*
X138150000Y-117449607D01*
X138150000Y-118400000D01*
X138547828Y-118400000D01*
X138547844Y-118399999D01*
X138607372Y-118393598D01*
X138607379Y-118393596D01*
X138742086Y-118343354D01*
X138742093Y-118343350D01*
X138857187Y-118257190D01*
X138857190Y-118257187D01*
X138943350Y-118142093D01*
X138947604Y-118134304D01*
X138950170Y-118135705D01*
X138983176Y-118091587D01*
X139048633Y-118067150D01*
X139116910Y-118081981D01*
X139125840Y-118087352D01*
X139128751Y-118089274D01*
X139141631Y-118099040D01*
X139258746Y-118200521D01*
X139440750Y-118305601D01*
X139440752Y-118305601D01*
X139440756Y-118305604D01*
X139639367Y-118374344D01*
X139847398Y-118404254D01*
X140057330Y-118394254D01*
X140261576Y-118344704D01*
X140347199Y-118305601D01*
X140452743Y-118257401D01*
X140452746Y-118257399D01*
X140452753Y-118257396D01*
X140623952Y-118135486D01*
X140671336Y-118085789D01*
X140683749Y-118074428D01*
X140767666Y-118007508D01*
X140821200Y-117946233D01*
X140880129Y-117908701D01*
X140949998Y-117908985D01*
X141008622Y-117946999D01*
X141012049Y-117951166D01*
X141099909Y-118062887D01*
X141258746Y-118200521D01*
X141440750Y-118305601D01*
X141440752Y-118305601D01*
X141440756Y-118305604D01*
X141639367Y-118374344D01*
X141847398Y-118404254D01*
X142057330Y-118394254D01*
X142261576Y-118344704D01*
X142347199Y-118305601D01*
X142452743Y-118257401D01*
X142452746Y-118257399D01*
X142452753Y-118257396D01*
X142623952Y-118135486D01*
X142665810Y-118091587D01*
X142768986Y-117983378D01*
X142795540Y-117942058D01*
X142848343Y-117896303D01*
X142917502Y-117886359D01*
X142981058Y-117915383D01*
X142997326Y-117932444D01*
X143099909Y-118062887D01*
X143258746Y-118200521D01*
X143440750Y-118305601D01*
X143440752Y-118305601D01*
X143440756Y-118305604D01*
X143639367Y-118374344D01*
X143847398Y-118404254D01*
X144057330Y-118394254D01*
X144261576Y-118344704D01*
X144347199Y-118305601D01*
X144452743Y-118257401D01*
X144452746Y-118257399D01*
X144452753Y-118257396D01*
X144623952Y-118135486D01*
X144665810Y-118091587D01*
X144768985Y-117983379D01*
X144768986Y-117983378D01*
X144882613Y-117806572D01*
X144960725Y-117611457D01*
X145000500Y-117405085D01*
X145000500Y-116847575D01*
X144985528Y-116690782D01*
X144926316Y-116489125D01*
X144830011Y-116302318D01*
X144830009Y-116302316D01*
X144830008Y-116302313D01*
X144700094Y-116137116D01*
X144700090Y-116137112D01*
X144541253Y-115999478D01*
X144359249Y-115894398D01*
X144359245Y-115894396D01*
X144359244Y-115894396D01*
X144160633Y-115825656D01*
X143952602Y-115795746D01*
X143952598Y-115795746D01*
X143742672Y-115805745D01*
X143538421Y-115855296D01*
X143538417Y-115855298D01*
X143347256Y-115942598D01*
X143347251Y-115942601D01*
X143176046Y-116064515D01*
X143176040Y-116064520D01*
X143031016Y-116216618D01*
X143004458Y-116257943D01*
X142951653Y-116303697D01*
X142882494Y-116313640D01*
X142818939Y-116284614D01*
X142802673Y-116267554D01*
X142700094Y-116137116D01*
X142700090Y-116137112D01*
X142541253Y-115999478D01*
X142359249Y-115894398D01*
X142359245Y-115894396D01*
X142359244Y-115894396D01*
X142160633Y-115825656D01*
X141952602Y-115795746D01*
X141952598Y-115795746D01*
X141742672Y-115805745D01*
X141538421Y-115855296D01*
X141538417Y-115855298D01*
X141347256Y-115942598D01*
X141347246Y-115942604D01*
X141346421Y-115943192D01*
X141345940Y-115943358D01*
X141342138Y-115945554D01*
X141341714Y-115944820D01*
X141280392Y-115966040D01*
X141212493Y-115949563D01*
X141164281Y-115898993D01*
X141150500Y-115842180D01*
X141150500Y-114574500D01*
X141170185Y-114507461D01*
X141222989Y-114461706D01*
X141274500Y-114450500D01*
X150270664Y-114450500D01*
X150337703Y-114470185D01*
X150358345Y-114486819D01*
X150853181Y-114981655D01*
X150886666Y-115042978D01*
X150889500Y-115069336D01*
X150889500Y-116091769D01*
X150869815Y-116158808D01*
X150864767Y-116166080D01*
X150796204Y-116257668D01*
X150796202Y-116257671D01*
X150766661Y-116336876D01*
X150724790Y-116392810D01*
X150659325Y-116417227D01*
X150591052Y-116402375D01*
X150560957Y-116379344D01*
X150528293Y-116345264D01*
X150336683Y-116203549D01*
X150123884Y-116096257D01*
X149896020Y-116026475D01*
X149850000Y-116020581D01*
X149850000Y-117164498D01*
X149742315Y-117115320D01*
X149635763Y-117100000D01*
X149564237Y-117100000D01*
X149457685Y-117115320D01*
X149350000Y-117164498D01*
X149350000Y-116021734D01*
X149349999Y-116021734D01*
X149188566Y-116056525D01*
X148967437Y-116145383D01*
X148764505Y-116270333D01*
X148585610Y-116427780D01*
X148585603Y-116427786D01*
X148435897Y-116613194D01*
X148435890Y-116613204D01*
X148319668Y-116821248D01*
X148240277Y-117045947D01*
X148240273Y-117045961D01*
X148200000Y-117280832D01*
X148200000Y-117350000D01*
X149166314Y-117350000D01*
X149140507Y-117390156D01*
X149100000Y-117528111D01*
X149100000Y-117671889D01*
X149140507Y-117809844D01*
X149166314Y-117850000D01*
X148200000Y-117850000D01*
X148200000Y-117859491D01*
X148215147Y-118037450D01*
X148215148Y-118037453D01*
X148275197Y-118268078D01*
X148373360Y-118485241D01*
X148373362Y-118485244D01*
X148506812Y-118682688D01*
X148506814Y-118682690D01*
X148671706Y-118854736D01*
X148863316Y-118996450D01*
X149076115Y-119103741D01*
X149303987Y-119173526D01*
X149303985Y-119173526D01*
X149350000Y-119179418D01*
X149350000Y-118035501D01*
X149457685Y-118084680D01*
X149564237Y-118100000D01*
X149635763Y-118100000D01*
X149742315Y-118084680D01*
X149850000Y-118035501D01*
X149850000Y-119178264D01*
X150011434Y-119143473D01*
X150232562Y-119054616D01*
X150435494Y-118929666D01*
X150568326Y-118812760D01*
X150631656Y-118783245D01*
X150700889Y-118792654D01*
X150754045Y-118838000D01*
X150766432Y-118862510D01*
X150796202Y-118942328D01*
X150796206Y-118942335D01*
X150882452Y-119057544D01*
X150882455Y-119057547D01*
X150997664Y-119143793D01*
X150997671Y-119143797D01*
X151132517Y-119194091D01*
X151132516Y-119194091D01*
X151139444Y-119194835D01*
X151192127Y-119200500D01*
X153087872Y-119200499D01*
X153147483Y-119194091D01*
X153282331Y-119143796D01*
X153397546Y-119057546D01*
X153483796Y-118942331D01*
X153534091Y-118807483D01*
X153540500Y-118747873D01*
X153540499Y-116700002D01*
X175844726Y-116700002D01*
X175863808Y-117051954D01*
X175920833Y-117399793D01*
X175920834Y-117399796D01*
X176015126Y-117739408D01*
X176015127Y-117739410D01*
X176145588Y-118066844D01*
X176145597Y-118066862D01*
X176310695Y-118378269D01*
X176508498Y-118670006D01*
X176508505Y-118670016D01*
X176672012Y-118862510D01*
X176736686Y-118938650D01*
X176992580Y-119181046D01*
X177273182Y-119394354D01*
X177575202Y-119576074D01*
X177575206Y-119576075D01*
X177575210Y-119576078D01*
X177895088Y-119724070D01*
X177895092Y-119724070D01*
X177895099Y-119724074D01*
X178229122Y-119836619D01*
X178573355Y-119912391D01*
X178923763Y-119950500D01*
X178923769Y-119950500D01*
X179276231Y-119950500D01*
X179276237Y-119950500D01*
X179626645Y-119912391D01*
X179970878Y-119836619D01*
X180304901Y-119724074D01*
X180304908Y-119724070D01*
X180304911Y-119724070D01*
X180624789Y-119576078D01*
X180624798Y-119576074D01*
X180926818Y-119394354D01*
X181207420Y-119181046D01*
X181463314Y-118938650D01*
X181691501Y-118670008D01*
X181889305Y-118378269D01*
X182054407Y-118066854D01*
X182184871Y-117739414D01*
X182279168Y-117399788D01*
X182336191Y-117051957D01*
X182355274Y-116700000D01*
X182350567Y-116613194D01*
X182343824Y-116488825D01*
X182336191Y-116348043D01*
X182279168Y-116000212D01*
X182236704Y-115847271D01*
X182184873Y-115660591D01*
X182184872Y-115660589D01*
X182054411Y-115333155D01*
X182054402Y-115333137D01*
X181889305Y-115021731D01*
X181691501Y-114729992D01*
X181691497Y-114729987D01*
X181691494Y-114729983D01*
X181463314Y-114461350D01*
X181410249Y-114411084D01*
X181207420Y-114218954D01*
X181207413Y-114218948D01*
X181207410Y-114218946D01*
X180996780Y-114058830D01*
X180926818Y-114005646D01*
X180926815Y-114005644D01*
X180624802Y-113823928D01*
X180624789Y-113823921D01*
X180304911Y-113675929D01*
X180304906Y-113675928D01*
X180304903Y-113675927D01*
X180304901Y-113675926D01*
X180198432Y-113640052D01*
X179970880Y-113563381D01*
X179626643Y-113487608D01*
X179276238Y-113449500D01*
X179276237Y-113449500D01*
X178923763Y-113449500D01*
X178923761Y-113449500D01*
X178573356Y-113487608D01*
X178229119Y-113563381D01*
X177895093Y-113675928D01*
X177895088Y-113675929D01*
X177575210Y-113823921D01*
X177575197Y-113823928D01*
X177273184Y-114005644D01*
X176992589Y-114218946D01*
X176992580Y-114218954D01*
X176736685Y-114461350D01*
X176508505Y-114729983D01*
X176508498Y-114729993D01*
X176310695Y-115021730D01*
X176145597Y-115333137D01*
X176145588Y-115333155D01*
X176015127Y-115660589D01*
X176015126Y-115660591D01*
X175920834Y-116000203D01*
X175920833Y-116000206D01*
X175863808Y-116348045D01*
X175844726Y-116699997D01*
X175844726Y-116700002D01*
X153540499Y-116700002D01*
X153540499Y-116452128D01*
X153534189Y-116393428D01*
X153534091Y-116392516D01*
X153483797Y-116257671D01*
X153483795Y-116257668D01*
X153415233Y-116166080D01*
X153390816Y-116100615D01*
X153390500Y-116091769D01*
X153390500Y-114577185D01*
X153391280Y-114563300D01*
X153392141Y-114555659D01*
X153395238Y-114528173D01*
X153391579Y-114473905D01*
X153390781Y-114462061D01*
X153390500Y-114453720D01*
X153390500Y-114443852D01*
X153390500Y-114443845D01*
X153386844Y-114403224D01*
X153386630Y-114400498D01*
X153386019Y-114391438D01*
X153380097Y-114303588D01*
X153379028Y-114299345D01*
X153375768Y-114280155D01*
X153375377Y-114275815D01*
X153375377Y-114275812D01*
X153349507Y-114182079D01*
X153348856Y-114179610D01*
X153325096Y-114085317D01*
X153323289Y-114081339D01*
X153316653Y-114063034D01*
X153315493Y-114058831D01*
X153301443Y-114029656D01*
X153273298Y-113971211D01*
X153272200Y-113968864D01*
X153232007Y-113880375D01*
X153229518Y-113876782D01*
X153219728Y-113859970D01*
X153217829Y-113856027D01*
X153217827Y-113856024D01*
X153217825Y-113856020D01*
X153217824Y-113856019D01*
X153160740Y-113777451D01*
X153159128Y-113775180D01*
X153103820Y-113695346D01*
X153100729Y-113692255D01*
X153088093Y-113677461D01*
X153085521Y-113673921D01*
X153085518Y-113673918D01*
X153015299Y-113606781D01*
X153013310Y-113604836D01*
X152415894Y-113007420D01*
X152382409Y-112946097D01*
X152387393Y-112876405D01*
X152429265Y-112820472D01*
X152491419Y-112796337D01*
X152596132Y-112786024D01*
X152784727Y-112728814D01*
X152958538Y-112635910D01*
X153110883Y-112510883D01*
X153235910Y-112358538D01*
X153328814Y-112184727D01*
X153386024Y-111996132D01*
X153405341Y-111800000D01*
X153386024Y-111603868D01*
X153328814Y-111415273D01*
X153328811Y-111415269D01*
X153328811Y-111415266D01*
X153235913Y-111241467D01*
X153235909Y-111241460D01*
X153110883Y-111089116D01*
X152958539Y-110964090D01*
X152958532Y-110964086D01*
X152784733Y-110871188D01*
X152784727Y-110871186D01*
X152596132Y-110813976D01*
X152596129Y-110813975D01*
X152400000Y-110794659D01*
X152203870Y-110813975D01*
X152015266Y-110871188D01*
X151841467Y-110964086D01*
X151841460Y-110964090D01*
X151689116Y-111089116D01*
X151635733Y-111154165D01*
X151577988Y-111193499D01*
X151539880Y-111199500D01*
X142258676Y-111199500D01*
X142191637Y-111179815D01*
X142170995Y-111163181D01*
X138736819Y-107729005D01*
X138703334Y-107667682D01*
X138700500Y-107641324D01*
X138700500Y-97867143D01*
X138703334Y-97840785D01*
X138704359Y-97836073D01*
X138700816Y-97786537D01*
X138700500Y-97777690D01*
X138700500Y-97764201D01*
X138698579Y-97750843D01*
X138697633Y-97742045D01*
X138697425Y-97739139D01*
X138694091Y-97692517D01*
X138692407Y-97688002D01*
X138685850Y-97662312D01*
X138685165Y-97657543D01*
X138664530Y-97612360D01*
X138661155Y-97604212D01*
X138643796Y-97557669D01*
X138640905Y-97553807D01*
X138627379Y-97531010D01*
X138625377Y-97526627D01*
X138592860Y-97489100D01*
X138587306Y-97482207D01*
X138579228Y-97471416D01*
X138579226Y-97471413D01*
X138579221Y-97471407D01*
X138569677Y-97461863D01*
X138563658Y-97455400D01*
X138531128Y-97417857D01*
X138531125Y-97417854D01*
X138527066Y-97415246D01*
X138506428Y-97398614D01*
X135161385Y-94053571D01*
X135144750Y-94032928D01*
X135142145Y-94028874D01*
X135142143Y-94028872D01*
X135104614Y-93996353D01*
X135098147Y-93990333D01*
X135088593Y-93980779D01*
X135077785Y-93972688D01*
X135070904Y-93967144D01*
X135035940Y-93936847D01*
X135033372Y-93934622D01*
X135033367Y-93934619D01*
X135028983Y-93932617D01*
X135006194Y-93919096D01*
X135002331Y-93916204D01*
X135002329Y-93916203D01*
X134955790Y-93898845D01*
X134947622Y-93895461D01*
X134903675Y-93875391D01*
X134850872Y-93829637D01*
X134842806Y-93815002D01*
X134830042Y-93787630D01*
X134792568Y-93707266D01*
X134662047Y-93520861D01*
X134662045Y-93520858D01*
X134501141Y-93359954D01*
X134314734Y-93229432D01*
X134314732Y-93229431D01*
X134305285Y-93225026D01*
X134265131Y-93206301D01*
X134212694Y-93160131D01*
X134193542Y-93092937D01*
X134213758Y-93026056D01*
X134265134Y-92981539D01*
X134332479Y-92950135D01*
X134332481Y-92950134D01*
X134518820Y-92819657D01*
X134679657Y-92658820D01*
X134810134Y-92472482D01*
X134906265Y-92266326D01*
X134906269Y-92266317D01*
X134958872Y-92070000D01*
X133595686Y-92070000D01*
X133607641Y-92058045D01*
X133665165Y-91945148D01*
X133684986Y-91820000D01*
X133665165Y-91694852D01*
X133607641Y-91581955D01*
X133595686Y-91570000D01*
X134958872Y-91570000D01*
X134958872Y-91569999D01*
X134906269Y-91373682D01*
X134906265Y-91373673D01*
X134810134Y-91167517D01*
X134679657Y-90981179D01*
X134518820Y-90820342D01*
X134332482Y-90689865D01*
X134126326Y-90593734D01*
X134126317Y-90593730D01*
X133906610Y-90534860D01*
X133906599Y-90534858D01*
X133736766Y-90520000D01*
X133530000Y-90520000D01*
X133530000Y-91504314D01*
X133518045Y-91492359D01*
X133405148Y-91434835D01*
X133311481Y-91420000D01*
X133248519Y-91420000D01*
X133154852Y-91434835D01*
X133041955Y-91492359D01*
X133030000Y-91504314D01*
X133030000Y-90520000D01*
X132823233Y-90520000D01*
X132653400Y-90534858D01*
X132653389Y-90534860D01*
X132433682Y-90593730D01*
X132433673Y-90593734D01*
X132227517Y-90689865D01*
X132041179Y-90820342D01*
X131880342Y-90981179D01*
X131749865Y-91167517D01*
X131653734Y-91373673D01*
X131653730Y-91373682D01*
X131601127Y-91569999D01*
X131601128Y-91570000D01*
X132964314Y-91570000D01*
X132952359Y-91581955D01*
X132894835Y-91694852D01*
X132875014Y-91820000D01*
X132894835Y-91945148D01*
X132952359Y-92058045D01*
X132964314Y-92070000D01*
X131601128Y-92070000D01*
X131653730Y-92266317D01*
X131653734Y-92266326D01*
X131749865Y-92472482D01*
X131880342Y-92658820D01*
X132041179Y-92819657D01*
X132227515Y-92950132D01*
X132276865Y-92973144D01*
X132329304Y-93019316D01*
X132348457Y-93086510D01*
X132328242Y-93153391D01*
X132276867Y-93197908D01*
X132209268Y-93229431D01*
X132209264Y-93229433D01*
X132022858Y-93359954D01*
X131861954Y-93520858D01*
X131731432Y-93707265D01*
X131731431Y-93707267D01*
X131635261Y-93913502D01*
X131635259Y-93913509D01*
X131605987Y-94022755D01*
X131569622Y-94082415D01*
X131506775Y-94112944D01*
X131437399Y-94104649D01*
X131404628Y-94084042D01*
X131381962Y-94064240D01*
X131381957Y-94064236D01*
X131381956Y-94064235D01*
X131378201Y-94061991D01*
X131362333Y-94050732D01*
X131358979Y-94047932D01*
X131358978Y-94047931D01*
X131358973Y-94047927D01*
X131274508Y-94000001D01*
X131272104Y-93998601D01*
X131188723Y-93948784D01*
X131184629Y-93947248D01*
X131167004Y-93939002D01*
X131163205Y-93936846D01*
X131071529Y-93904767D01*
X131068913Y-93903819D01*
X130977989Y-93869694D01*
X130977979Y-93869691D01*
X130973683Y-93868912D01*
X130954878Y-93863949D01*
X130950744Y-93862502D01*
X130950737Y-93862501D01*
X130854808Y-93847307D01*
X130852065Y-93846841D01*
X130756510Y-93829500D01*
X130756507Y-93829500D01*
X130752132Y-93829500D01*
X130732729Y-93827972D01*
X130728420Y-93827289D01*
X130631319Y-93829469D01*
X130628537Y-93829500D01*
X128965462Y-93829500D01*
X128904989Y-93813754D01*
X128878954Y-93799210D01*
X128799532Y-93771148D01*
X128654170Y-93719788D01*
X128419209Y-93679500D01*
X128419200Y-93679500D01*
X127840503Y-93679500D01*
X127840484Y-93679500D01*
X127662463Y-93694652D01*
X127431751Y-93754724D01*
X127214519Y-93852919D01*
X127214511Y-93852924D01*
X127017006Y-93986413D01*
X127016997Y-93986421D01*
X126844881Y-94151379D01*
X126703123Y-94343050D01*
X126703120Y-94343054D01*
X126595796Y-94555920D01*
X126595793Y-94555926D01*
X126525983Y-94783878D01*
X126495702Y-95020346D01*
X126505819Y-95258528D01*
X126505819Y-95258532D01*
X126556045Y-95491580D01*
X126644935Y-95712788D01*
X126644936Y-95712790D01*
X126769931Y-95915795D01*
X126927436Y-96094755D01*
X127112920Y-96244523D01*
X127112935Y-96244531D01*
X127112942Y-96244538D01*
X127117291Y-96247478D01*
X127116693Y-96248362D01*
X127161861Y-96294411D01*
X127176053Y-96362824D01*
X127151005Y-96428050D01*
X127121897Y-96455520D01*
X127017007Y-96526413D01*
X127016997Y-96526421D01*
X126844881Y-96691379D01*
X126703123Y-96883050D01*
X126703120Y-96883054D01*
X126595796Y-97095920D01*
X126595793Y-97095926D01*
X126525983Y-97323878D01*
X126495702Y-97560346D01*
X126505819Y-97798528D01*
X126505819Y-97798532D01*
X126556045Y-98031580D01*
X126644935Y-98252788D01*
X126644936Y-98252790D01*
X126769931Y-98455795D01*
X126927436Y-98634755D01*
X127112920Y-98784523D01*
X127112935Y-98784531D01*
X127112942Y-98784538D01*
X127117291Y-98787478D01*
X127116693Y-98788362D01*
X127161861Y-98834411D01*
X127176053Y-98902824D01*
X127151005Y-98968050D01*
X127121897Y-98995520D01*
X127017007Y-99066413D01*
X127016997Y-99066421D01*
X126844881Y-99231379D01*
X126703123Y-99423050D01*
X126703120Y-99423054D01*
X126595796Y-99635920D01*
X126595793Y-99635926D01*
X126525983Y-99863878D01*
X126495702Y-100100346D01*
X125300500Y-100100346D01*
X125300500Y-86700002D01*
X125844726Y-86700002D01*
X125863808Y-87051954D01*
X125895039Y-87242455D01*
X125916501Y-87373372D01*
X125920833Y-87399793D01*
X125920834Y-87399796D01*
X126015126Y-87739408D01*
X126015127Y-87739410D01*
X126145588Y-88066844D01*
X126145597Y-88066862D01*
X126232257Y-88230320D01*
X126310695Y-88378269D01*
X126470508Y-88613976D01*
X126508498Y-88670006D01*
X126508505Y-88670016D01*
X126588413Y-88764090D01*
X126736686Y-88938650D01*
X126992580Y-89181046D01*
X127273182Y-89394354D01*
X127575202Y-89576074D01*
X127575206Y-89576075D01*
X127575210Y-89576078D01*
X127895088Y-89724070D01*
X127895092Y-89724070D01*
X127895099Y-89724074D01*
X128229122Y-89836619D01*
X128573355Y-89912391D01*
X128923763Y-89950500D01*
X128923769Y-89950500D01*
X129276231Y-89950500D01*
X129276237Y-89950500D01*
X129626645Y-89912391D01*
X129970878Y-89836619D01*
X130304901Y-89724074D01*
X130304908Y-89724070D01*
X130304911Y-89724070D01*
X130624789Y-89576078D01*
X130624798Y-89576074D01*
X130926818Y-89394354D01*
X131207420Y-89181046D01*
X131463314Y-88938650D01*
X131691501Y-88670008D01*
X131889305Y-88378269D01*
X132054407Y-88066854D01*
X132184871Y-87739414D01*
X132279168Y-87399788D01*
X132336191Y-87051957D01*
X132355274Y-86700000D01*
X132352147Y-86642335D01*
X132341603Y-86447870D01*
X133699500Y-86447870D01*
X133699501Y-86447876D01*
X133705908Y-86507483D01*
X133756202Y-86642328D01*
X133756206Y-86642335D01*
X133842452Y-86757544D01*
X133842455Y-86757547D01*
X133957664Y-86843793D01*
X133957671Y-86843797D01*
X134002618Y-86860561D01*
X134092517Y-86894091D01*
X134152127Y-86900500D01*
X134475500Y-86900499D01*
X134542539Y-86920183D01*
X134588294Y-86972987D01*
X134599500Y-87024499D01*
X134599500Y-87032858D01*
X134596667Y-87059206D01*
X134595641Y-87063927D01*
X134595641Y-87063929D01*
X134595641Y-87063930D01*
X134599184Y-87113461D01*
X134599500Y-87122308D01*
X134599500Y-87135797D01*
X134601420Y-87149154D01*
X134602365Y-87157946D01*
X134605909Y-87207486D01*
X134607593Y-87212000D01*
X134614148Y-87237682D01*
X134614834Y-87242455D01*
X134635457Y-87287612D01*
X134638845Y-87295790D01*
X134656203Y-87342329D01*
X134659096Y-87346194D01*
X134672617Y-87368983D01*
X134674619Y-87373367D01*
X134674622Y-87373372D01*
X134674623Y-87373373D01*
X134707144Y-87410904D01*
X134712688Y-87417785D01*
X134720779Y-87428593D01*
X134730333Y-87438147D01*
X134736353Y-87444614D01*
X134768872Y-87482143D01*
X134768874Y-87482145D01*
X134772928Y-87484750D01*
X134793571Y-87501385D01*
X136198614Y-88906427D01*
X136215250Y-88927071D01*
X136217857Y-88931128D01*
X136255390Y-88963650D01*
X136261869Y-88969683D01*
X136271396Y-88979210D01*
X136271403Y-88979216D01*
X136271407Y-88979220D01*
X136271410Y-88979222D01*
X136271411Y-88979223D01*
X136282198Y-88987298D01*
X136289091Y-88992853D01*
X136326622Y-89025374D01*
X136326624Y-89025375D01*
X136326625Y-89025375D01*
X136326627Y-89025377D01*
X136331010Y-89027379D01*
X136353807Y-89040905D01*
X136357669Y-89043796D01*
X136404212Y-89061155D01*
X136412360Y-89064530D01*
X136439673Y-89077004D01*
X136457540Y-89085164D01*
X136457541Y-89085164D01*
X136457543Y-89085165D01*
X136462312Y-89085850D01*
X136488002Y-89092407D01*
X136492517Y-89094091D01*
X136542049Y-89097633D01*
X136550843Y-89098579D01*
X136564201Y-89100500D01*
X136577692Y-89100500D01*
X136586538Y-89100815D01*
X136636073Y-89104359D01*
X136640785Y-89103334D01*
X136667143Y-89100500D01*
X144241324Y-89100500D01*
X144308363Y-89120185D01*
X144329005Y-89136819D01*
X145500005Y-90307819D01*
X145533490Y-90369142D01*
X145528506Y-90438834D01*
X145486634Y-90494767D01*
X145421170Y-90519184D01*
X145412324Y-90519500D01*
X144743215Y-90519500D01*
X144573312Y-90534364D01*
X144573302Y-90534366D01*
X144353511Y-90593258D01*
X144353502Y-90593261D01*
X144147267Y-90689431D01*
X144147265Y-90689432D01*
X143960858Y-90819954D01*
X143799954Y-90980858D01*
X143669432Y-91167265D01*
X143669431Y-91167267D01*
X143573261Y-91373502D01*
X143573258Y-91373511D01*
X143514366Y-91593302D01*
X143514364Y-91593313D01*
X143494532Y-91819998D01*
X143494532Y-91820001D01*
X143514364Y-92046686D01*
X143514366Y-92046697D01*
X143573258Y-92266488D01*
X143573261Y-92266497D01*
X143669431Y-92472732D01*
X143669432Y-92472734D01*
X143799954Y-92659141D01*
X143960858Y-92820045D01*
X143960861Y-92820047D01*
X144147266Y-92950568D01*
X144205275Y-92977618D01*
X144257714Y-93023791D01*
X144276866Y-93090984D01*
X144256650Y-93157865D01*
X144205275Y-93202382D01*
X144147267Y-93229431D01*
X144147265Y-93229432D01*
X143960858Y-93359954D01*
X143799954Y-93520858D01*
X143669432Y-93707265D01*
X143669431Y-93707267D01*
X143573261Y-93913502D01*
X143573258Y-93913511D01*
X143514366Y-94133302D01*
X143514364Y-94133313D01*
X143494532Y-94359998D01*
X143494532Y-94360001D01*
X143514364Y-94586686D01*
X143514366Y-94586697D01*
X143573258Y-94806488D01*
X143573261Y-94806497D01*
X143669431Y-95012732D01*
X143669432Y-95012734D01*
X143799954Y-95199141D01*
X143960858Y-95360045D01*
X143960861Y-95360047D01*
X144147266Y-95490568D01*
X144205275Y-95517618D01*
X144257714Y-95563791D01*
X144276866Y-95630984D01*
X144256650Y-95697865D01*
X144205275Y-95742382D01*
X144147267Y-95769431D01*
X144147265Y-95769432D01*
X143960858Y-95899954D01*
X143799954Y-96060858D01*
X143669432Y-96247265D01*
X143669431Y-96247267D01*
X143573261Y-96453502D01*
X143573258Y-96453511D01*
X143514366Y-96673302D01*
X143514364Y-96673313D01*
X143494532Y-96899998D01*
X143494532Y-96900001D01*
X143514364Y-97126686D01*
X143514366Y-97126697D01*
X143573258Y-97346488D01*
X143573261Y-97346497D01*
X143669431Y-97552732D01*
X143669432Y-97552734D01*
X143799954Y-97739141D01*
X143960858Y-97900045D01*
X143960861Y-97900047D01*
X144147266Y-98030568D01*
X144353504Y-98126739D01*
X144353506Y-98126739D01*
X144353513Y-98126742D01*
X144425481Y-98146025D01*
X144485142Y-98182389D01*
X144515672Y-98245236D01*
X144507378Y-98314611D01*
X144464513Y-98367375D01*
X144360856Y-98439956D01*
X144199954Y-98600858D01*
X144069432Y-98787265D01*
X144069431Y-98787267D01*
X143973261Y-98993502D01*
X143973258Y-98993511D01*
X143914366Y-99213302D01*
X143914364Y-99213313D01*
X143894532Y-99439998D01*
X143894532Y-99440001D01*
X143914364Y-99666686D01*
X143914366Y-99666697D01*
X143973258Y-99886488D01*
X143973261Y-99886497D01*
X144069431Y-100092732D01*
X144069432Y-100092734D01*
X144199954Y-100279141D01*
X144360858Y-100440045D01*
X144464512Y-100512624D01*
X144508137Y-100567201D01*
X144515331Y-100636699D01*
X144483808Y-100699054D01*
X144425483Y-100733974D01*
X144353509Y-100753259D01*
X144353502Y-100753261D01*
X144147267Y-100849431D01*
X144147265Y-100849432D01*
X143960858Y-100979954D01*
X143799954Y-101140858D01*
X143669432Y-101327265D01*
X143669431Y-101327267D01*
X143573261Y-101533502D01*
X143573258Y-101533511D01*
X143514366Y-101753302D01*
X143514364Y-101753313D01*
X143494532Y-101979998D01*
X143494532Y-101980001D01*
X143514364Y-102206686D01*
X143514366Y-102206697D01*
X143573258Y-102426488D01*
X143573261Y-102426497D01*
X143669431Y-102632732D01*
X143669432Y-102632734D01*
X143799954Y-102819141D01*
X143960858Y-102980045D01*
X143960861Y-102980047D01*
X144147266Y-103110568D01*
X144205275Y-103137618D01*
X144257714Y-103183791D01*
X144276866Y-103250984D01*
X144256650Y-103317865D01*
X144205275Y-103362382D01*
X144147267Y-103389431D01*
X144147265Y-103389432D01*
X143960858Y-103519954D01*
X143799954Y-103680858D01*
X143669432Y-103867265D01*
X143669431Y-103867267D01*
X143573261Y-104073502D01*
X143573258Y-104073511D01*
X143514366Y-104293302D01*
X143514364Y-104293313D01*
X143494532Y-104519998D01*
X143494532Y-104520001D01*
X143514364Y-104746686D01*
X143514366Y-104746697D01*
X143573258Y-104966488D01*
X143573261Y-104966497D01*
X143669431Y-105172732D01*
X143669432Y-105172734D01*
X143799954Y-105359141D01*
X143960858Y-105520045D01*
X143986508Y-105538005D01*
X144147266Y-105650568D01*
X144205275Y-105677618D01*
X144257714Y-105723791D01*
X144276866Y-105790984D01*
X144256650Y-105857865D01*
X144205275Y-105902382D01*
X144147267Y-105929431D01*
X144147265Y-105929432D01*
X143960858Y-106059954D01*
X143799954Y-106220858D01*
X143669432Y-106407265D01*
X143669431Y-106407267D01*
X143573261Y-106613502D01*
X143573258Y-106613511D01*
X143514366Y-106833302D01*
X143514364Y-106833313D01*
X143494532Y-107059998D01*
X143494532Y-107060001D01*
X143514364Y-107286686D01*
X143514366Y-107286697D01*
X143573258Y-107506488D01*
X143573261Y-107506497D01*
X143669431Y-107712732D01*
X143669432Y-107712734D01*
X143799954Y-107899141D01*
X143960858Y-108060045D01*
X143985462Y-108077273D01*
X144029087Y-108131849D01*
X144036281Y-108201348D01*
X144004758Y-108263703D01*
X143944529Y-108299117D01*
X143927593Y-108302138D01*
X143892516Y-108305908D01*
X143757671Y-108356202D01*
X143757664Y-108356206D01*
X143642455Y-108442452D01*
X143642452Y-108442455D01*
X143556206Y-108557664D01*
X143556202Y-108557671D01*
X143505908Y-108692517D01*
X143499501Y-108752116D01*
X143499500Y-108752135D01*
X143499500Y-110447870D01*
X143499501Y-110447876D01*
X143505908Y-110507483D01*
X143556202Y-110642328D01*
X143556206Y-110642335D01*
X143642452Y-110757544D01*
X143642455Y-110757547D01*
X143757664Y-110843793D01*
X143757671Y-110843797D01*
X143892517Y-110894091D01*
X143892516Y-110894091D01*
X143899444Y-110894835D01*
X143952127Y-110900500D01*
X146447872Y-110900499D01*
X146507483Y-110894091D01*
X146642331Y-110843796D01*
X146757546Y-110757546D01*
X146843796Y-110642331D01*
X146894091Y-110507483D01*
X146900500Y-110447873D01*
X146900499Y-109696477D01*
X146920183Y-109629439D01*
X146972987Y-109583684D01*
X147042146Y-109573740D01*
X147060495Y-109577818D01*
X147110975Y-109593131D01*
X147307107Y-109612448D01*
X147370670Y-109606187D01*
X147439313Y-109619205D01*
X147490024Y-109667270D01*
X147506225Y-109717436D01*
X147513975Y-109796129D01*
X147571188Y-109984733D01*
X147664086Y-110158532D01*
X147664090Y-110158539D01*
X147789116Y-110310883D01*
X147941460Y-110435909D01*
X147941467Y-110435913D01*
X148115266Y-110528811D01*
X148115269Y-110528811D01*
X148115273Y-110528814D01*
X148303868Y-110586024D01*
X148500000Y-110605341D01*
X148696132Y-110586024D01*
X148884727Y-110528814D01*
X148924635Y-110507483D01*
X149036157Y-110447873D01*
X149058538Y-110435910D01*
X149210883Y-110310883D01*
X149335910Y-110158538D01*
X149428814Y-109984727D01*
X149486024Y-109796132D01*
X149505341Y-109600000D01*
X149486024Y-109403868D01*
X149486023Y-109403864D01*
X149485337Y-109400412D01*
X149485502Y-109398567D01*
X149485427Y-109397805D01*
X149485571Y-109397790D01*
X149491564Y-109330820D01*
X149519271Y-109288541D01*
X150564919Y-108242893D01*
X155951766Y-108242893D01*
X155971082Y-108439022D01*
X155972123Y-108442454D01*
X156024225Y-108614211D01*
X156028295Y-108627626D01*
X156121193Y-108801425D01*
X156121197Y-108801432D01*
X156246223Y-108953776D01*
X156398567Y-109078802D01*
X156398574Y-109078806D01*
X156572373Y-109171704D01*
X156572376Y-109171704D01*
X156572380Y-109171707D01*
X156760975Y-109228917D01*
X156957107Y-109248234D01*
X157153239Y-109228917D01*
X157341834Y-109171707D01*
X157375890Y-109153504D01*
X157515639Y-109078806D01*
X157515645Y-109078803D01*
X157667990Y-108953776D01*
X157793017Y-108801431D01*
X157885921Y-108627620D01*
X157943131Y-108439025D01*
X157962448Y-108242893D01*
X157943131Y-108046761D01*
X157943130Y-108046757D01*
X157942444Y-108043305D01*
X157942609Y-108041460D01*
X157942534Y-108040698D01*
X157942678Y-108040683D01*
X157948671Y-107973713D01*
X157976378Y-107931434D01*
X163609107Y-102298707D01*
X163670430Y-102265222D01*
X163696788Y-102262388D01*
X169982928Y-102262388D01*
X170049967Y-102282073D01*
X170086027Y-102317492D01*
X170087987Y-102320426D01*
X170213014Y-102472771D01*
X170365358Y-102597797D01*
X170365365Y-102597801D01*
X170497492Y-102668425D01*
X170547336Y-102717387D01*
X170562797Y-102785525D01*
X170538965Y-102851205D01*
X170526720Y-102865464D01*
X169211458Y-104180726D01*
X169150135Y-104214211D01*
X169099593Y-104214664D01*
X169096133Y-104213976D01*
X168900000Y-104194659D01*
X168703870Y-104213975D01*
X168515266Y-104271188D01*
X168341467Y-104364086D01*
X168341460Y-104364090D01*
X168189116Y-104489116D01*
X168064090Y-104641460D01*
X168064086Y-104641467D01*
X167971188Y-104815266D01*
X167913975Y-105003870D01*
X167894659Y-105200000D01*
X167913975Y-105396129D01*
X167913976Y-105396132D01*
X167956333Y-105535765D01*
X167971188Y-105584733D01*
X168064086Y-105758532D01*
X168064090Y-105758539D01*
X168189116Y-105910882D01*
X168253432Y-105963665D01*
X168292767Y-106021411D01*
X168294638Y-106091256D01*
X168258451Y-106151024D01*
X168243665Y-106162617D01*
X168241464Y-106164087D01*
X168089116Y-106289116D01*
X167964090Y-106441460D01*
X167964086Y-106441467D01*
X167871188Y-106615266D01*
X167813975Y-106803870D01*
X167794659Y-107000000D01*
X167813975Y-107196129D01*
X167871188Y-107384733D01*
X167964086Y-107558532D01*
X167964090Y-107558539D01*
X168089116Y-107710883D01*
X168241460Y-107835909D01*
X168241467Y-107835913D01*
X168415266Y-107928811D01*
X168415269Y-107928811D01*
X168415273Y-107928814D01*
X168603868Y-107986024D01*
X168800000Y-108005341D01*
X168996132Y-107986024D01*
X169184727Y-107928814D01*
X169213451Y-107913461D01*
X169358532Y-107835913D01*
X169358538Y-107835910D01*
X169510883Y-107710883D01*
X169635910Y-107558538D01*
X169716920Y-107406979D01*
X169728811Y-107384733D01*
X169728811Y-107384732D01*
X169728814Y-107384727D01*
X169786024Y-107196132D01*
X169805341Y-107000000D01*
X169796248Y-106907683D01*
X169809266Y-106839040D01*
X169831967Y-106807853D01*
X173420549Y-103219271D01*
X173481870Y-103185788D01*
X173532420Y-103185337D01*
X173535872Y-103186023D01*
X173535873Y-103186023D01*
X173535876Y-103186024D01*
X173732008Y-103205341D01*
X173928140Y-103186024D01*
X174116735Y-103128814D01*
X174140376Y-103116178D01*
X174290540Y-103035913D01*
X174290546Y-103035910D01*
X174442891Y-102910883D01*
X174567918Y-102758538D01*
X174653834Y-102597801D01*
X174660819Y-102584733D01*
X174660819Y-102584732D01*
X174660822Y-102584727D01*
X174718032Y-102396132D01*
X174737349Y-102200000D01*
X174718032Y-102003868D01*
X174674539Y-101860494D01*
X174673917Y-101790628D01*
X174711165Y-101731516D01*
X174774459Y-101701925D01*
X174793201Y-101700500D01*
X174941324Y-101700500D01*
X175008363Y-101720185D01*
X175029005Y-101736819D01*
X175252735Y-101960548D01*
X175286220Y-102021871D01*
X175286671Y-102072421D01*
X175285984Y-102075873D01*
X175266667Y-102272008D01*
X175285983Y-102468137D01*
X175285984Y-102468140D01*
X175325316Y-102597801D01*
X175343196Y-102656741D01*
X175436094Y-102830540D01*
X175436098Y-102830547D01*
X175561124Y-102982891D01*
X175713468Y-103107917D01*
X175713475Y-103107921D01*
X175887274Y-103200819D01*
X175887277Y-103200819D01*
X175887281Y-103200822D01*
X176075876Y-103258032D01*
X176272008Y-103277349D01*
X176468140Y-103258032D01*
X176656735Y-103200822D01*
X176685706Y-103185337D01*
X176802041Y-103123154D01*
X176830546Y-103107918D01*
X176982891Y-102982891D01*
X177107918Y-102830546D01*
X177200822Y-102656735D01*
X177258032Y-102468140D01*
X177277349Y-102272008D01*
X177258032Y-102075876D01*
X177200822Y-101887281D01*
X177200819Y-101887277D01*
X177200819Y-101887274D01*
X177107921Y-101713475D01*
X177107917Y-101713468D01*
X176982891Y-101561124D01*
X176830547Y-101436098D01*
X176830540Y-101436094D01*
X176656741Y-101343196D01*
X176656735Y-101343194D01*
X176531005Y-101305054D01*
X176468137Y-101285983D01*
X176272008Y-101266667D01*
X176075873Y-101285984D01*
X176072421Y-101286671D01*
X176070576Y-101286505D01*
X176069814Y-101286581D01*
X176069799Y-101286436D01*
X176002829Y-101280444D01*
X175960548Y-101252735D01*
X175601385Y-100893571D01*
X175584750Y-100872928D01*
X175582145Y-100868874D01*
X175582143Y-100868872D01*
X175544614Y-100836353D01*
X175538147Y-100830333D01*
X175528593Y-100820779D01*
X175517785Y-100812688D01*
X175510901Y-100807141D01*
X175473373Y-100774623D01*
X175473372Y-100774622D01*
X175473367Y-100774619D01*
X175468983Y-100772617D01*
X175446194Y-100759096D01*
X175442789Y-100756547D01*
X175442331Y-100756204D01*
X175442329Y-100756203D01*
X175395790Y-100738845D01*
X175387622Y-100735461D01*
X175342457Y-100714835D01*
X175342455Y-100714834D01*
X175337682Y-100714148D01*
X175312000Y-100707593D01*
X175307486Y-100705909D01*
X175257946Y-100702365D01*
X175249159Y-100701420D01*
X175235799Y-100699500D01*
X175235797Y-100699500D01*
X175222308Y-100699500D01*
X175213461Y-100699184D01*
X175163929Y-100695641D01*
X175163925Y-100695641D01*
X175159215Y-100696666D01*
X175132857Y-100699500D01*
X172967143Y-100699500D01*
X172940785Y-100696666D01*
X172936074Y-100695641D01*
X172936070Y-100695641D01*
X172886539Y-100699184D01*
X172877692Y-100699500D01*
X172864200Y-100699500D01*
X172858063Y-100700382D01*
X172850840Y-100701420D01*
X172842054Y-100702365D01*
X172792516Y-100705909D01*
X172792513Y-100705910D01*
X172787986Y-100707598D01*
X172762327Y-100714146D01*
X172757550Y-100714833D01*
X172757543Y-100714835D01*
X172712365Y-100735466D01*
X172704191Y-100738851D01*
X172657675Y-100756200D01*
X172657668Y-100756204D01*
X172653800Y-100759100D01*
X172631019Y-100772616D01*
X172626627Y-100774623D01*
X172605663Y-100792788D01*
X172589098Y-100807141D01*
X172582219Y-100812684D01*
X172571409Y-100820777D01*
X172561860Y-100830325D01*
X172555395Y-100836343D01*
X172517859Y-100868870D01*
X172517856Y-100868873D01*
X172515245Y-100872936D01*
X172498615Y-100893570D01*
X172027474Y-101364711D01*
X171966151Y-101398196D01*
X171896459Y-101393212D01*
X171840526Y-101351340D01*
X171830435Y-101335483D01*
X171759811Y-101203355D01*
X171759807Y-101203348D01*
X171634781Y-101051004D01*
X171482437Y-100925978D01*
X171482430Y-100925974D01*
X171308631Y-100833076D01*
X171308625Y-100833074D01*
X171120030Y-100775864D01*
X171120027Y-100775863D01*
X170923898Y-100756547D01*
X170727768Y-100775863D01*
X170539164Y-100833076D01*
X170365365Y-100925974D01*
X170365358Y-100925978D01*
X170213014Y-101051004D01*
X170087987Y-101203349D01*
X170086027Y-101206284D01*
X170084603Y-101207473D01*
X170084123Y-101208059D01*
X170084011Y-101207967D01*
X170032412Y-101251086D01*
X169982928Y-101261388D01*
X163505255Y-101261388D01*
X163478897Y-101258554D01*
X163474186Y-101257529D01*
X163474182Y-101257529D01*
X163424651Y-101261072D01*
X163415804Y-101261388D01*
X163402312Y-101261388D01*
X163396175Y-101262270D01*
X163388952Y-101263308D01*
X163380166Y-101264253D01*
X163330628Y-101267797D01*
X163330625Y-101267798D01*
X163326098Y-101269486D01*
X163300439Y-101276034D01*
X163295662Y-101276721D01*
X163295655Y-101276723D01*
X163250477Y-101297354D01*
X163242303Y-101300739D01*
X163195787Y-101318088D01*
X163195776Y-101318094D01*
X163191911Y-101320988D01*
X163169132Y-101334503D01*
X163164748Y-101336505D01*
X163164737Y-101336512D01*
X163127220Y-101369020D01*
X163120338Y-101374566D01*
X163109515Y-101382668D01*
X163099966Y-101392217D01*
X163093496Y-101398241D01*
X163055973Y-101430755D01*
X163055966Y-101430764D01*
X163053355Y-101434826D01*
X163036728Y-101455456D01*
X157268565Y-107223619D01*
X157207242Y-107257104D01*
X157156700Y-107257557D01*
X157153240Y-107256869D01*
X156957107Y-107237552D01*
X156760977Y-107256868D01*
X156572373Y-107314081D01*
X156398574Y-107406979D01*
X156398567Y-107406983D01*
X156246223Y-107532009D01*
X156121197Y-107684353D01*
X156121193Y-107684360D01*
X156028295Y-107858159D01*
X155971082Y-108046763D01*
X155951766Y-108242893D01*
X150564919Y-108242893D01*
X156906431Y-101901381D01*
X156927068Y-101884751D01*
X156931128Y-101882143D01*
X156963653Y-101844605D01*
X156969658Y-101838155D01*
X156979221Y-101828593D01*
X156987316Y-101817778D01*
X156992859Y-101810899D01*
X157025377Y-101773373D01*
X157027375Y-101768995D01*
X157040907Y-101746189D01*
X157043796Y-101742331D01*
X157061149Y-101695801D01*
X157064534Y-101687630D01*
X157085165Y-101642457D01*
X157085850Y-101637685D01*
X157092409Y-101611992D01*
X157094091Y-101607483D01*
X157097633Y-101557951D01*
X157098580Y-101549148D01*
X157100500Y-101535799D01*
X157100500Y-101522308D01*
X157100816Y-101513461D01*
X157101657Y-101501697D01*
X157104359Y-101463927D01*
X157103332Y-101459206D01*
X157100500Y-101432858D01*
X157100500Y-99740969D01*
X157120185Y-99673930D01*
X157155613Y-99637864D01*
X157158528Y-99635915D01*
X157158538Y-99635910D01*
X157310883Y-99510883D01*
X157435910Y-99358538D01*
X157511446Y-99217220D01*
X157528811Y-99184733D01*
X157528811Y-99184732D01*
X157528814Y-99184727D01*
X157586024Y-98996132D01*
X157605341Y-98800000D01*
X157586024Y-98603868D01*
X157528814Y-98415273D01*
X157528811Y-98415269D01*
X157528811Y-98415266D01*
X157435913Y-98241467D01*
X157435909Y-98241460D01*
X157310883Y-98089116D01*
X157158539Y-97964090D01*
X157158532Y-97964086D01*
X156984733Y-97871188D01*
X156984727Y-97871186D01*
X156796132Y-97813976D01*
X156796129Y-97813975D01*
X156665168Y-97801077D01*
X156600381Y-97774916D01*
X156560022Y-97717882D01*
X156558675Y-97713713D01*
X156528814Y-97615273D01*
X156473036Y-97510919D01*
X156435913Y-97441467D01*
X156435909Y-97441460D01*
X156310883Y-97289116D01*
X156158539Y-97164090D01*
X156158532Y-97164086D01*
X155984733Y-97071188D01*
X155984727Y-97071186D01*
X155796132Y-97013976D01*
X155796129Y-97013975D01*
X155600000Y-96994659D01*
X155403870Y-97013975D01*
X155215266Y-97071188D01*
X155041467Y-97164086D01*
X155041460Y-97164090D01*
X154889116Y-97289116D01*
X154764090Y-97441460D01*
X154764086Y-97441467D01*
X154671188Y-97615266D01*
X154613975Y-97803870D01*
X154594659Y-98000000D01*
X154613975Y-98196129D01*
X154613976Y-98196132D01*
X154649366Y-98312798D01*
X154671188Y-98384733D01*
X154764086Y-98558532D01*
X154764090Y-98558539D01*
X154889116Y-98710883D01*
X155039635Y-98834411D01*
X155041462Y-98835910D01*
X155041466Y-98835912D01*
X155044387Y-98837864D01*
X155045576Y-98839286D01*
X155046171Y-98839775D01*
X155046078Y-98839887D01*
X155089194Y-98891475D01*
X155099500Y-98940969D01*
X155099500Y-100041323D01*
X155079815Y-100108362D01*
X155063181Y-100129004D01*
X147606487Y-107585697D01*
X147545164Y-107619182D01*
X147506652Y-107621419D01*
X147307107Y-107601766D01*
X147110976Y-107621082D01*
X146981691Y-107660301D01*
X146911824Y-107660924D01*
X146852711Y-107623676D01*
X146823121Y-107560382D01*
X146825921Y-107509546D01*
X146826737Y-107506499D01*
X146826739Y-107506496D01*
X146885635Y-107286692D01*
X146905468Y-107060000D01*
X146885635Y-106833308D01*
X146826739Y-106613504D01*
X146730568Y-106407266D01*
X146600047Y-106220861D01*
X146600045Y-106220858D01*
X146439141Y-106059954D01*
X146252734Y-105929432D01*
X146252728Y-105929429D01*
X146212956Y-105910883D01*
X146194724Y-105902381D01*
X146142285Y-105856210D01*
X146123133Y-105789017D01*
X146143348Y-105722135D01*
X146194725Y-105677618D01*
X146252734Y-105650568D01*
X146439139Y-105520047D01*
X146600047Y-105359139D01*
X146730568Y-105172734D01*
X146826739Y-104966496D01*
X146885635Y-104746692D01*
X146905468Y-104520000D01*
X146885635Y-104293308D01*
X146826739Y-104073504D01*
X146730568Y-103867266D01*
X146600047Y-103680861D01*
X146600045Y-103680858D01*
X146439141Y-103519954D01*
X146252734Y-103389432D01*
X146252728Y-103389429D01*
X146194725Y-103362382D01*
X146142285Y-103316210D01*
X146123133Y-103249017D01*
X146143348Y-103182135D01*
X146194725Y-103137618D01*
X146252734Y-103110568D01*
X146439139Y-102980047D01*
X146600047Y-102819139D01*
X146730568Y-102632734D01*
X146826739Y-102426496D01*
X146885635Y-102206692D01*
X146905468Y-101980000D01*
X146885635Y-101753308D01*
X146833291Y-101557955D01*
X146826741Y-101533511D01*
X146826738Y-101533502D01*
X146784280Y-101442452D01*
X146730568Y-101327266D01*
X146600047Y-101140861D01*
X146600045Y-101140858D01*
X146439141Y-100979954D01*
X146252734Y-100849432D01*
X146252732Y-100849431D01*
X146046497Y-100753261D01*
X146046488Y-100753258D01*
X145974517Y-100733974D01*
X145914856Y-100697609D01*
X145884327Y-100634762D01*
X145892622Y-100565386D01*
X145935487Y-100512624D01*
X145965437Y-100491653D01*
X146039139Y-100440047D01*
X146200047Y-100279139D01*
X146330568Y-100092734D01*
X146426739Y-99886496D01*
X146485635Y-99666692D01*
X146505468Y-99440000D01*
X146503985Y-99423054D01*
X146497264Y-99346224D01*
X146485635Y-99213308D01*
X146426739Y-98993504D01*
X146330568Y-98787266D01*
X146200047Y-98600861D01*
X146200045Y-98600858D01*
X146039140Y-98439953D01*
X145935487Y-98367375D01*
X145891862Y-98312798D01*
X145884668Y-98243300D01*
X145916191Y-98180945D01*
X145974516Y-98146025D01*
X146011946Y-98135996D01*
X146046486Y-98126742D01*
X146046489Y-98126740D01*
X146046496Y-98126739D01*
X146252734Y-98030568D01*
X146439139Y-97900047D01*
X146600047Y-97739139D01*
X146730568Y-97552734D01*
X146826739Y-97346496D01*
X146885635Y-97126692D01*
X146905468Y-96900000D01*
X146903985Y-96883054D01*
X146897011Y-96803334D01*
X146885635Y-96673308D01*
X146826739Y-96453504D01*
X146730568Y-96247266D01*
X146600047Y-96060861D01*
X146600045Y-96060858D01*
X146439141Y-95899954D01*
X146252734Y-95769432D01*
X146252728Y-95769429D01*
X146194725Y-95742382D01*
X146142285Y-95696210D01*
X146123133Y-95629017D01*
X146143348Y-95562135D01*
X146194725Y-95517618D01*
X146252734Y-95490568D01*
X146439139Y-95360047D01*
X146600047Y-95199139D01*
X146730568Y-95012734D01*
X146826739Y-94806496D01*
X146885635Y-94586692D01*
X146905468Y-94360000D01*
X146903985Y-94343054D01*
X146898996Y-94286024D01*
X146885635Y-94133308D01*
X146840916Y-93966415D01*
X146826741Y-93913511D01*
X146826738Y-93913502D01*
X146806309Y-93869693D01*
X146730568Y-93707266D01*
X146600047Y-93520861D01*
X146600045Y-93520858D01*
X146439141Y-93359954D01*
X146252734Y-93229432D01*
X146252728Y-93229429D01*
X146194725Y-93202382D01*
X146142285Y-93156210D01*
X146123133Y-93089017D01*
X146143348Y-93022135D01*
X146194725Y-92977618D01*
X146252734Y-92950568D01*
X146439139Y-92820047D01*
X146600047Y-92659139D01*
X146730568Y-92472734D01*
X146826739Y-92266496D01*
X146885635Y-92046692D01*
X146890877Y-91986773D01*
X146916329Y-91921705D01*
X146972920Y-91880726D01*
X147042682Y-91876848D01*
X147102086Y-91909900D01*
X152820288Y-97628102D01*
X152853773Y-97689425D01*
X152856607Y-97715783D01*
X152856607Y-99116137D01*
X152836922Y-99183176D01*
X152801503Y-99219236D01*
X152798568Y-99221196D01*
X152646223Y-99346223D01*
X152521197Y-99498567D01*
X152521193Y-99498574D01*
X152428295Y-99672373D01*
X152371082Y-99860977D01*
X152351766Y-100057107D01*
X152371082Y-100253236D01*
X152371083Y-100253239D01*
X152396956Y-100338532D01*
X152428295Y-100441840D01*
X152521193Y-100615639D01*
X152521197Y-100615646D01*
X152646223Y-100767990D01*
X152798567Y-100893016D01*
X152798574Y-100893020D01*
X152972373Y-100985918D01*
X152972376Y-100985918D01*
X152972380Y-100985921D01*
X153160975Y-101043131D01*
X153357107Y-101062448D01*
X153553239Y-101043131D01*
X153741834Y-100985921D01*
X153752998Y-100979954D01*
X153853987Y-100925974D01*
X153915645Y-100893017D01*
X154067990Y-100767990D01*
X154193017Y-100615645D01*
X154285921Y-100441834D01*
X154343131Y-100253239D01*
X154362448Y-100057107D01*
X154343131Y-99860975D01*
X154285921Y-99672380D01*
X154285918Y-99672376D01*
X154285918Y-99672373D01*
X154193020Y-99498574D01*
X154193016Y-99498567D01*
X154067990Y-99346223D01*
X153915645Y-99221196D01*
X153912711Y-99219236D01*
X153911521Y-99217812D01*
X153910936Y-99217332D01*
X153911027Y-99217220D01*
X153867909Y-99165621D01*
X153857607Y-99116137D01*
X153857607Y-97524250D01*
X153860441Y-97497892D01*
X153861466Y-97493180D01*
X153857923Y-97443644D01*
X153857607Y-97434797D01*
X153857607Y-97421308D01*
X153855686Y-97407950D01*
X153854740Y-97399152D01*
X153854702Y-97398614D01*
X153851198Y-97349624D01*
X153849514Y-97345109D01*
X153842957Y-97319419D01*
X153842272Y-97314650D01*
X153821637Y-97269467D01*
X153818262Y-97261319D01*
X153800903Y-97214776D01*
X153798012Y-97210914D01*
X153784486Y-97188117D01*
X153782484Y-97183734D01*
X153749967Y-97146207D01*
X153744413Y-97139314D01*
X153736335Y-97128523D01*
X153736333Y-97128520D01*
X153736328Y-97128514D01*
X153726784Y-97118970D01*
X153720765Y-97112507D01*
X153688235Y-97074964D01*
X153688232Y-97074961D01*
X153684173Y-97072353D01*
X153663535Y-97055721D01*
X148407814Y-91800000D01*
X151094659Y-91800000D01*
X151113975Y-91996129D01*
X151171188Y-92184733D01*
X151264086Y-92358532D01*
X151264090Y-92358539D01*
X151389116Y-92510883D01*
X151541460Y-92635909D01*
X151541467Y-92635913D01*
X151715266Y-92728811D01*
X151715269Y-92728811D01*
X151715273Y-92728814D01*
X151903868Y-92786024D01*
X152100000Y-92805341D01*
X152296132Y-92786024D01*
X152484727Y-92728814D01*
X152658538Y-92635910D01*
X152810883Y-92510883D01*
X152935910Y-92358538D01*
X153017890Y-92205165D01*
X153028811Y-92184733D01*
X153028811Y-92184732D01*
X153028814Y-92184727D01*
X153086024Y-91996132D01*
X153105341Y-91800000D01*
X153099102Y-91736653D01*
X153112121Y-91668008D01*
X153160186Y-91617298D01*
X153222505Y-91600500D01*
X153638807Y-91600500D01*
X153705846Y-91620185D01*
X153751601Y-91672989D01*
X153761545Y-91742147D01*
X153757468Y-91760495D01*
X153713975Y-91903869D01*
X153694659Y-92100000D01*
X153713975Y-92296129D01*
X153713976Y-92296132D01*
X153767471Y-92472482D01*
X153771188Y-92484733D01*
X153864086Y-92658532D01*
X153864090Y-92658539D01*
X153989116Y-92810883D01*
X154141460Y-92935909D01*
X154141467Y-92935913D01*
X154315266Y-93028811D01*
X154315269Y-93028811D01*
X154315273Y-93028814D01*
X154503868Y-93086024D01*
X154700000Y-93105341D01*
X154896132Y-93086024D01*
X155084727Y-93028814D01*
X155094125Y-93023791D01*
X155231115Y-92950568D01*
X155258538Y-92935910D01*
X155410883Y-92810883D01*
X155535910Y-92658538D01*
X155537871Y-92655604D01*
X155539294Y-92654414D01*
X155539775Y-92653829D01*
X155539886Y-92653920D01*
X155591486Y-92610802D01*
X155640970Y-92600500D01*
X160941324Y-92600500D01*
X161008363Y-92620185D01*
X161029005Y-92636819D01*
X164998614Y-96606428D01*
X165015246Y-96627066D01*
X165017854Y-96631125D01*
X165017857Y-96631128D01*
X165055400Y-96663658D01*
X165061861Y-96669675D01*
X165071407Y-96679221D01*
X165071413Y-96679226D01*
X165071416Y-96679228D01*
X165082207Y-96687306D01*
X165089100Y-96692860D01*
X165126627Y-96725377D01*
X165131010Y-96727379D01*
X165153807Y-96740905D01*
X165157669Y-96743796D01*
X165204212Y-96761155D01*
X165212360Y-96764530D01*
X165239673Y-96777004D01*
X165257540Y-96785164D01*
X165257541Y-96785164D01*
X165257543Y-96785165D01*
X165262312Y-96785850D01*
X165288002Y-96792407D01*
X165292517Y-96794091D01*
X165342049Y-96797633D01*
X165350843Y-96798579D01*
X165364201Y-96800500D01*
X165377692Y-96800500D01*
X165386538Y-96800815D01*
X165436073Y-96804359D01*
X165440785Y-96803334D01*
X165467143Y-96800500D01*
X168432857Y-96800500D01*
X168459215Y-96803334D01*
X168463927Y-96804359D01*
X168513461Y-96800815D01*
X168522308Y-96800500D01*
X168535799Y-96800500D01*
X168549156Y-96798579D01*
X168557951Y-96797633D01*
X168607483Y-96794091D01*
X168611992Y-96792408D01*
X168637685Y-96785850D01*
X168642457Y-96785165D01*
X168687637Y-96764530D01*
X168695801Y-96761149D01*
X168742331Y-96743796D01*
X168746189Y-96740907D01*
X168768995Y-96727375D01*
X168773373Y-96725377D01*
X168810899Y-96692859D01*
X168817778Y-96687316D01*
X168828593Y-96679221D01*
X168838155Y-96669658D01*
X168844617Y-96663643D01*
X168882143Y-96631128D01*
X168884751Y-96627068D01*
X168901381Y-96606431D01*
X171506431Y-94001381D01*
X171527068Y-93984751D01*
X171531128Y-93982143D01*
X171563653Y-93944605D01*
X171569658Y-93938155D01*
X171579221Y-93928593D01*
X171587316Y-93917778D01*
X171592859Y-93910899D01*
X171625377Y-93873373D01*
X171627375Y-93868995D01*
X171640907Y-93846189D01*
X171643796Y-93842331D01*
X171661149Y-93795801D01*
X171664534Y-93787630D01*
X171685165Y-93742457D01*
X171685850Y-93737685D01*
X171692409Y-93711992D01*
X171694091Y-93707483D01*
X171697633Y-93657951D01*
X171698580Y-93649148D01*
X171700500Y-93635799D01*
X171700500Y-93622308D01*
X171700816Y-93613461D01*
X171704359Y-93563927D01*
X171703332Y-93559206D01*
X171700500Y-93532858D01*
X171700500Y-86700002D01*
X175844726Y-86700002D01*
X175863808Y-87051954D01*
X175895039Y-87242455D01*
X175916501Y-87373372D01*
X175920833Y-87399793D01*
X175920834Y-87399796D01*
X176015126Y-87739408D01*
X176015127Y-87739410D01*
X176145588Y-88066844D01*
X176145597Y-88066862D01*
X176232257Y-88230320D01*
X176310695Y-88378269D01*
X176470508Y-88613976D01*
X176508498Y-88670006D01*
X176508505Y-88670016D01*
X176588413Y-88764090D01*
X176736686Y-88938650D01*
X176992580Y-89181046D01*
X177273182Y-89394354D01*
X177575202Y-89576074D01*
X177575206Y-89576075D01*
X177575210Y-89576078D01*
X177895088Y-89724070D01*
X177895092Y-89724070D01*
X177895099Y-89724074D01*
X178229122Y-89836619D01*
X178573355Y-89912391D01*
X178923763Y-89950500D01*
X178923769Y-89950500D01*
X179276231Y-89950500D01*
X179276237Y-89950500D01*
X179626645Y-89912391D01*
X179970878Y-89836619D01*
X180304901Y-89724074D01*
X180304908Y-89724070D01*
X180304911Y-89724070D01*
X180624789Y-89576078D01*
X180624798Y-89576074D01*
X180926818Y-89394354D01*
X181207420Y-89181046D01*
X181463314Y-88938650D01*
X181691501Y-88670008D01*
X181889305Y-88378269D01*
X182054407Y-88066854D01*
X182184871Y-87739414D01*
X182279168Y-87399788D01*
X182336191Y-87051957D01*
X182355274Y-86700000D01*
X182352147Y-86642335D01*
X182336191Y-86348045D01*
X182336191Y-86348043D01*
X182279168Y-86000212D01*
X182219326Y-85784680D01*
X182184873Y-85660591D01*
X182184872Y-85660589D01*
X182054411Y-85333155D01*
X182054402Y-85333137D01*
X182019859Y-85267982D01*
X181889305Y-85021731D01*
X181691501Y-84729992D01*
X181691497Y-84729987D01*
X181691494Y-84729983D01*
X181463314Y-84461350D01*
X181414124Y-84414755D01*
X181207420Y-84218954D01*
X181207413Y-84218948D01*
X181207410Y-84218946D01*
X180926815Y-84005644D01*
X180624802Y-83823928D01*
X180624789Y-83823921D01*
X180304911Y-83675929D01*
X180304906Y-83675928D01*
X180304903Y-83675927D01*
X180304901Y-83675926D01*
X180198432Y-83640052D01*
X179970880Y-83563381D01*
X179626643Y-83487608D01*
X179276238Y-83449500D01*
X179276237Y-83449500D01*
X178923763Y-83449500D01*
X178923761Y-83449500D01*
X178573356Y-83487608D01*
X178229119Y-83563381D01*
X177895093Y-83675928D01*
X177895088Y-83675929D01*
X177575210Y-83823921D01*
X177575197Y-83823928D01*
X177273184Y-84005644D01*
X176992589Y-84218946D01*
X176992580Y-84218954D01*
X176736685Y-84461350D01*
X176508505Y-84729983D01*
X176508498Y-84729993D01*
X176310695Y-85021730D01*
X176145597Y-85333137D01*
X176145588Y-85333155D01*
X176015127Y-85660589D01*
X176015126Y-85660591D01*
X175920834Y-86000203D01*
X175920833Y-86000206D01*
X175863808Y-86348045D01*
X175844726Y-86699997D01*
X175844726Y-86700002D01*
X171700500Y-86700002D01*
X171700500Y-85240969D01*
X171720185Y-85173930D01*
X171755613Y-85137864D01*
X171758528Y-85135915D01*
X171758538Y-85135910D01*
X171910883Y-85010883D01*
X172035910Y-84858538D01*
X172128814Y-84684727D01*
X172186024Y-84496132D01*
X172205341Y-84300000D01*
X172186024Y-84103868D01*
X172128814Y-83915273D01*
X172128811Y-83915269D01*
X172128811Y-83915266D01*
X172035913Y-83741467D01*
X172035909Y-83741460D01*
X171910883Y-83589116D01*
X171758539Y-83464090D01*
X171758532Y-83464086D01*
X171584733Y-83371188D01*
X171584727Y-83371186D01*
X171396132Y-83313976D01*
X171396129Y-83313975D01*
X171200000Y-83294659D01*
X171003870Y-83313975D01*
X170815266Y-83371188D01*
X170636089Y-83466961D01*
X170635151Y-83465207D01*
X170577190Y-83483346D01*
X170514368Y-83466099D01*
X170513908Y-83466961D01*
X170510108Y-83464930D01*
X170509813Y-83464849D01*
X170509103Y-83464392D01*
X170334730Y-83371188D01*
X170334724Y-83371186D01*
X170146129Y-83313976D01*
X170146126Y-83313975D01*
X169949997Y-83294659D01*
X169753867Y-83313975D01*
X169565263Y-83371188D01*
X169391464Y-83464086D01*
X169391452Y-83464094D01*
X169353661Y-83495108D01*
X169289351Y-83522421D01*
X169220484Y-83510628D01*
X169196333Y-83495107D01*
X169159899Y-83465207D01*
X169158538Y-83464090D01*
X169158536Y-83464089D01*
X169158532Y-83464086D01*
X168984733Y-83371188D01*
X168984727Y-83371186D01*
X168796132Y-83313976D01*
X168796129Y-83313975D01*
X168600000Y-83294659D01*
X168403870Y-83313975D01*
X168215266Y-83371188D01*
X168036089Y-83466961D01*
X168035151Y-83465207D01*
X167977190Y-83483346D01*
X167914368Y-83466099D01*
X167913908Y-83466961D01*
X167910108Y-83464930D01*
X167909813Y-83464849D01*
X167909103Y-83464392D01*
X167734730Y-83371188D01*
X167734724Y-83371186D01*
X167546129Y-83313976D01*
X167546126Y-83313975D01*
X167349997Y-83294659D01*
X167153867Y-83313975D01*
X166965263Y-83371188D01*
X166791464Y-83464086D01*
X166791457Y-83464090D01*
X166639113Y-83589116D01*
X166514087Y-83741460D01*
X166514083Y-83741467D01*
X166421185Y-83915266D01*
X166363972Y-84103870D01*
X166344656Y-84300000D01*
X166363972Y-84496129D01*
X166421185Y-84684733D01*
X166514083Y-84858532D01*
X166514087Y-84858539D01*
X166639113Y-85010883D01*
X166791457Y-85135909D01*
X166791460Y-85135911D01*
X166833952Y-85158623D01*
X166883797Y-85207585D01*
X166899500Y-85267982D01*
X166899500Y-91232553D01*
X166879815Y-91299592D01*
X166827011Y-91345347D01*
X166757853Y-91355291D01*
X166717047Y-91341912D01*
X166637871Y-91299592D01*
X166584727Y-91271186D01*
X166398100Y-91214573D01*
X166396129Y-91213975D01*
X166200000Y-91194659D01*
X166003865Y-91213976D01*
X166000413Y-91214663D01*
X165998568Y-91214497D01*
X165997806Y-91214573D01*
X165997791Y-91214428D01*
X165930821Y-91208436D01*
X165888540Y-91180727D01*
X164001385Y-89293571D01*
X163984750Y-89272928D01*
X163982145Y-89268874D01*
X163982143Y-89268872D01*
X163944614Y-89236353D01*
X163938147Y-89230333D01*
X163928593Y-89220779D01*
X163921228Y-89215266D01*
X163917786Y-89212689D01*
X163910904Y-89207144D01*
X163873373Y-89174623D01*
X163873372Y-89174622D01*
X163873367Y-89174619D01*
X163868983Y-89172617D01*
X163846194Y-89159096D01*
X163842331Y-89156204D01*
X163842329Y-89156203D01*
X163795790Y-89138845D01*
X163787622Y-89135461D01*
X163742457Y-89114835D01*
X163742455Y-89114834D01*
X163737682Y-89114148D01*
X163712000Y-89107593D01*
X163707486Y-89105909D01*
X163657946Y-89102365D01*
X163649159Y-89101420D01*
X163635799Y-89099500D01*
X163635797Y-89099500D01*
X163622308Y-89099500D01*
X163613461Y-89099184D01*
X163563929Y-89095641D01*
X163563925Y-89095641D01*
X163559215Y-89096666D01*
X163532857Y-89099500D01*
X160940970Y-89099500D01*
X160873931Y-89079815D01*
X160837871Y-89044396D01*
X160835910Y-89041461D01*
X160710883Y-88889116D01*
X160558539Y-88764090D01*
X160558532Y-88764086D01*
X160384733Y-88671188D01*
X160384727Y-88671186D01*
X160196132Y-88613976D01*
X160196129Y-88613975D01*
X160000000Y-88594659D01*
X159803870Y-88613975D01*
X159615266Y-88671188D01*
X159441467Y-88764086D01*
X159441460Y-88764090D01*
X159289116Y-88889116D01*
X159164090Y-89041460D01*
X159164086Y-89041467D01*
X159071188Y-89215266D01*
X159013975Y-89403870D01*
X158994659Y-89600000D01*
X159013975Y-89796129D01*
X159071188Y-89984733D01*
X159164086Y-90158532D01*
X159164090Y-90158539D01*
X159289116Y-90310883D01*
X159372905Y-90379647D01*
X159412239Y-90437393D01*
X159414110Y-90507237D01*
X159377922Y-90567006D01*
X159315166Y-90597721D01*
X159294240Y-90599500D01*
X152867138Y-90599500D01*
X152840781Y-90596666D01*
X152836076Y-90595642D01*
X152836068Y-90595642D01*
X152786547Y-90599184D01*
X152777701Y-90599500D01*
X152764197Y-90599500D01*
X152750835Y-90601421D01*
X152742045Y-90602366D01*
X152692517Y-90605909D01*
X152692514Y-90605910D01*
X152687996Y-90607595D01*
X152662320Y-90614148D01*
X152657541Y-90614835D01*
X152612367Y-90635465D01*
X152604194Y-90638851D01*
X152557667Y-90656205D01*
X152557667Y-90656206D01*
X152553802Y-90659099D01*
X152531020Y-90672616D01*
X152526631Y-90674620D01*
X152526630Y-90674621D01*
X152526628Y-90674622D01*
X152526627Y-90674623D01*
X152500432Y-90697319D01*
X152489089Y-90707149D01*
X152482215Y-90712688D01*
X152471413Y-90720775D01*
X152471402Y-90720783D01*
X152461853Y-90730331D01*
X152455387Y-90736350D01*
X152417857Y-90768870D01*
X152413828Y-90773521D01*
X152355049Y-90811295D01*
X152302284Y-90813652D01*
X152302194Y-90814573D01*
X152100000Y-90794659D01*
X151903870Y-90813975D01*
X151715266Y-90871188D01*
X151541467Y-90964086D01*
X151541460Y-90964090D01*
X151389116Y-91089116D01*
X151264090Y-91241460D01*
X151264086Y-91241467D01*
X151171188Y-91415266D01*
X151113975Y-91603870D01*
X151094659Y-91800000D01*
X148407814Y-91800000D01*
X144901385Y-88293571D01*
X144884750Y-88272928D01*
X144882145Y-88268874D01*
X144882143Y-88268872D01*
X144844614Y-88236353D01*
X144838147Y-88230333D01*
X144828593Y-88220779D01*
X144817785Y-88212688D01*
X144810904Y-88207144D01*
X144773373Y-88174623D01*
X144773372Y-88174622D01*
X144773367Y-88174619D01*
X144768983Y-88172617D01*
X144746194Y-88159096D01*
X144742331Y-88156204D01*
X144742329Y-88156203D01*
X144695790Y-88138845D01*
X144687622Y-88135461D01*
X144642457Y-88114835D01*
X144642455Y-88114834D01*
X144637682Y-88114148D01*
X144612000Y-88107593D01*
X144607486Y-88105909D01*
X144557946Y-88102365D01*
X144549159Y-88101420D01*
X144535799Y-88099500D01*
X144535797Y-88099500D01*
X144522308Y-88099500D01*
X144513461Y-88099184D01*
X144463929Y-88095641D01*
X144463925Y-88095641D01*
X144459215Y-88096666D01*
X144432857Y-88099500D01*
X136858675Y-88099500D01*
X136791636Y-88079815D01*
X136770994Y-88063181D01*
X135819994Y-87112180D01*
X135786509Y-87050857D01*
X135791493Y-86981165D01*
X135833365Y-86925232D01*
X135898829Y-86900815D01*
X135907675Y-86900499D01*
X136047871Y-86900499D01*
X136047872Y-86900499D01*
X136107483Y-86894091D01*
X136242331Y-86843796D01*
X136357546Y-86757546D01*
X136443796Y-86642331D01*
X136473338Y-86563123D01*
X136515208Y-86507190D01*
X136580672Y-86482772D01*
X136648945Y-86497623D01*
X136679042Y-86520655D01*
X136711706Y-86554735D01*
X136903316Y-86696450D01*
X137116115Y-86803741D01*
X137343987Y-86873526D01*
X137343985Y-86873526D01*
X137390000Y-86879418D01*
X137390000Y-85735501D01*
X137497685Y-85784680D01*
X137604237Y-85800000D01*
X137675763Y-85800000D01*
X137782315Y-85784680D01*
X137890000Y-85735501D01*
X137890000Y-86878264D01*
X138051434Y-86843473D01*
X138272562Y-86754616D01*
X138475494Y-86629666D01*
X138654389Y-86472219D01*
X138654396Y-86472213D01*
X138674052Y-86447870D01*
X141159500Y-86447870D01*
X141159501Y-86447876D01*
X141165908Y-86507483D01*
X141216202Y-86642328D01*
X141216206Y-86642335D01*
X141302452Y-86757544D01*
X141302455Y-86757547D01*
X141417664Y-86843793D01*
X141417671Y-86843797D01*
X141552517Y-86894091D01*
X141552516Y-86894091D01*
X141559444Y-86894835D01*
X141612127Y-86900500D01*
X143507872Y-86900499D01*
X143567483Y-86894091D01*
X143702331Y-86843796D01*
X143817546Y-86757546D01*
X143903796Y-86642331D01*
X143933338Y-86563123D01*
X143975208Y-86507190D01*
X144040672Y-86482772D01*
X144108945Y-86497623D01*
X144139042Y-86520655D01*
X144171706Y-86554735D01*
X144363316Y-86696450D01*
X144576115Y-86803741D01*
X144803987Y-86873526D01*
X144803985Y-86873526D01*
X144850000Y-86879418D01*
X144850000Y-85735501D01*
X144957685Y-85784680D01*
X145064237Y-85800000D01*
X145135763Y-85800000D01*
X145242315Y-85784680D01*
X145350000Y-85735501D01*
X145350000Y-86878264D01*
X145511434Y-86843473D01*
X145732562Y-86754616D01*
X145935494Y-86629666D01*
X146114389Y-86472219D01*
X146114396Y-86472213D01*
X146134052Y-86447870D01*
X149159500Y-86447870D01*
X149159501Y-86447876D01*
X149165908Y-86507483D01*
X149216202Y-86642328D01*
X149216206Y-86642335D01*
X149302452Y-86757544D01*
X149302455Y-86757547D01*
X149417664Y-86843793D01*
X149417671Y-86843797D01*
X149552517Y-86894091D01*
X149552516Y-86894091D01*
X149559444Y-86894835D01*
X149612127Y-86900500D01*
X151507872Y-86900499D01*
X151567483Y-86894091D01*
X151702331Y-86843796D01*
X151817546Y-86757546D01*
X151903796Y-86642331D01*
X151933338Y-86563123D01*
X151975208Y-86507190D01*
X152040672Y-86482772D01*
X152108945Y-86497623D01*
X152139042Y-86520655D01*
X152171706Y-86554735D01*
X152363316Y-86696450D01*
X152576115Y-86803741D01*
X152803987Y-86873526D01*
X152803985Y-86873526D01*
X152850000Y-86879418D01*
X152850000Y-85735501D01*
X152957685Y-85784680D01*
X153064237Y-85800000D01*
X153135763Y-85800000D01*
X153242315Y-85784680D01*
X153350000Y-85735501D01*
X153350000Y-86878264D01*
X153511434Y-86843473D01*
X153732562Y-86754616D01*
X153935494Y-86629666D01*
X154114389Y-86472219D01*
X154114396Y-86472213D01*
X154134052Y-86447870D01*
X157159500Y-86447870D01*
X157159501Y-86447876D01*
X157165908Y-86507483D01*
X157216202Y-86642328D01*
X157216206Y-86642335D01*
X157302452Y-86757544D01*
X157302455Y-86757547D01*
X157417664Y-86843793D01*
X157417671Y-86843797D01*
X157552517Y-86894091D01*
X157552516Y-86894091D01*
X157559444Y-86894835D01*
X157612127Y-86900500D01*
X159507872Y-86900499D01*
X159567483Y-86894091D01*
X159702331Y-86843796D01*
X159817546Y-86757546D01*
X159903796Y-86642331D01*
X159933338Y-86563123D01*
X159975208Y-86507190D01*
X160040672Y-86482772D01*
X160108945Y-86497623D01*
X160139042Y-86520655D01*
X160171706Y-86554735D01*
X160363316Y-86696450D01*
X160576115Y-86803741D01*
X160803987Y-86873526D01*
X160803985Y-86873526D01*
X160850000Y-86879418D01*
X160850000Y-85735501D01*
X160957685Y-85784680D01*
X161064237Y-85800000D01*
X161135763Y-85800000D01*
X161242315Y-85784680D01*
X161350000Y-85735501D01*
X161350000Y-86878264D01*
X161511434Y-86843473D01*
X161732562Y-86754616D01*
X161935494Y-86629666D01*
X162114389Y-86472219D01*
X162114396Y-86472213D01*
X162264102Y-86286805D01*
X162264109Y-86286795D01*
X162380331Y-86078751D01*
X162459722Y-85854052D01*
X162459726Y-85854038D01*
X162499999Y-85619167D01*
X162500000Y-85619156D01*
X162500000Y-85550000D01*
X161533686Y-85550000D01*
X161559493Y-85509844D01*
X161600000Y-85371889D01*
X161600000Y-85228111D01*
X161559493Y-85090156D01*
X161533686Y-85050000D01*
X162500000Y-85050000D01*
X162500000Y-85040527D01*
X162499999Y-85040508D01*
X162484852Y-84862549D01*
X162484851Y-84862546D01*
X162424802Y-84631921D01*
X162326639Y-84414758D01*
X162326637Y-84414755D01*
X162193187Y-84217311D01*
X162193185Y-84217309D01*
X162028293Y-84045263D01*
X161836683Y-83903549D01*
X161623884Y-83796257D01*
X161396020Y-83726475D01*
X161350000Y-83720581D01*
X161350000Y-84864498D01*
X161242315Y-84815320D01*
X161135763Y-84800000D01*
X161064237Y-84800000D01*
X160957685Y-84815320D01*
X160850000Y-84864498D01*
X160850000Y-83721734D01*
X160849999Y-83721734D01*
X160688566Y-83756525D01*
X160467437Y-83845383D01*
X160264505Y-83970333D01*
X160131672Y-84087240D01*
X160068342Y-84116754D01*
X159999109Y-84107344D01*
X159945954Y-84061998D01*
X159933567Y-84037489D01*
X159903797Y-83957671D01*
X159903793Y-83957664D01*
X159817547Y-83842455D01*
X159817544Y-83842452D01*
X159702335Y-83756206D01*
X159702328Y-83756202D01*
X159567482Y-83705908D01*
X159567483Y-83705908D01*
X159507883Y-83699501D01*
X159507881Y-83699500D01*
X159507873Y-83699500D01*
X159507864Y-83699500D01*
X157612129Y-83699500D01*
X157612123Y-83699501D01*
X157552516Y-83705908D01*
X157417671Y-83756202D01*
X157417664Y-83756206D01*
X157302455Y-83842452D01*
X157302452Y-83842455D01*
X157216206Y-83957664D01*
X157216202Y-83957671D01*
X157165908Y-84092517D01*
X157159501Y-84152116D01*
X157159500Y-84152135D01*
X157159500Y-86447870D01*
X154134052Y-86447870D01*
X154264102Y-86286805D01*
X154264109Y-86286795D01*
X154380331Y-86078751D01*
X154459722Y-85854052D01*
X154459726Y-85854038D01*
X154499999Y-85619167D01*
X154500000Y-85619156D01*
X154500000Y-85550000D01*
X153533686Y-85550000D01*
X153559493Y-85509844D01*
X153600000Y-85371889D01*
X153600000Y-85228111D01*
X153559493Y-85090156D01*
X153533686Y-85050000D01*
X154500000Y-85050000D01*
X154500000Y-85040527D01*
X154499999Y-85040508D01*
X154484852Y-84862549D01*
X154484851Y-84862546D01*
X154424802Y-84631921D01*
X154326639Y-84414758D01*
X154326637Y-84414755D01*
X154193187Y-84217311D01*
X154193185Y-84217309D01*
X154028293Y-84045263D01*
X153836683Y-83903549D01*
X153623884Y-83796257D01*
X153396020Y-83726475D01*
X153350000Y-83720581D01*
X153350000Y-84864498D01*
X153242315Y-84815320D01*
X153135763Y-84800000D01*
X153064237Y-84800000D01*
X152957685Y-84815320D01*
X152850000Y-84864498D01*
X152850000Y-83721734D01*
X152849999Y-83721734D01*
X152688566Y-83756525D01*
X152467437Y-83845383D01*
X152264505Y-83970333D01*
X152131672Y-84087240D01*
X152068342Y-84116754D01*
X151999109Y-84107344D01*
X151945954Y-84061998D01*
X151933567Y-84037489D01*
X151903797Y-83957671D01*
X151903793Y-83957664D01*
X151817547Y-83842455D01*
X151817544Y-83842452D01*
X151702335Y-83756206D01*
X151702328Y-83756202D01*
X151567482Y-83705908D01*
X151567483Y-83705908D01*
X151507883Y-83699501D01*
X151507881Y-83699500D01*
X151507873Y-83699500D01*
X151507864Y-83699500D01*
X149612129Y-83699500D01*
X149612123Y-83699501D01*
X149552516Y-83705908D01*
X149417671Y-83756202D01*
X149417664Y-83756206D01*
X149302455Y-83842452D01*
X149302452Y-83842455D01*
X149216206Y-83957664D01*
X149216202Y-83957671D01*
X149165908Y-84092517D01*
X149159501Y-84152116D01*
X149159500Y-84152135D01*
X149159500Y-86447870D01*
X146134052Y-86447870D01*
X146264102Y-86286805D01*
X146264109Y-86286795D01*
X146380331Y-86078751D01*
X146459722Y-85854052D01*
X146459726Y-85854038D01*
X146499999Y-85619167D01*
X146500000Y-85619156D01*
X146500000Y-85550000D01*
X145533686Y-85550000D01*
X145559493Y-85509844D01*
X145600000Y-85371889D01*
X145600000Y-85228111D01*
X145559493Y-85090156D01*
X145533686Y-85050000D01*
X146500000Y-85050000D01*
X146500000Y-85040527D01*
X146499999Y-85040508D01*
X146484852Y-84862549D01*
X146484851Y-84862546D01*
X146424802Y-84631921D01*
X146326639Y-84414758D01*
X146326637Y-84414755D01*
X146193187Y-84217311D01*
X146193185Y-84217309D01*
X146028293Y-84045263D01*
X145836683Y-83903549D01*
X145623884Y-83796257D01*
X145396020Y-83726475D01*
X145350000Y-83720581D01*
X145350000Y-84864498D01*
X145242315Y-84815320D01*
X145135763Y-84800000D01*
X145064237Y-84800000D01*
X144957685Y-84815320D01*
X144850000Y-84864498D01*
X144850000Y-83721734D01*
X144849999Y-83721734D01*
X144688566Y-83756525D01*
X144467437Y-83845383D01*
X144264505Y-83970333D01*
X144131672Y-84087240D01*
X144068342Y-84116754D01*
X143999109Y-84107344D01*
X143945954Y-84061998D01*
X143933567Y-84037489D01*
X143903797Y-83957671D01*
X143903793Y-83957664D01*
X143817547Y-83842455D01*
X143817544Y-83842452D01*
X143702335Y-83756206D01*
X143702328Y-83756202D01*
X143567482Y-83705908D01*
X143567483Y-83705908D01*
X143507883Y-83699501D01*
X143507881Y-83699500D01*
X143507873Y-83699500D01*
X143507864Y-83699500D01*
X141612129Y-83699500D01*
X141612123Y-83699501D01*
X141552516Y-83705908D01*
X141417671Y-83756202D01*
X141417664Y-83756206D01*
X141302455Y-83842452D01*
X141302452Y-83842455D01*
X141216206Y-83957664D01*
X141216202Y-83957671D01*
X141165908Y-84092517D01*
X141159501Y-84152116D01*
X141159500Y-84152135D01*
X141159500Y-86447870D01*
X138674052Y-86447870D01*
X138804102Y-86286805D01*
X138804109Y-86286795D01*
X138920331Y-86078751D01*
X138999722Y-85854052D01*
X138999726Y-85854038D01*
X139039999Y-85619167D01*
X139040000Y-85619156D01*
X139040000Y-85550000D01*
X138073686Y-85550000D01*
X138099493Y-85509844D01*
X138140000Y-85371889D01*
X138140000Y-85228111D01*
X138099493Y-85090156D01*
X138073686Y-85050000D01*
X139040000Y-85050000D01*
X139040000Y-85040527D01*
X139039999Y-85040508D01*
X139024852Y-84862549D01*
X139024851Y-84862546D01*
X138964802Y-84631921D01*
X138866639Y-84414758D01*
X138866637Y-84414755D01*
X138733187Y-84217311D01*
X138733185Y-84217309D01*
X138568293Y-84045263D01*
X138376683Y-83903549D01*
X138163884Y-83796257D01*
X137936020Y-83726475D01*
X137890000Y-83720581D01*
X137890000Y-84864498D01*
X137782315Y-84815320D01*
X137675763Y-84800000D01*
X137604237Y-84800000D01*
X137497685Y-84815320D01*
X137390000Y-84864498D01*
X137390000Y-83721734D01*
X137389999Y-83721734D01*
X137228566Y-83756525D01*
X137007437Y-83845383D01*
X136804505Y-83970333D01*
X136671672Y-84087240D01*
X136608342Y-84116754D01*
X136539109Y-84107344D01*
X136485954Y-84061998D01*
X136473567Y-84037489D01*
X136443797Y-83957671D01*
X136443793Y-83957664D01*
X136357547Y-83842455D01*
X136357544Y-83842452D01*
X136242335Y-83756206D01*
X136242328Y-83756202D01*
X136107482Y-83705908D01*
X136107483Y-83705908D01*
X136047883Y-83699501D01*
X136047881Y-83699500D01*
X136047873Y-83699500D01*
X136047864Y-83699500D01*
X134152129Y-83699500D01*
X134152123Y-83699501D01*
X134092516Y-83705908D01*
X133957671Y-83756202D01*
X133957664Y-83756206D01*
X133842455Y-83842452D01*
X133842452Y-83842455D01*
X133756206Y-83957664D01*
X133756202Y-83957671D01*
X133705908Y-84092517D01*
X133699501Y-84152116D01*
X133699500Y-84152135D01*
X133699500Y-86447870D01*
X132341603Y-86447870D01*
X132336191Y-86348045D01*
X132336191Y-86348043D01*
X132279168Y-86000212D01*
X132219326Y-85784680D01*
X132184873Y-85660591D01*
X132184872Y-85660589D01*
X132054411Y-85333155D01*
X132054402Y-85333137D01*
X132019859Y-85267982D01*
X131889305Y-85021731D01*
X131691501Y-84729992D01*
X131691497Y-84729987D01*
X131691494Y-84729983D01*
X131463314Y-84461350D01*
X131414124Y-84414755D01*
X131207420Y-84218954D01*
X131207413Y-84218948D01*
X131207410Y-84218946D01*
X130926815Y-84005644D01*
X130624802Y-83823928D01*
X130624789Y-83823921D01*
X130304911Y-83675929D01*
X130304906Y-83675928D01*
X130304903Y-83675927D01*
X130304901Y-83675926D01*
X130198432Y-83640052D01*
X129970880Y-83563381D01*
X129626643Y-83487608D01*
X129276238Y-83449500D01*
X129276237Y-83449500D01*
X128923763Y-83449500D01*
X128923761Y-83449500D01*
X128573356Y-83487608D01*
X128229119Y-83563381D01*
X127895093Y-83675928D01*
X127895088Y-83675929D01*
X127575210Y-83823921D01*
X127575197Y-83823928D01*
X127273184Y-84005644D01*
X126992589Y-84218946D01*
X126992580Y-84218954D01*
X126736685Y-84461350D01*
X126508505Y-84729983D01*
X126508498Y-84729993D01*
X126310695Y-85021730D01*
X126145597Y-85333137D01*
X126145588Y-85333155D01*
X126015127Y-85660589D01*
X126015126Y-85660591D01*
X125920834Y-86000203D01*
X125920833Y-86000206D01*
X125863808Y-86348045D01*
X125844726Y-86699997D01*
X125844726Y-86700002D01*
X125300500Y-86700002D01*
X125300500Y-83024500D01*
X125320185Y-82957461D01*
X125372989Y-82911706D01*
X125424500Y-82900500D01*
X182775500Y-82900500D01*
X182842539Y-82920185D01*
G37*
%TD.AperFunction*%
%TD*%
M02*
